<svg width="176" height="178" viewBox="0 0 176 178" fill="none" xmlns="http://www.w3.org/2000/svg">
<g clip-path="url(#clip0_13_195)">
<path d="M95.7691 118.83C99.3645 118.83 102.269 121.793 102.155 125.41C102.055 128.901 99 131.601 95.4925 131.601H87.8743C86.5794 131.601 85.536 132.643 85.536 133.936C85.536 135.23 86.5794 136.272 87.8743 136.272H106.078C112.376 136.272 117.493 141.37 117.493 147.662V166.585C117.493 172.877 112.389 177.987 106.078 177.987H69.9977C60.456 177.987 52.712 170.252 52.712 160.721V135.456C52.712 126.264 60.1668 118.817 69.3691 118.817H95.7565L95.7691 118.83Z" fill="#E49B41"/>
<path d="M61.4366 147.235C62.1783 147.046 63.0206 147.021 63.8754 147.021C64.3154 146.87 64.9188 146.783 65.5223 146.808C65.7486 146.795 65.9748 146.795 66.2011 146.808C66.704 146.808 67.2068 146.896 67.6594 146.983C67.9988 146.933 68.376 146.933 68.7154 146.983C69.5703 146.87 70.6388 146.82 71.5314 147.109C72.248 147.084 73.0148 147.285 73.6811 147.561C74.36 147.636 75.1017 147.913 75.7428 148.252C76.3714 148.465 77.088 148.767 77.6034 149.231C78.0434 149.357 78.6343 149.646 78.9737 149.985C79.0868 150.098 79.2 150.198 79.3006 150.311C81.4126 151.831 83.1474 153.903 84.2286 156.263C84.4926 156.653 84.7566 157.18 84.8068 157.645C84.9703 158.134 85.1714 158.624 85.2468 159.089V159.151C85.7371 160.269 85.976 161.487 85.9131 162.705V162.956H85.9257C85.9508 163.019 85.9257 163.082 86.0137 163.082H86.2274C87.0445 162.931 87.9497 162.919 88.7668 163.032C89.6343 162.919 90.5897 162.931 91.4823 162.994L91.696 163.019C92.1863 162.906 92.8526 162.906 93.3303 163.019L93.4183 163.044H94.7634C95.2285 163.019 95.6937 163.007 96.1588 163.044H100.823C101.338 162.956 101.917 162.944 102.432 162.956H102.746C104.167 162.981 105.587 162.956 107.083 163.082C107.649 163.12 108.064 163.258 108.315 163.433C108.617 163.446 108.931 163.484 109.258 163.547C109.661 163.622 109.975 163.722 110.214 163.873C110.541 163.798 111.031 163.798 111.571 164.024C112.099 164.212 112.64 164.513 113.067 164.84L113.206 164.903C113.834 165.179 114.488 165.669 114.978 166.196C115.192 166.334 115.418 166.523 115.632 166.724C116.638 167.678 117.241 169.436 117.04 170.39C117.015 170.528 116.99 170.641 116.952 170.717L116.763 171.144L116.663 171.068C116.361 170.842 116.399 170.604 116.663 170.403L116.298 170.842C116.034 170.641 115.795 170.24 115.506 169.788C114.978 168.858 114.337 167.929 113.558 167.15C113.017 166.749 112.389 166.384 111.785 166.045C110.591 165.669 108.755 165.317 107.435 164.965C106.442 164.94 105.411 164.915 104.456 164.777C103.727 164.802 103.01 164.777 102.319 164.702C101.891 164.752 101.451 164.79 100.961 164.815H100.773C100.056 164.827 99.352 164.802 98.6857 164.727C98.0571 164.827 97.328 164.84 96.6366 164.79C95.2034 164.991 93.5314 165.016 92.136 164.79C90.8914 164.915 89.5086 164.903 88.3646 164.677C87.9623 164.752 87.5348 164.802 87.0948 164.84C86.8686 164.852 86.6548 164.865 86.4286 164.89H86.0514L85.4103 164.915H84.7691H84.4548C84.3668 164.89 84.1783 164.978 84.2286 164.827C84.216 164.4 84.2034 163.986 84.1908 163.572V163.007V162.693C84.2034 162.479 84.1908 162.278 84.1908 162.077C83.9017 160.483 83.248 158.549 82.8583 157.105C82.632 156.665 82.3554 156.251 82.0914 155.824C81.8526 155.384 81.5634 154.982 81.2743 154.568L81.1234 154.355C80.9977 154.166 80.8468 154.003 80.696 153.827C80.0548 153.25 79.376 152.672 78.7348 152.057C77.5154 151.491 75.9063 150.474 74.6491 149.696C74.0708 149.595 73.5051 149.394 72.9017 149.281C72.6 149.206 72.3108 149.118 72.0217 149.03C71.72 148.967 71.4308 148.892 71.1543 148.804C70.7017 148.792 70.224 148.779 69.7337 148.767C69.256 148.729 68.7531 148.679 68.2628 148.628C67.2948 148.817 66.1006 148.854 65.032 148.792C64.4286 148.892 63.7371 148.93 63.0708 148.917C62.9326 148.917 62.8068 148.917 62.6937 148.892H62.6308C60.632 148.767 59.4503 147.8 61.4491 147.297L61.4366 147.235Z" fill="white"/>
<path d="M86.7051 154.041C87.0823 153.852 87.5097 153.827 87.9371 153.827C88.1634 153.676 88.4651 153.589 88.7794 153.614C88.8925 153.601 89.0057 153.601 89.1188 153.614C89.3703 153.614 89.6217 153.702 89.8605 153.789C90.0365 153.739 90.2251 153.739 90.3885 153.789C90.816 153.639 91.3063 153.589 91.7463 153.689C92.0857 153.589 92.4628 153.576 92.8023 153.676C93.1291 153.576 93.4937 153.563 93.8457 153.639C94.16 153.551 94.5245 153.551 94.8514 153.651C95.0651 153.526 95.3668 153.488 95.5931 153.538L95.8068 153.601C97.0514 153.538 98.296 153.551 99.5405 153.626C99.7668 153.551 100.043 153.576 100.257 153.676C100.509 153.676 100.76 153.689 100.986 153.739H101.011C101.59 153.589 102.181 153.576 102.759 153.727H103.01H103.023C103.211 153.702 103.387 153.702 103.563 153.727H103.915C104.33 153.576 104.783 153.563 105.198 153.676C105.638 153.576 106.115 153.576 106.581 153.651L106.694 153.676C106.958 153.576 107.31 153.576 107.549 153.702L107.599 153.727L108.303 153.777C108.554 153.777 108.793 153.777 109.032 153.84C109.849 153.928 110.666 154.053 111.483 154.267C111.773 154.267 112.087 154.329 112.351 154.442C112.401 154.455 112.464 154.48 112.514 154.505C113.256 154.756 113.96 155.121 114.639 155.535C114.903 155.698 115.029 155.912 115.079 156.087C115.217 156.163 115.381 156.238 115.506 156.364C115.67 156.502 115.783 156.653 115.833 156.803C116.072 156.778 116.311 156.891 116.512 157.13C116.713 157.356 116.864 157.645 116.965 157.908L117.015 157.959C117.254 158.222 117.467 158.586 117.581 158.925C117.681 159.013 117.782 159.126 117.857 159.252C118.259 159.83 118.385 160.734 118.109 161.249L118.083 161.299L117.744 161.864L117.669 161.788C117.354 161.487 117.417 161.136 117.669 160.872L117.178 161.475C117.002 161.374 116.839 161.223 116.726 161.048C116.411 160.57 116.198 160.043 116.022 159.503C115.808 159.227 115.607 158.938 115.456 158.637C114.941 158.272 114.287 157.745 113.885 157.205C113.457 157.004 113.017 156.778 112.678 156.477C112.363 156.351 112.049 156.238 111.76 156.05C111.546 156.025 111.333 156.012 111.106 155.974L111.018 155.949C110.691 155.861 110.365 155.774 110.063 155.648C109.749 155.686 109.397 155.648 109.07 155.548C108.353 155.648 107.561 155.623 106.882 155.384C106.279 155.485 105.575 155.485 104.997 155.259C104.179 155.548 103.174 155.548 102.319 155.359C101.464 155.497 100.345 155.522 99.5783 155.196C99.0503 155.271 98.5223 155.234 97.9943 155.196H97.856L97.504 155.183C97.0514 155.309 96.5737 155.334 96.096 155.296C95.4045 155.648 94.3485 155.61 93.5817 155.334C92.9783 155.522 92.2743 155.535 91.6583 155.372C91.1805 155.51 90.6148 155.485 90.1371 155.372C89.6468 155.56 89.0434 155.598 88.5028 155.535C88.2011 155.635 87.8491 155.673 87.5097 155.661C87.4343 155.661 87.3714 155.661 87.3211 155.635H87.296C86.2903 155.51 85.6868 154.543 86.6925 154.041H86.7051Z" fill="white"/>
<path d="M86.7051 144.673C87.0823 144.485 87.5097 144.459 87.9371 144.459C88.1634 144.309 88.4651 144.221 88.7794 144.246C88.8925 144.233 89.0057 144.233 89.1188 144.246C89.3703 144.246 89.6217 144.334 89.8605 144.422C90.0365 144.371 90.2251 144.371 90.3885 144.422C90.816 144.271 91.3063 144.221 91.7463 144.321C92.0857 144.221 92.4628 144.208 92.8023 144.309C93.1291 144.208 93.4937 144.196 93.8457 144.271C94.16 144.183 94.5245 144.183 94.8514 144.284C95.0651 144.158 95.3668 144.12 95.5931 144.171L95.8068 144.233C97.0514 144.171 98.296 144.183 99.5405 144.258C99.7668 144.183 100.043 144.208 100.257 144.309C100.509 144.309 100.76 144.321 100.986 144.371H101.011C101.59 144.221 102.181 144.208 102.759 144.359H103.01H103.023C103.211 144.334 103.387 144.334 103.563 144.359H103.915C104.33 144.208 104.783 144.196 105.198 144.309C105.638 144.208 106.115 144.208 106.581 144.284L106.694 144.309C106.958 144.208 107.31 144.208 107.549 144.334L107.599 144.359L108.303 144.409C108.554 144.409 108.793 144.409 109.032 144.472C109.849 144.56 110.666 144.685 111.483 144.899C111.773 144.899 112.087 144.962 112.351 145.075C112.401 145.087 112.464 145.112 112.514 145.137C113.256 145.389 113.96 145.753 114.639 146.167C114.903 146.33 115.029 146.544 115.079 146.72C115.217 146.795 115.381 146.87 115.506 146.996C115.67 147.134 115.783 147.285 115.833 147.435C116.072 147.41 116.311 147.523 116.512 147.762C116.713 147.988 116.864 148.277 116.965 148.541L117.015 148.591C117.254 148.854 117.467 149.219 117.581 149.558C117.681 149.646 117.782 149.759 117.857 149.897C118.259 150.474 118.385 151.378 118.109 151.893L118.083 151.944L117.744 152.509L117.669 152.433C117.354 152.132 117.417 151.78 117.669 151.517L117.178 152.119C117.002 152.019 116.839 151.868 116.726 151.692C116.411 151.215 116.198 150.688 116.022 150.148C115.808 149.872 115.607 149.583 115.456 149.281C114.941 148.917 114.287 148.39 113.885 147.85C113.457 147.649 113.017 147.423 112.678 147.122C112.363 146.996 112.049 146.883 111.76 146.695C111.546 146.669 111.333 146.657 111.106 146.619L111.018 146.594C110.691 146.506 110.365 146.418 110.063 146.293C109.749 146.33 109.397 146.293 109.07 146.192C108.353 146.293 107.561 146.268 106.882 146.029C106.279 146.13 105.575 146.13 104.997 145.903C104.179 146.192 103.174 146.192 102.319 146.004C101.464 146.142 100.345 146.167 99.5783 145.841C99.0503 145.916 98.5223 145.878 97.9943 145.841H97.856L97.504 145.828C97.0514 145.954 96.5737 145.979 96.096 145.941C95.4045 146.293 94.3485 146.255 93.5817 145.979C92.9783 146.167 92.2743 146.18 91.6583 146.017C91.1805 146.155 90.6148 146.13 90.1371 146.017C89.6468 146.205 89.0434 146.243 88.5028 146.18C88.2011 146.28 87.8491 146.318 87.5097 146.305C87.4343 146.305 87.3714 146.305 87.3211 146.28H87.296C86.2903 146.155 85.6868 145.188 86.6925 144.685L86.7051 144.673Z" fill="white"/>
<path d="M44.1257 171.571H57.7532L57.7532 131.676H44.1257L44.1257 171.571Z" fill="#E49B41"/>
<g style="mix-blend-mode:multiply">
<path d="M3.05176e-05 171.621H47.6206L47.6206 131.613H3.05176e-05L3.05176e-05 171.621Z" fill="#87BABF"/>
</g>
<path d="M80.2309 8.56409C76.6354 8.56409 73.7315 11.5276 73.8446 15.1441C73.9452 18.6351 77 21.3349 80.5074 21.3349H88.1257C89.4206 21.3349 90.464 22.3771 90.464 23.6706C90.464 24.964 89.4206 26.0062 88.1257 26.0062H69.9223C63.624 26.0062 58.52 31.1045 58.52 37.4083V56.3321C58.52 62.6234 63.624 67.7216 69.9223 67.7216H106.002C115.544 67.7216 123.288 59.9863 123.288 50.4553V25.2025C123.288 16.0106 115.833 8.56409 106.631 8.56409H80.2435H80.2309Z" fill="#E49B41"/>
<path d="M131.862 21.4102H118.234V61.3048H131.862V21.4102Z" fill="#E49B41"/>
<g style="mix-blend-mode:multiply">
<path d="M128.379 21.3349V61.3425H176V21.3349H128.379ZM143.201 56.9223C141.19 56.9223 139.543 55.2899 139.543 53.2681C139.543 51.2464 141.177 49.614 143.201 49.614C145.225 49.614 146.859 51.2464 146.859 53.2681C146.859 55.2899 145.225 56.9223 143.201 56.9223ZM155.659 56.9223C153.648 56.9223 152.001 55.2899 152.001 53.2681C152.001 51.2464 153.635 49.614 155.659 49.614C157.683 49.614 159.318 51.2464 159.318 53.2681C159.318 55.2899 157.683 56.9223 155.659 56.9223Z" fill="#87BABF"/>
</g>
<g style="mix-blend-mode:multiply">
<path d="M97.6549 26.0816L108.441 0H66.5532L77.3394 26.0816H97.6549Z" fill="#87BABF"/>
</g>
<g style="mix-blend-mode:multiply">
<path d="M110.39 64.7958H66.9051C55.6537 74.1384 48.1863 89.4207 48.1863 102.003C48.1863 121.605 66.3017 137.49 88.6537 137.49C111.006 137.49 129.121 121.605 129.121 102.003C129.121 89.4207 121.654 74.1384 110.402 64.7958H110.39Z" fill="#87BABF"/>
</g>
<path d="M99.8926 98.2108C98.2206 96.7918 95.656 95.6365 92.2114 94.7701V85.4149C94.4366 85.8669 96.5234 86.746 98.4468 88.1273L101.69 83.5438C98.6983 81.497 95.5428 80.304 92.2114 79.9148V77.1773H86.8937V79.9273C84.2537 80.2664 82.0411 81.1831 80.3063 82.7653C78.2949 84.5861 77.2891 86.9343 77.2891 89.7974C77.2891 92.6605 78.1566 94.8329 79.904 96.2895C81.4503 97.5829 83.776 98.6503 86.8937 99.5042V109.211C84.3794 108.571 81.928 107.227 79.5394 105.142L75.9063 109.475C79.1874 112.325 82.8583 114.071 86.9063 114.724V118.579H92.224V114.837C95.1909 114.548 97.6423 113.606 99.5154 111.948C101.565 110.128 102.595 107.767 102.595 104.866C102.595 101.965 101.703 99.7553 99.9051 98.2233L99.8926 98.2108ZM84.3543 91.8191C83.688 91.1661 83.3611 90.2997 83.3611 89.1821C83.3611 88.0645 83.7886 87.1478 84.6309 86.3944C85.2217 85.8795 85.976 85.5153 86.8811 85.2893V93.2381C85.6994 92.7735 84.8571 92.3089 84.3543 91.8191ZM95.1029 108.206C94.3486 108.822 93.3806 109.236 92.1988 109.462V100.936C93.7074 101.451 94.7886 101.991 95.4046 102.556C96.1337 103.234 96.4983 104.15 96.4983 105.318C96.4983 106.486 96.0331 107.44 95.1029 108.206Z" fill="white"/>
<g style="mix-blend-mode:multiply">
<path d="M156.854 57.3242C154.842 57.3242 153.195 55.6917 153.195 53.67C153.195 51.6483 154.83 50.0158 156.854 50.0158C158.878 50.0158 160.512 51.6483 160.512 53.67C160.512 55.6917 158.878 57.3242 156.854 57.3242Z" fill="#E49B41"/>
</g>
<g style="mix-blend-mode:multiply">
<path d="M144.395 57.3242C142.384 57.3242 140.737 55.6917 140.737 53.67C140.737 51.6483 142.371 50.0158 144.395 50.0158C146.419 50.0158 148.054 51.6483 148.054 53.67C148.054 55.6917 146.419 57.3242 144.395 57.3242Z" fill="#E49B41"/>
</g>
<path d="M150.983 96.9425C150.845 97.1183 150.694 97.1434 150.53 97.1309C150.442 97.2815 150.329 97.3569 150.229 97.3318C150.191 97.3443 150.141 97.3318 150.103 97.3318C150.015 97.3192 149.927 97.2439 149.851 97.1434C149.789 97.1811 149.726 97.1811 149.663 97.1434C149.499 97.2815 149.323 97.3318 149.173 97.2188C149.047 97.3192 148.921 97.3192 148.795 97.2188C148.67 97.3192 148.544 97.3192 148.431 97.2439C148.318 97.3318 148.179 97.3192 148.079 97.2062C148.003 97.3192 147.89 97.3694 147.815 97.3067C147.79 97.2941 147.765 97.269 147.739 97.2439C147.299 97.2815 146.859 97.2439 146.419 97.156C146.331 97.2313 146.243 97.1936 146.168 97.0932C146.08 97.0806 145.992 97.0681 145.917 97.0178C145.703 97.156 145.502 97.156 145.301 97.0053C145.275 97.0053 145.238 97.0053 145.213 97.0053C145.15 97.0178 145.087 97.0178 145.024 97.0053C144.986 97.0053 144.936 97.0053 144.898 97.0053C144.747 97.1434 144.584 97.156 144.446 97.0304C144.282 97.1309 144.119 97.1183 143.955 97.043C143.955 97.043 143.93 97.0304 143.918 97.0178C143.83 97.1183 143.704 97.1183 143.629 96.9927C143.629 96.9927 143.629 96.9802 143.616 96.9676C143.541 96.9676 143.453 96.9676 143.377 96.9676C143.289 96.9927 143.214 96.9927 143.126 96.9676C142.849 96.9676 142.573 96.9551 142.296 96.9425C142.195 97.0053 142.095 97.0053 142.007 97.0053C141.982 97.0053 141.969 97.0053 141.957 97.0053C141.705 96.9802 141.454 96.9551 141.19 96.9174C141.089 96.9174 141.026 96.8169 140.989 96.6914C140.938 96.7165 140.875 96.7165 140.825 96.7165C140.75 96.7165 140.699 96.6662 140.662 96.5909C140.599 96.7416 140.523 96.8546 140.423 96.8295C140.335 96.8044 140.234 96.7541 140.146 96.6662C140.146 96.6662 140.134 96.6662 140.121 96.6662C140.008 96.7039 139.87 96.6913 139.757 96.6286C139.719 96.6788 139.669 96.7165 139.618 96.729C139.392 96.8169 139.128 96.7039 138.99 96.3146C138.814 95.8375 138.99 95.2347 139.241 95.0338C139.455 94.858 139.706 94.8705 139.92 94.9836C140.058 94.9459 140.209 94.9333 140.335 95.0087C140.586 94.8454 140.951 94.8078 141.19 95.0715C141.378 95.0212 141.579 95.0212 141.73 95.1845C141.856 95.1594 141.994 95.1845 142.107 95.2849C142.183 95.2347 142.271 95.2096 142.359 95.1845C142.359 95.1845 142.384 95.1845 142.397 95.1845C142.522 95.1845 142.648 95.2096 142.761 95.2975C142.874 95.197 143.013 95.197 143.126 95.2598C143.39 95.0715 143.691 95.0589 143.93 95.31C144.157 95.197 144.408 95.2221 144.597 95.4607C144.898 95.1845 145.25 95.197 145.552 95.4105C145.866 95.2975 146.256 95.2849 146.507 95.6114C146.696 95.5486 146.885 95.5863 147.073 95.6491C147.086 95.6491 147.111 95.6491 147.123 95.6617C147.161 95.6617 147.211 95.6617 147.249 95.6617C147.413 95.5486 147.589 95.5235 147.752 95.5738C148.016 95.2347 148.381 95.2975 148.645 95.5738C148.871 95.3979 149.122 95.3979 149.323 95.5738C149.499 95.4356 149.701 95.4733 149.864 95.6114C150.04 95.4231 150.266 95.3979 150.455 95.4859C150.568 95.3854 150.694 95.3603 150.807 95.3728C150.832 95.3728 150.857 95.3728 150.87 95.3979C151.222 95.5361 151.385 96.5156 151.008 97.0053L150.983 96.9425Z" fill="#87BABF"/>
<path d="M131.648 145.715C131.422 145.728 131.283 145.627 131.183 145.502C131.019 145.539 130.881 145.502 130.818 145.401C130.781 145.376 130.755 145.351 130.743 145.301C130.693 145.225 130.68 145.1 130.693 144.974C130.617 144.962 130.567 144.899 130.554 144.824C130.341 144.798 130.177 144.698 130.152 144.497C129.989 144.472 129.888 144.371 129.875 144.208C129.712 144.183 129.611 144.095 129.586 143.945C129.435 143.919 129.36 143.806 129.347 143.643C129.209 143.668 129.096 143.605 129.083 143.505C129.083 143.467 129.083 143.442 129.083 143.405C128.731 143.091 128.43 142.739 128.178 142.337C128.065 142.325 128.015 142.224 128.04 142.099C127.99 142.023 127.927 141.948 127.914 141.847C127.663 141.785 127.512 141.621 127.474 141.358C127.449 141.333 127.437 141.308 127.411 141.282C127.349 141.245 127.311 141.194 127.273 141.132C127.248 141.094 127.21 141.069 127.185 141.031C126.971 141.006 126.846 140.893 126.833 140.705C126.645 140.655 126.531 140.504 126.469 140.341C126.469 140.328 126.469 140.315 126.469 140.29C126.33 140.29 126.242 140.202 126.267 140.052V140.027C126.205 139.964 126.154 139.901 126.091 139.838C126.016 139.788 125.953 139.725 125.915 139.637C125.714 139.424 125.513 139.198 125.325 138.984C125.211 138.959 125.123 138.884 125.073 138.796C125.061 138.783 125.048 138.771 125.035 138.746C124.872 138.532 124.709 138.319 124.533 138.105C124.47 138.03 124.482 137.904 124.545 137.791C124.495 137.766 124.445 137.729 124.407 137.678C124.357 137.616 124.357 137.54 124.382 137.465C124.231 137.528 124.093 137.54 124.03 137.452C123.979 137.365 123.942 137.251 123.942 137.126C123.942 137.126 123.929 137.126 123.917 137.126C123.803 137.063 123.715 136.963 123.678 136.825C123.615 136.825 123.552 136.825 123.502 136.787C123.275 136.674 123.15 136.385 123.338 136.021C123.565 135.556 124.118 135.267 124.445 135.318C124.734 135.368 124.91 135.556 124.985 135.807C125.123 135.883 125.224 135.996 125.274 136.146C125.576 136.222 125.878 136.473 125.865 136.837C126.041 136.95 126.179 137.101 126.192 137.327C126.305 137.415 126.381 137.528 126.393 137.691C126.494 137.716 126.569 137.754 126.645 137.817C126.645 137.817 126.657 137.829 126.67 137.842C126.77 137.93 126.833 138.055 126.858 138.206C127.009 138.231 127.11 138.331 127.16 138.457C127.487 138.532 127.726 138.746 127.713 139.097C127.965 139.198 128.128 139.399 128.103 139.713C128.518 139.75 128.782 140.039 128.845 140.403C129.159 140.554 129.461 140.855 129.398 141.282C129.586 141.383 129.687 141.559 129.787 141.734C129.787 141.747 129.8 141.76 129.813 141.785C129.838 141.822 129.875 141.847 129.901 141.885C130.102 141.935 130.24 142.048 130.328 142.212C130.755 142.174 130.994 142.5 130.982 142.902C131.271 142.953 131.459 143.141 131.485 143.43C131.711 143.467 131.824 143.643 131.862 143.869C132.126 143.869 132.302 144.032 132.39 144.221C132.541 144.233 132.654 144.321 132.729 144.422C132.742 144.447 132.754 144.472 132.767 144.484C132.93 144.849 132.339 145.652 131.711 145.703L131.648 145.715Z" fill="#87BABF"/>
<path d="M145.929 123.175C145.715 123.288 145.552 123.238 145.401 123.175C145.263 123.275 145.112 123.3 145.024 123.238C144.974 123.238 144.936 123.212 144.911 123.175C144.823 123.125 144.76 123.024 144.722 122.898C144.647 122.911 144.571 122.886 144.534 122.823C144.32 122.886 144.131 122.861 144.018 122.698C143.855 122.735 143.717 122.685 143.641 122.547C143.478 122.597 143.352 122.547 143.251 122.421C143.101 122.459 142.975 122.384 142.899 122.245C142.774 122.321 142.648 122.308 142.585 122.233C142.56 122.208 142.547 122.17 142.535 122.145C142.07 122.007 141.63 121.793 141.227 121.53C141.114 121.567 141.026 121.492 140.989 121.379C140.901 121.329 140.813 121.291 140.762 121.203C140.498 121.253 140.285 121.166 140.146 120.94C140.121 120.927 140.083 120.914 140.058 120.902C139.983 120.902 139.92 120.864 139.87 120.814L139.744 120.764C139.53 120.839 139.367 120.764 139.266 120.6C139.065 120.626 138.902 120.55 138.763 120.412C138.763 120.412 138.751 120.387 138.738 120.374C138.613 120.437 138.487 120.374 138.449 120.236V120.211C138.374 120.174 138.286 120.148 138.21 120.111C138.11 120.098 138.034 120.061 137.959 119.998C137.682 119.872 137.393 119.759 137.117 119.634C136.991 119.659 136.89 119.621 136.802 119.571C136.777 119.571 136.765 119.558 136.752 119.546C136.501 119.42 136.262 119.295 136.01 119.156C135.91 119.106 135.885 118.993 135.885 118.855C135.822 118.855 135.759 118.842 135.709 118.805C135.646 118.767 135.595 118.704 135.583 118.616C135.47 118.742 135.344 118.805 135.256 118.742C135.168 118.679 135.093 118.591 135.042 118.478H135.017C134.891 118.466 134.753 118.403 134.665 118.29C134.602 118.315 134.539 118.328 134.489 118.328C134.225 118.328 133.999 118.102 133.999 117.687C133.999 117.172 134.389 116.67 134.715 116.582C135.005 116.507 135.243 116.607 135.419 116.808C135.583 116.821 135.734 116.884 135.834 117.009C136.149 116.959 136.538 117.072 136.689 117.411C136.903 117.436 137.091 117.524 137.205 117.737C137.343 117.775 137.469 117.85 137.557 117.989C137.657 117.976 137.745 117.989 137.846 117.989C137.846 117.989 137.871 117.989 137.883 117.989C138.022 118.039 138.135 118.114 138.223 118.24C138.374 118.202 138.512 118.24 138.613 118.353C138.952 118.29 139.266 118.39 139.417 118.717C139.694 118.717 139.933 118.83 140.046 119.119C140.448 118.981 140.813 119.144 141.026 119.445C141.378 119.458 141.793 119.608 141.931 120.023C142.145 120.035 142.321 120.148 142.485 120.274C142.497 120.274 142.51 120.299 142.522 120.312C142.56 120.337 142.61 120.349 142.648 120.374C142.862 120.337 143.038 120.374 143.189 120.5C143.578 120.299 143.93 120.5 144.094 120.864C144.383 120.789 144.634 120.889 144.785 121.14C145.011 121.09 145.2 121.203 145.326 121.392C145.577 121.291 145.803 121.354 145.967 121.505C146.118 121.454 146.256 121.492 146.369 121.542C146.394 121.555 146.407 121.567 146.432 121.593C146.734 121.869 146.545 122.848 145.992 123.137L145.929 123.175Z" fill="#87BABF"/>
<path d="M147.413 71.4637C147.35 71.6897 147.211 71.7651 147.061 71.8153C147.035 71.9911 146.96 72.1041 146.847 72.1167C146.809 72.1418 146.771 72.1544 146.721 72.1544C146.633 72.1795 146.52 72.1418 146.407 72.0916C146.369 72.1544 146.294 72.1795 146.231 72.1669C146.13 72.3553 145.979 72.4683 145.803 72.4306C145.728 72.5687 145.602 72.619 145.451 72.5687C145.376 72.7069 145.25 72.7697 145.112 72.732C145.037 72.8576 144.911 72.8952 144.76 72.845C144.735 72.9831 144.634 73.071 144.546 73.0459C144.509 73.0459 144.483 73.0334 144.446 73.0208C144.043 73.2343 143.616 73.3724 143.163 73.4478C143.113 73.5482 143.013 73.5482 142.899 73.498C142.811 73.5231 142.723 73.5482 142.623 73.5231C142.472 73.7366 142.283 73.8119 142.032 73.7491C142.007 73.7491 141.969 73.7742 141.944 73.7868C141.894 73.8245 141.831 73.8496 141.755 73.8622C141.718 73.8747 141.68 73.8873 141.63 73.9124C141.542 74.1007 141.391 74.1761 141.202 74.1133C141.089 74.264 140.926 74.3268 140.75 74.3142C140.737 74.3142 140.725 74.3142 140.699 74.3142C140.649 74.4523 140.536 74.49 140.41 74.4147C140.41 74.4147 140.398 74.4147 140.385 74.4021C140.31 74.4272 140.234 74.4649 140.159 74.49C140.083 74.5402 140.008 74.5779 139.92 74.5779C139.656 74.6784 139.392 74.7788 139.115 74.8919C139.053 74.9923 138.952 75.03 138.864 75.0677C138.851 75.0677 138.826 75.0802 138.814 75.0802C138.562 75.1556 138.311 75.2309 138.059 75.3062C137.959 75.3314 137.858 75.2811 137.77 75.1807C137.733 75.2183 137.682 75.2435 137.619 75.2686C137.557 75.2937 137.481 75.2686 137.406 75.2183C137.406 75.3816 137.368 75.5197 137.267 75.5323C137.167 75.5448 137.054 75.5323 136.941 75.4946C136.941 75.4946 136.941 75.5072 136.915 75.5197C136.815 75.5951 136.689 75.6453 136.563 75.6202C136.538 75.683 136.513 75.7332 136.475 75.7709C136.299 75.9467 135.998 75.9467 135.721 75.6453C135.369 75.2686 135.306 74.6407 135.457 74.3644C135.595 74.1133 135.834 74.0254 136.086 74.0505C136.199 73.9501 136.337 73.8998 136.501 73.9124C136.677 73.6612 137.016 73.4854 137.343 73.6236C137.506 73.498 137.695 73.4226 137.909 73.5105C138.022 73.4352 138.16 73.4101 138.311 73.4478C138.374 73.3724 138.437 73.3096 138.512 73.2594C138.512 73.2594 138.537 73.2594 138.537 73.2468C138.65 73.1966 138.789 73.1715 138.927 73.2092C139.002 73.071 139.128 73.0208 139.266 73.0334C139.442 72.7571 139.719 72.619 140.046 72.7571C140.222 72.5687 140.461 72.4934 140.737 72.6315C140.913 72.2548 141.265 72.1292 141.617 72.2046C141.869 71.9786 142.233 71.8028 142.61 72.0162C142.761 71.8781 142.962 71.853 143.151 71.8279C143.163 71.8279 143.189 71.8279 143.201 71.8279C143.239 71.8153 143.289 71.8027 143.327 71.7902C143.44 71.6144 143.591 71.539 143.767 71.5139C143.88 71.0995 144.257 71.0116 144.609 71.1749C144.747 70.9237 144.986 70.8233 145.25 70.8986C145.363 70.7103 145.565 70.66 145.778 70.7103C145.879 70.4717 146.08 70.3587 146.281 70.3587C146.357 70.2205 146.457 70.1452 146.583 70.1201C146.608 70.1201 146.633 70.1201 146.658 70.1201C147.048 70.1201 147.576 70.9489 147.4 71.539L147.413 71.4637Z" fill="#87BABF"/>
<path d="M21.0194 95.9505C21.1703 95.7747 21.3337 95.7621 21.4846 95.7747C21.5726 95.624 21.6983 95.5612 21.8114 95.5863C21.8492 95.5738 21.8994 95.5863 21.9372 95.5989C22.0252 95.6114 22.1132 95.6993 22.2012 95.7872C22.264 95.7496 22.3394 95.7496 22.4023 95.7872C22.5657 95.6491 22.7543 95.6114 22.9052 95.7244C23.0434 95.624 23.1817 95.6365 23.2949 95.737C23.4206 95.6365 23.5589 95.6365 23.6846 95.7244C23.8103 95.6365 23.9486 95.6617 24.0492 95.7747C24.1372 95.6617 24.2503 95.624 24.3383 95.6868C24.3634 95.7119 24.3886 95.7244 24.4137 95.7496C24.8789 95.7244 25.3314 95.7621 25.784 95.8877C25.872 95.8123 25.9726 95.8626 26.048 95.9505C26.136 95.963 26.2366 95.9756 26.312 96.0384C26.5383 95.9002 26.752 95.9128 26.9532 96.076C26.9783 96.076 27.016 96.076 27.0412 96.076C27.104 96.0635 27.1794 96.076 27.2423 96.076C27.28 96.076 27.3303 96.076 27.368 96.076C27.5314 95.9379 27.6949 95.9379 27.8457 96.076C28.0217 95.9756 28.1977 96.0007 28.3486 96.076C28.3612 96.076 28.3737 96.1012 28.3863 96.1012C28.4869 96.0007 28.6126 96.0007 28.688 96.1263C28.688 96.1263 28.688 96.1388 28.7006 96.1514C28.7886 96.1514 28.864 96.1514 28.952 96.164C29.04 96.1514 29.128 96.1514 29.216 96.1765C29.5052 96.1891 29.7943 96.2142 30.0834 96.2267C30.184 96.1639 30.2972 96.1639 30.3852 96.1765C30.4103 96.1765 30.4229 96.1765 30.448 96.1765C30.712 96.2142 30.976 96.2518 31.24 96.2895C31.3406 96.3021 31.4034 96.4025 31.4537 96.5281C31.504 96.5156 31.5669 96.503 31.6297 96.5156C31.7052 96.5156 31.7554 96.5783 31.8057 96.6537C31.8686 96.503 31.9566 96.39 32.0572 96.4277C32.1577 96.4528 32.2583 96.503 32.3337 96.6035C32.3337 96.6035 32.3463 96.6035 32.3589 96.6035C32.4846 96.5783 32.6103 96.5783 32.736 96.6537C32.7863 96.6035 32.8366 96.5658 32.8869 96.5532C33.1257 96.4653 33.4023 96.5909 33.5406 96.9802C33.704 97.4699 33.5154 98.0601 33.2514 98.261C33.0126 98.4368 32.7612 98.4117 32.5474 98.2861C32.3966 98.3238 32.2457 98.3238 32.1074 98.2485C31.8434 98.4117 31.4537 98.4368 31.2149 98.1606C31.0137 98.2108 30.8126 98.1982 30.6492 98.035C30.5109 98.0475 30.3852 98.0224 30.2594 97.922C30.1714 97.9722 30.096 97.9973 29.9954 98.0099C29.9954 98.0099 29.9703 98.0099 29.9577 98.0099C29.8194 98.0099 29.6937 97.9722 29.5806 97.8843C29.4549 97.9722 29.3166 97.9722 29.1909 97.9094C28.9143 98.0852 28.6 98.0978 28.3486 97.8341C28.1097 97.9345 27.8457 97.9094 27.6572 97.6708C27.3303 97.9345 26.9657 97.9094 26.664 97.6959C26.3372 97.809 25.9223 97.809 25.6709 97.4574C25.4697 97.5201 25.2812 97.4574 25.0926 97.4071C25.08 97.4071 25.0549 97.4071 25.0423 97.3946C25.0046 97.3946 24.9543 97.3946 24.9166 97.3946C24.7406 97.5076 24.5646 97.5201 24.3886 97.4699C24.112 97.7964 23.7223 97.7336 23.4583 97.4322C23.2194 97.608 22.9554 97.5955 22.7417 97.4071C22.5532 97.5327 22.352 97.495 22.176 97.3569C21.9874 97.5327 21.7612 97.5578 21.56 97.4699C21.4343 97.5704 21.3086 97.5829 21.1829 97.5704C21.1577 97.5704 21.1326 97.5578 21.1074 97.5453C20.7429 97.3946 20.6046 96.4151 21.0069 95.9379L21.0194 95.9505Z" fill="#87BABF"/>
<path d="M42.9566 48.2955C43.1829 48.2955 43.3086 48.3959 43.4091 48.534C43.5851 48.5089 43.7109 48.534 43.7737 48.6471C43.8114 48.6722 43.8366 48.7098 43.8491 48.7475C43.8994 48.8354 43.8994 48.9484 43.8869 49.074C43.9623 49.0991 44.0126 49.1494 44.0126 49.2247C44.2263 49.2624 44.3771 49.3754 44.4023 49.5637C44.5657 49.6014 44.6537 49.7019 44.6537 49.8651C44.8171 49.8902 44.9051 50.0032 44.9303 50.1414C45.0811 50.1791 45.1566 50.2921 45.144 50.4553C45.2949 50.4553 45.3954 50.5055 45.408 50.606C45.408 50.6437 45.408 50.6688 45.408 50.7065C45.7474 51.0329 46.024 51.4097 46.2503 51.8241C46.3634 51.8366 46.4011 51.9496 46.376 52.0626C46.4263 52.138 46.4766 52.2259 46.4891 52.3138C46.7406 52.3891 46.8789 52.5649 46.904 52.8161C46.9291 52.8412 46.9417 52.8663 46.9669 52.8914C47.0297 52.9291 47.0674 52.9793 47.0926 53.0547C47.1177 53.0923 47.1429 53.1175 47.1806 53.1551C47.3943 53.1803 47.5074 53.3058 47.52 53.5067C47.7086 53.5695 47.8091 53.7202 47.872 53.8835C47.872 53.896 47.872 53.9086 47.872 53.9337C48.0103 53.9337 48.0983 54.0341 48.0606 54.1848V54.2099C48.1109 54.2727 48.1737 54.3355 48.224 54.4109C48.2994 54.4611 48.3497 54.5364 48.3874 54.6118C48.576 54.8378 48.7646 55.0638 48.9531 55.3024C49.0663 55.3401 49.1417 55.4155 49.2046 55.5034C49.2171 55.5159 49.2297 55.5285 49.2423 55.5536C49.3931 55.7796 49.5566 55.9931 49.7074 56.2191C49.7703 56.307 49.7451 56.42 49.6697 56.5331C49.72 56.5582 49.7703 56.6084 49.7954 56.6461C49.8457 56.7089 49.8457 56.7842 49.808 56.8595C49.9714 56.8093 50.1097 56.7968 50.1474 56.8972C50.1977 56.9851 50.2229 57.0981 50.2103 57.2237C50.2103 57.2237 50.2229 57.2237 50.2354 57.2363C50.336 57.3116 50.424 57.4121 50.4491 57.5502C50.512 57.5502 50.5749 57.5628 50.6251 57.5879C50.8514 57.7009 50.952 58.0023 50.7509 58.3664C50.4994 58.8185 49.9337 59.0822 49.6069 59.0068C49.3177 58.9441 49.1543 58.7431 49.104 58.492C48.9783 58.4041 48.8651 58.2911 48.84 58.1404C48.5383 58.0525 48.2617 57.7762 48.2869 57.4121C48.1234 57.2991 47.9851 57.1358 47.9977 56.8972C47.8971 56.8093 47.8217 56.6837 47.8091 56.5331C47.7211 56.5079 47.6331 56.4577 47.5577 56.3949C47.5577 56.3949 47.5451 56.3824 47.5326 56.3698C47.4446 56.2694 47.3817 56.1438 47.3566 56.0056C47.2057 55.9805 47.1051 55.8675 47.0674 55.7294C46.7406 55.6415 46.5143 55.4029 46.5394 55.0513C46.3006 54.9383 46.1371 54.7248 46.1874 54.4109C45.7726 54.3481 45.5337 54.0593 45.4834 53.6825C45.1817 53.5067 44.8926 53.2054 44.968 52.7784C44.792 52.6654 44.6914 52.4896 44.6034 52.3012C44.6034 52.2887 44.5909 52.2636 44.5783 52.251C44.5531 52.2133 44.528 52.1757 44.5029 52.138C44.3017 52.0752 44.1634 51.9622 44.088 51.7864C43.6606 51.7864 43.4469 51.4599 43.472 51.0706C43.1829 51.0078 43.0069 50.8069 42.9943 50.5181C42.768 50.4679 42.6674 50.2795 42.6423 50.066C42.3783 50.0409 42.2023 49.8777 42.1394 49.6768C41.9886 49.6516 41.8754 49.5637 41.8126 49.4633C41.8 49.4382 41.7874 49.4131 41.7874 49.3879C41.6491 49.0112 42.2777 48.2452 42.9063 48.2327L42.9566 48.2955Z" fill="#87BABF"/>
<path d="M27.4811 70.0447C27.6823 69.9443 27.8331 70.0071 27.9714 70.0824C28.1097 69.9945 28.248 69.9694 28.336 70.0447C28.3863 70.0447 28.4114 70.0698 28.4366 70.1075C28.512 70.1577 28.5497 70.2708 28.5749 70.3838C28.6503 70.3838 28.7131 70.4089 28.7383 70.4717C28.9394 70.4214 29.1154 70.4717 29.2034 70.6224C29.3669 70.5847 29.48 70.6475 29.5303 70.7982C29.6811 70.7605 29.8069 70.8233 29.8697 70.9489C30.008 70.9237 30.1211 70.9991 30.1714 71.1372C30.2971 71.0744 30.4103 71.087 30.4606 71.1749C30.4731 71.2 30.4857 71.2377 30.4983 71.2628C30.9131 71.426 31.2903 71.6521 31.6297 71.9409C31.7303 71.9158 31.8057 71.9911 31.8309 72.1041C31.9063 72.1544 31.9817 72.2046 32.0194 72.2925C32.2709 72.2674 32.4594 72.3553 32.56 72.5939C32.5851 72.6064 32.6103 72.619 32.6354 72.6315C32.6983 72.6441 32.7611 72.6818 32.7989 72.7194C32.8366 72.7446 32.8743 72.7571 32.912 72.7822C33.1131 72.7194 33.264 72.7822 33.3269 72.9706C33.5154 72.958 33.6663 73.0459 33.7669 73.1841C33.7669 73.1841 33.7794 73.2092 33.792 73.2217C33.9177 73.1715 34.0309 73.2217 34.0434 73.3724V73.3975C34.1189 73.4352 34.1817 73.4729 34.2571 73.5105C34.3451 73.5357 34.4206 73.5733 34.4834 73.6361C34.7349 73.7743 34.9737 73.8998 35.2251 74.038C35.3383 74.0254 35.4389 74.0631 35.5143 74.1133C35.5269 74.1133 35.552 74.1259 35.5646 74.1384C35.7783 74.2765 35.992 74.4147 36.2057 74.5528C36.2937 74.603 36.3063 74.7161 36.2811 74.8542C36.344 74.8542 36.3943 74.8793 36.4446 74.9044C36.5074 74.9421 36.5326 75.0049 36.5326 75.0928C36.6583 74.9798 36.784 74.917 36.8594 74.9923C36.9349 75.0551 36.9977 75.143 37.0354 75.2686C37.0354 75.2686 37.048 75.2686 37.0606 75.2686C37.1737 75.2937 37.2994 75.3565 37.3623 75.4695C37.4251 75.4444 37.488 75.4318 37.5383 75.4444C37.7771 75.4695 37.9657 75.6955 37.9154 76.0974C37.8526 76.5996 37.4251 77.0643 37.1109 77.1271C36.8343 77.1898 36.6206 77.0643 36.4823 76.8634C36.344 76.8382 36.2057 76.7755 36.1177 76.6499C35.816 76.6876 35.464 76.5494 35.376 76.2104C35.1874 76.1727 35.0114 76.0722 34.936 75.8588C34.8103 75.8211 34.7097 75.7332 34.6469 75.5951C34.5463 75.5951 34.4709 75.5951 34.3829 75.5699C34.3829 75.5699 34.3577 75.5699 34.3577 75.5574C34.2446 75.5072 34.144 75.4193 34.0811 75.2937C33.9303 75.3314 33.8171 75.2686 33.7291 75.1556C33.4023 75.2058 33.1257 75.0802 33.0251 74.7537C32.7737 74.7537 32.56 74.6156 32.4846 74.3142C32.0949 74.4272 31.7806 74.2514 31.6046 73.9375C31.2777 73.8998 30.9131 73.7366 30.8377 73.3222C30.6366 73.2971 30.4983 73.1715 30.3474 73.0334C30.3474 73.0334 30.3223 73.0083 30.3097 72.9957C30.272 72.9706 30.2343 72.958 30.1966 72.9329C29.9954 72.958 29.832 72.8952 29.7063 72.7822C29.3166 72.958 29.0149 72.7446 28.9143 72.3678C28.6377 72.4306 28.4114 72.3176 28.2983 72.0539C28.0846 72.0916 27.9211 71.9786 27.8331 71.7776C27.5817 71.8655 27.3806 71.7776 27.2423 71.627C27.0914 71.6646 26.9783 71.627 26.8777 71.5642C26.8526 71.5516 26.84 71.5265 26.8274 71.5139C26.576 71.2251 26.8777 70.2833 27.4309 70.0196L27.4811 70.0447Z" fill="#87BABF"/>
<path d="M23.2069 121.58C23.2823 121.366 23.4206 121.291 23.5715 121.253C23.6092 121.09 23.6846 120.977 23.7977 120.965C23.8355 120.94 23.8732 120.927 23.9235 120.94C24.0115 120.927 24.1246 120.965 24.2252 121.027C24.2755 120.965 24.3383 120.94 24.4137 120.965C24.5143 120.776 24.6777 120.676 24.8537 120.726C24.9417 120.588 25.0675 120.55 25.2183 120.601C25.3063 120.462 25.432 120.412 25.5703 120.45C25.6583 120.324 25.784 120.299 25.9223 120.362C25.96 120.224 26.0606 120.148 26.1486 120.174C26.1737 120.174 26.2115 120.199 26.2366 120.211C26.6515 120.023 27.0915 119.897 27.544 119.847C27.5943 119.747 27.7075 119.747 27.808 119.809C27.896 119.797 27.984 119.772 28.0846 119.797C28.248 119.596 28.4492 119.521 28.688 119.596C28.7132 119.596 28.7509 119.571 28.776 119.571C28.8389 119.533 28.9017 119.508 28.9646 119.508C29.0023 119.495 29.0526 119.483 29.0903 119.47C29.1909 119.282 29.3417 119.219 29.5177 119.295C29.6435 119.144 29.8069 119.106 29.9829 119.119C29.9955 119.119 30.008 119.119 30.0332 119.131C30.0835 119.006 30.2092 118.955 30.3223 119.056C30.3223 119.056 30.3349 119.056 30.3475 119.069C30.4229 119.043 30.4983 119.018 30.5863 118.993C30.6617 118.943 30.7372 118.918 30.8252 118.918L31.6423 118.654C31.7052 118.554 31.8183 118.516 31.9063 118.503C31.9189 118.503 31.944 118.491 31.9566 118.491C32.208 118.428 32.472 118.365 32.7235 118.303C32.824 118.277 32.912 118.34 33 118.453C33.0503 118.416 33.1006 118.39 33.1509 118.378C33.2263 118.365 33.2892 118.378 33.352 118.441C33.352 118.277 33.4023 118.139 33.5029 118.139C33.6035 118.139 33.7166 118.139 33.8172 118.202C33.8172 118.202 33.8297 118.189 33.8423 118.189C33.9429 118.114 34.0686 118.076 34.2069 118.102C34.232 118.039 34.2697 117.989 34.3075 117.951C34.496 117.788 34.7977 117.8 35.0617 118.127C35.3886 118.529 35.4263 119.144 35.2503 119.42C35.0995 119.659 34.8606 119.734 34.6092 119.696C34.4835 119.784 34.3452 119.835 34.1943 119.809C34.0057 120.048 33.6663 120.211 33.3395 120.048C33.176 120.161 32.9875 120.224 32.7737 120.136C32.648 120.199 32.5223 120.224 32.3715 120.174C32.3086 120.249 32.2457 120.299 32.1703 120.349C32.1703 120.349 32.1452 120.349 32.1326 120.362C32.0069 120.412 31.8812 120.425 31.7429 120.387C31.6549 120.525 31.5417 120.563 31.4035 120.55C31.2149 120.814 30.9257 120.94 30.6115 120.789C30.4229 120.977 30.184 121.04 29.9075 120.877C29.7063 121.241 29.3543 121.354 29.0023 121.253C28.7383 121.467 28.3612 121.618 27.9966 121.392C27.8332 121.517 27.6446 121.542 27.4435 121.555C27.4309 121.555 27.4057 121.555 27.3932 121.555C27.3555 121.555 27.3052 121.58 27.2675 121.593C27.1417 121.756 26.9909 121.831 26.8149 121.844C26.6766 122.246 26.2995 122.321 25.9475 122.145C25.7966 122.384 25.5452 122.472 25.2812 122.384C25.1555 122.572 24.9543 122.61 24.7532 122.534C24.64 122.773 24.4389 122.873 24.2252 122.861C24.1497 122.999 24.0366 123.062 23.9109 123.087C23.8857 123.087 23.8606 123.087 23.8355 123.087C23.4457 123.087 22.9555 122.208 23.1692 121.63L23.2069 121.58Z" fill="#87BABF"/>
</g>
<defs>
<clipPath id="clip0_13_195">
<rect width="176" height="178" fill="white"/>
</clipPath>
</defs>
</svg>
