<svg width="230" height="260" viewBox="0 0 230 260" fill="none" xmlns="http://www.w3.org/2000/svg">
<rect width="230" height="260" rx="20" fill="#2364AD"/>
<g clip-path="url(#clip0_61_114)">
<path d="M196.432 37.8557C159.077 36.3171 150.603 82.5178 149.064 101.775L163.701 97.9252L163.264 129.606C163.207 133.528 166.456 136.691 170.371 136.533L181.773 136.09C183.09 136.039 184.185 137.084 184.2 138.401L184.278 147.16H229.943V71.3541C229.943 52.8552 214.941 37.8557 196.439 37.8557H196.432Z" fill="#E49B41"/>
<path d="M229.785 63.4321C229.485 52.5475 222.313 42.6933 214.669 37.8485C191.565 23.214 158.569 36.5676 158.569 36.5676C158.569 36.5676 167.809 48.8906 185.266 49.1483C197.083 49.32 207.096 49.2055 207.096 49.2055C207.096 49.2055 207.347 54.2793 209.401 63.0099C210.396 67.2536 212.25 71.397 214.447 75.197C216.487 70.9748 220.967 69.3861 224.36 72.0483C229.37 75.9842 225.434 83.1404 223.265 87.2624C226.65 91.0481 229.413 93.3667 229.871 93.3667C229.871 93.3667 230.215 79.1186 229.778 63.4393L229.785 63.4321Z" fill="#56291C"/>
<path d="M193.934 70.7601C193.948 71.1394 193.855 71.5473 193.74 71.9481C193.762 72.1842 193.726 72.4776 193.619 72.7639C193.59 72.8712 193.554 72.9786 193.511 73.0787C193.426 73.3149 193.304 73.5367 193.189 73.73C193.154 73.8946 193.096 74.0663 193.018 74.2166C192.946 74.6388 192.796 75.0968 192.567 75.4689C192.488 75.7981 192.338 76.1345 192.137 76.4136C192.051 76.7284 191.894 77.0576 191.686 77.3296C191.586 77.6301 191.393 77.9378 191.171 78.1812C191.121 78.3958 190.963 78.6678 190.82 78.8395C190.763 78.8968 190.713 78.9469 190.663 78.997C189.968 80.0203 189.081 80.9649 187.972 81.6233C187.793 81.7736 187.542 81.9239 187.306 81.9597C187.07 82.067 186.826 82.1743 186.597 82.2173H186.569C186.025 82.5178 185.395 82.618 184.787 82.5536H184.507C184.314 82.5751 184.135 82.5536 183.949 82.525L183.591 82.4892C183.377 82.5178 183.155 82.4892 182.933 82.4463C182.711 82.4105 182.496 82.3532 182.303 82.2459C181.852 82.1815 181.372 81.9811 180.979 81.7307L180.893 81.6591C180.764 81.6233 180.621 81.5589 180.492 81.4802C180.37 81.3872 180.256 81.287 180.17 81.1796L180.141 81.1438C179.941 81.0079 179.783 80.8361 179.605 80.6787C179.404 80.5284 179.261 80.328 179.104 80.1348C178.588 79.4979 178.202 78.768 177.93 78.0237C177.794 77.7947 177.708 77.5013 177.636 77.2437C177.622 77.1936 177.6 77.1435 177.593 77.0862C177.422 76.3778 177.328 75.6622 177.271 74.9465C177.25 74.6746 177.286 74.4671 177.357 74.3311C177.343 74.188 177.328 74.0305 177.321 73.8731C177.321 73.6799 177.35 73.5224 177.386 73.3936C177.293 73.2505 177.243 73.0287 177.257 72.7639C177.286 72.5062 177.321 72.2272 177.393 71.991V71.9266C177.393 71.6117 177.429 71.2539 177.507 70.939C177.493 70.8245 177.486 70.6957 177.493 70.5597C177.515 69.9586 177.715 69.2001 178.023 68.8351C178.409 68.3842 178.645 68.8422 178.645 69.472C178.645 70.0373 178.545 70.6742 178.416 71.2467C178.402 71.6117 178.373 71.9982 178.309 72.356C178.366 73.0072 178.388 73.959 178.295 74.6173C178.366 75.0968 178.416 75.6049 178.416 76.0486C178.488 76.3849 178.552 76.707 178.588 77.029C178.667 77.2151 178.753 77.4011 178.839 77.6087L178.867 77.6874C178.982 77.9951 179.104 78.2885 179.204 78.5819C179.39 78.8109 179.562 79.0828 179.719 79.3476C180.191 79.7842 180.721 80.2708 181.186 80.7002C181.687 80.9506 182.26 81.1438 182.725 81.4229C183.477 81.4372 184.379 81.5517 185.116 81.5875C185.867 81.4516 186.748 81.1081 187.428 80.8791C187.807 80.5928 188.201 80.3137 188.573 79.9988L188.666 79.913C188.745 79.8342 188.823 79.7627 188.902 79.684C189.138 79.3333 189.41 78.9898 189.689 78.6535C189.926 78.0309 190.448 77.2294 190.928 76.664C191.099 76.113 191.379 75.519 191.693 75.0252C191.794 74.5816 192.008 74.1021 192.23 73.6942C192.288 73.2219 192.452 72.678 192.638 72.2057C192.667 71.9123 192.746 71.5902 192.831 71.2897C192.853 71.2253 192.867 71.168 192.889 71.1179V71.0893C193.197 70.2019 193.855 69.7439 193.919 70.7601H193.934Z" fill="white"/>
<path d="M181.415 112.066C181.329 112.288 181.158 112.467 180.972 112.631C180.936 112.782 180.836 112.939 180.692 113.046C180.65 113.096 180.599 113.147 180.542 113.175C180.428 113.268 180.292 113.34 180.163 113.39C180.098 113.469 180.013 113.533 179.919 113.576C179.776 113.791 179.562 113.984 179.318 114.091C179.197 114.256 179.018 114.392 178.832 114.463C178.717 114.628 178.538 114.757 178.338 114.814C178.209 114.95 178.023 115.057 177.83 115.107C177.758 115.229 177.615 115.344 177.486 115.386L177.357 115.422C176.756 115.837 176.069 116.095 175.41 116.374C175.31 116.467 175.145 116.503 175.009 116.496C174.873 116.539 174.73 116.589 174.601 116.603H174.587C174.301 116.803 173.986 116.939 173.635 116.954L173.492 116.997H173.485C173.385 117.04 173.285 117.068 173.177 117.083L172.977 117.14C172.769 117.283 172.512 117.369 172.261 117.362C172.025 117.476 171.746 117.519 171.481 117.541H171.416C171.288 117.626 171.094 117.669 170.944 117.626H170.915C170.787 117.648 170.658 117.662 170.529 117.676C170.393 117.705 170.264 117.727 170.121 117.727C169.67 117.791 169.212 117.841 168.761 117.863C168.611 117.913 168.439 117.927 168.289 117.927C168.26 117.927 168.224 117.927 168.196 117.927C167.773 117.927 167.358 117.913 166.943 117.898C166.786 117.898 166.664 117.834 166.592 117.755C166.506 117.762 166.413 117.762 166.32 117.755C166.206 117.748 166.113 117.712 166.041 117.669C165.948 117.755 165.819 117.812 165.662 117.784C165.512 117.755 165.347 117.712 165.211 117.648H165.168C164.982 117.648 164.767 117.626 164.588 117.562C164.517 117.583 164.438 117.591 164.359 117.591C163.994 117.591 163.55 117.44 163.35 117.168C163.114 116.825 163.429 116.553 163.801 116.517C164.144 116.481 164.51 116.546 164.839 116.653C165.053 116.66 165.283 116.675 165.49 116.739C165.877 116.689 166.442 116.682 166.821 116.846C167.108 116.825 167.415 116.818 167.68 116.904C167.888 116.889 168.081 116.904 168.281 116.939C168.403 116.904 168.525 116.875 168.661 116.854H168.711C168.911 116.832 169.105 116.839 169.298 116.868C169.47 116.789 169.67 116.76 169.863 116.768C170.25 116.61 170.701 116.539 171.109 116.582C171.438 116.438 171.817 116.396 172.161 116.431C172.554 116.145 173.091 116.009 173.571 115.973C173.993 115.737 174.551 115.515 175.024 115.53C175.274 115.365 175.539 115.258 175.818 115.157L175.89 115.129L176.069 115.043C176.262 114.871 176.498 114.757 176.727 114.635C176.956 114.27 177.457 113.991 177.908 113.905C178.137 113.648 178.431 113.39 178.76 113.268C178.925 113.046 179.182 112.875 179.44 112.767C179.59 112.524 179.812 112.266 180.063 112.102C180.149 111.944 180.277 111.801 180.42 111.68C180.449 111.658 180.478 111.637 180.506 111.615H180.521C180.972 111.286 181.623 111.443 181.401 112.037L181.415 112.066Z" fill="white"/>
<path d="M57.5847 144.885C57.5847 155.111 65.873 163.398 76.1009 163.398H106.47C106.47 153.171 98.1816 144.885 87.9536 144.885H57.5847Z" fill="#E49B41"/>
<path d="M111.63 141.865H37.9518C35.0602 141.865 32.3475 140.641 30.6942 138.58L24.7034 131.13H124.886L118.895 138.58C117.235 140.641 114.529 141.865 111.638 141.865H111.63Z" fill="#E49B41"/>
<g style="mix-blend-mode:multiply">
<path d="M77.6183 131.13V141.865H115.209C118.101 141.865 120.813 140.641 122.467 138.58L128.458 131.13H77.6183Z" fill="#87BABF"/>
</g>
<path d="M93.3575 66.4449H59.4742L41.8884 80.5069V128.175H59.4742H75.7788H77.0529H93.3575H110.936V80.5069L93.3575 66.4449Z" fill="#E49B41"/>
<g style="mix-blend-mode:multiply">
<path d="M112.94 82.3032H78.0978V128.182H112.94V82.3032Z" fill="#87BABF"/>
</g>
<path d="M59.4742 66.4449L78.0979 80.5427H113.098L95.519 66.4449H59.4742Z" fill="#56291C"/>
<path d="M112.346 104.445C111.573 104.552 110.686 104.566 109.791 104.566C109.333 104.652 108.703 104.702 108.066 104.688C107.83 104.695 107.586 104.695 107.357 104.688C106.828 104.688 106.305 104.638 105.833 104.588C105.475 104.616 105.089 104.616 104.731 104.588C103.85 104.674 102.834 104.702 101.918 104.645C101.216 104.702 100.443 104.709 99.7348 104.652C99.062 104.709 98.2961 104.717 97.5875 104.674C96.929 104.724 96.1775 104.724 95.5047 104.666C95.0681 104.738 94.4311 104.759 93.9659 104.731C93.8084 104.724 93.6581 104.709 93.5149 104.695C90.9526 104.731 88.3831 104.724 85.8207 104.681C85.3555 104.724 84.79 104.709 84.3391 104.652C83.8309 104.652 83.3013 104.645 82.8432 104.616C82.8217 104.616 82.8003 104.616 82.786 104.616C81.5835 104.702 80.3882 104.709 79.1858 104.623C79.014 104.623 78.8351 104.623 78.6633 104.623C78.6561 104.623 78.6418 104.623 78.6347 104.623C78.2553 104.638 77.8903 104.638 77.5109 104.623C77.2676 104.623 77.0242 104.623 76.7737 104.623C75.922 104.709 74.9772 104.717 74.1183 104.652C73.2093 104.717 72.2144 104.709 71.284 104.674C71.2052 104.674 71.1408 104.666 71.0621 104.659C70.5539 104.724 69.8525 104.724 69.3515 104.659C69.3157 104.659 69.287 104.652 69.2584 104.645C68.7932 104.645 68.3208 104.645 67.8556 104.645C67.3617 104.659 66.8893 104.659 66.3954 104.645C64.7707 104.645 63.146 104.645 61.5212 104.652C60.9916 104.695 60.376 104.695 59.8321 104.695C59.7247 104.695 59.6102 104.695 59.5028 104.695C58.0141 104.688 56.5253 104.681 55.0438 104.666C54.4783 104.666 54.056 104.616 53.7769 104.538C53.4691 104.552 53.1542 104.559 52.8178 104.552C52.4098 104.552 52.0734 104.523 51.8086 104.48C51.508 104.573 51.0499 104.631 50.4845 104.623C49.9333 104.609 49.3536 104.588 48.8383 104.538C48.7953 104.538 48.7452 104.538 48.6951 104.538C48.0295 104.559 47.2708 104.559 46.5908 104.523C46.3475 104.552 46.0827 104.573 45.8035 104.588C44.5366 104.645 42.9048 104.588 42.0101 104.373C40.8864 104.101 41.7023 103.758 43.0837 103.636C44.3148 103.529 45.7391 103.529 47.0346 103.586C47.8291 103.557 48.7023 103.55 49.4896 103.586C50.9139 103.486 53.0468 103.45 54.5069 103.593C55.5806 103.557 56.7329 103.557 57.7206 103.643C58.4865 103.629 59.2309 103.643 59.9538 103.686C60.4047 103.657 60.8699 103.636 61.3709 103.622C61.4353 103.622 61.4998 103.622 61.5642 103.622C62.3085 103.622 63.0458 103.629 63.7543 103.672C64.4128 103.614 65.1715 103.607 65.8944 103.636C67.3903 103.521 69.1439 103.507 70.5897 103.636C71.8924 103.564 73.3382 103.572 74.5406 103.7C76.2154 103.536 78.3126 103.536 80.059 103.643C81.8269 103.564 84.1244 103.55 85.7205 103.736C86.8013 103.693 87.8964 103.715 88.9915 103.736C89.0845 103.736 89.1775 103.736 89.2778 103.743C89.5211 103.743 89.7716 103.743 90.015 103.743C90.9454 103.672 91.9332 103.657 92.9066 103.679C94.3237 103.478 96.5068 103.5 98.0957 103.657C99.3411 103.55 100.801 103.543 102.075 103.636C103.056 103.557 104.215 103.572 105.217 103.636C106.227 103.529 107.479 103.507 108.603 103.543C109.24 103.486 109.963 103.464 110.65 103.471C110.793 103.471 110.929 103.471 111.051 103.486C111.072 103.486 111.094 103.486 111.108 103.486C113.191 103.557 114.429 104.108 112.346 104.394V104.445ZM44.4865 103.872C44.4865 103.872 44.4794 103.872 44.4722 103.872C44.4364 103.865 44.4364 103.872 44.4865 103.872Z" fill="white"/>
<path d="M84.1244 70.4381L79.2144 66.359V60.3764H84.1244V70.4381Z" fill="#E49B41"/>
<path d="M88.8841 60.3764H83.9741V70.4381H88.8841V60.3764Z" fill="#56291C"/>
<path d="M53.0182 87.0907H47.4139V96.7516H53.0182V87.0907Z" fill="white"/>
<path d="M70.7185 87.0907H65.1143V96.7516H70.7185V87.0907Z" fill="white"/>
<path d="M89.2634 87.0907H83.6592V96.7516H89.2634V87.0907Z" fill="#56291C"/>
<path d="M106.119 87.0907H100.515V96.7516H106.119V87.0907Z" fill="#56291C"/>
<path d="M53.0182 111.243H47.4139V120.904H53.0182V111.243Z" fill="white"/>
<path d="M70.7185 111.243H65.1143V120.904H70.7185V111.243Z" fill="white"/>
<path d="M89.2634 111.243H83.6592V120.904H89.2634V111.243Z" fill="#56291C"/>
<path d="M106.119 111.243H100.515V120.904H106.119V111.243Z" fill="#56291C"/>
<g style="mix-blend-mode:multiply">
<path d="M77.8044 53.2703C77.697 53.0699 77.6827 52.8409 77.6827 52.6119C77.5968 52.4902 77.5467 52.3328 77.561 52.1682C77.5539 52.1038 77.5539 52.0465 77.561 51.9821C77.561 51.8462 77.6111 51.7102 77.6612 51.5885C77.6326 51.4955 77.6326 51.3953 77.6612 51.3023C77.5754 51.0733 77.5467 50.8157 77.604 50.5795C77.5467 50.4006 77.5396 50.2002 77.5968 50.0142C77.5396 49.8424 77.5324 49.642 77.5754 49.4631C77.5253 49.2914 77.5253 49.0982 77.5825 48.9264C77.5109 48.8119 77.4895 48.6473 77.5181 48.5328C77.5253 48.4899 77.5396 48.4541 77.5539 48.4183C77.5181 47.7599 77.5253 47.0944 77.5682 46.436C77.5253 46.3144 77.5396 46.1713 77.5968 46.0568C77.5968 45.9279 77.604 45.792 77.6326 45.6703C77.6326 45.6703 77.6326 45.6632 77.6326 45.656C77.5467 45.3483 77.5396 45.0406 77.6255 44.7257C77.6255 44.6828 77.6255 44.6327 77.6255 44.5897C77.6255 44.5897 77.6255 44.5897 77.6255 44.5826C77.6111 44.4824 77.6111 44.3893 77.6255 44.2963C77.6255 44.2319 77.6255 44.1675 77.6255 44.1103C77.5396 43.8884 77.5324 43.6451 77.5968 43.4304C77.5324 43.1943 77.5396 42.9438 77.5754 42.7005C77.5754 42.679 77.5825 42.6647 77.5897 42.6432C77.5253 42.5144 77.5253 42.3283 77.5897 42.1995C77.5897 42.1924 77.5968 42.1852 77.604 42.1781C77.604 42.0564 77.604 41.9348 77.604 41.8203C77.5897 41.6914 77.5897 41.5698 77.604 41.441C77.604 41.0259 77.604 40.6037 77.5968 40.1886C77.5539 40.0527 77.5539 39.8952 77.5539 39.7521C77.5539 39.7235 77.5539 39.6948 77.5539 39.6662C77.561 39.2798 77.5682 38.9005 77.5825 38.5141C77.5825 38.3709 77.6326 38.2564 77.7113 38.1849C77.697 38.1062 77.6899 38.0203 77.697 37.9344C77.697 37.8271 77.7257 37.7412 77.7686 37.6768C77.6756 37.5981 77.6183 37.4836 77.6255 37.3333C77.6398 37.1902 77.6612 37.0399 77.7113 36.9111C77.7113 36.8968 77.7113 36.8896 77.7113 36.8753C77.6899 36.7035 77.6899 36.5103 77.7257 36.3314C77.697 36.267 77.6756 36.2026 77.6612 36.131C77.604 35.8018 77.6612 35.3868 77.876 35.1506C78.148 34.8644 78.4915 35.0719 78.6132 35.4297C78.7205 35.7446 78.7205 36.1096 78.6633 36.4459C78.6919 36.6534 78.6991 36.8753 78.6633 37.0757C78.7635 37.4406 78.7993 37.9917 78.6561 38.3709C78.6919 38.65 78.6919 38.9434 78.606 39.2011C78.6203 39.3943 78.606 39.5875 78.5631 39.7736C78.5917 39.8881 78.6132 40.0097 78.6275 40.1385C78.6275 40.1528 78.6275 40.1743 78.6275 40.1886C78.6275 40.3818 78.6203 40.5679 78.5774 40.754C78.6347 40.9257 78.6418 41.1189 78.6132 41.305C78.7277 41.6914 78.742 42.1423 78.6132 42.5144C78.6848 42.8508 78.6776 43.2229 78.5488 43.5306C78.7134 43.96 78.7134 44.5038 78.606 44.9547C78.6848 45.4127 78.6991 45.9995 78.513 46.4146C78.5559 46.6937 78.5345 46.9728 78.513 47.259C78.513 47.2805 78.513 47.3091 78.513 47.3306C78.513 47.395 78.513 47.4594 78.513 47.5238C78.5846 47.7599 78.5989 48.0176 78.5774 48.268C78.7778 48.633 78.7563 49.1912 78.5989 49.6063C78.7062 49.9283 78.7134 50.3004 78.6203 50.6296C78.6991 50.8801 78.6848 51.1806 78.6203 51.4383C78.7277 51.6959 78.7492 52.0251 78.7134 52.3113C78.7706 52.4759 78.7921 52.662 78.785 52.8409C78.785 52.8767 78.785 52.9124 78.7706 52.9411C78.7706 52.9411 78.7706 52.9482 78.7706 52.9554C78.6991 53.4921 78.148 53.807 77.8617 53.2703H77.8044ZM78.377 35.7947C78.377 35.7875 78.3841 35.7875 78.377 35.7947Z" fill="#87BABF"/>
<path d="M27.2514 104.437C27.051 104.545 26.822 104.559 26.593 104.559C26.4713 104.645 26.3138 104.695 26.1492 104.681C26.0848 104.688 26.0275 104.688 25.9631 104.681C25.8271 104.681 25.6911 104.631 25.5695 104.581C25.4764 104.609 25.3762 104.609 25.2832 104.581C25.0541 104.666 24.7964 104.695 24.5603 104.638C24.3813 104.695 24.1809 104.702 23.9948 104.645C23.823 104.702 23.6226 104.709 23.4437 104.666C23.2719 104.717 23.0787 104.717 22.9069 104.659C22.7924 104.731 22.6277 104.752 22.5132 104.724C22.4703 104.717 22.4345 104.702 22.3987 104.688C21.7402 104.724 21.0746 104.717 20.4161 104.674C20.2944 104.717 20.1513 104.702 20.0368 104.645C19.9079 104.645 19.7719 104.638 19.6503 104.609C19.6503 104.609 19.6431 104.609 19.6359 104.609C19.3282 104.695 19.0204 104.702 18.7055 104.616C18.6625 104.616 18.6124 104.616 18.5695 104.616C18.5695 104.616 18.5695 104.616 18.5623 104.616C18.4621 104.631 18.3691 104.631 18.276 104.616C18.2116 104.616 18.1472 104.616 18.0899 104.616C17.8681 104.702 17.6247 104.709 17.41 104.645C17.1738 104.709 16.9233 104.702 16.6799 104.666C16.6584 104.666 16.6441 104.659 16.6227 104.652C16.4938 104.717 16.3077 104.717 16.1789 104.652C16.1717 104.652 16.1646 104.645 16.1574 104.638C16.0358 104.638 15.9141 104.638 15.7996 104.638C15.6707 104.652 15.549 104.652 15.4202 104.638C15.0051 104.638 14.5828 104.638 14.1677 104.645C14.0317 104.688 13.8742 104.688 13.7311 104.688C13.7024 104.688 13.6738 104.688 13.6452 104.688C13.2587 104.681 12.8793 104.674 12.4928 104.659C12.3497 104.659 12.2352 104.609 12.1636 104.53C12.0848 104.545 11.999 104.552 11.9131 104.545C11.8057 104.545 11.7198 104.516 11.6554 104.473C11.5767 104.566 11.4622 104.624 11.3118 104.616C11.1687 104.602 11.0184 104.581 10.8896 104.53C10.8752 104.53 10.8681 104.53 10.8538 104.53C10.682 104.552 10.4887 104.552 10.3098 104.516C10.2454 104.545 10.181 104.566 10.1094 104.581C9.78016 104.638 9.36503 104.581 9.12883 104.366C8.84253 104.094 9.0501 103.75 9.40797 103.629C9.7229 103.521 10.0879 103.521 10.4243 103.579C10.6319 103.55 10.8538 103.543 11.0542 103.579C11.4192 103.478 11.9703 103.443 12.3497 103.586C12.6288 103.55 12.9223 103.55 13.1799 103.636C13.3732 103.622 13.5664 103.636 13.7525 103.679C13.8671 103.65 13.9887 103.629 14.1176 103.614C14.1319 103.614 14.1533 103.614 14.1677 103.614C14.3609 103.614 14.547 103.622 14.7331 103.665C14.9049 103.607 15.0981 103.6 15.2842 103.629C15.6707 103.514 16.1216 103.5 16.4938 103.629C16.8302 103.557 17.2024 103.564 17.5102 103.693C17.9396 103.529 18.4836 103.529 18.9345 103.636C19.3926 103.557 19.9795 103.543 20.3946 103.729C20.6738 103.686 20.9529 103.707 21.2392 103.729C21.2607 103.729 21.2893 103.729 21.3108 103.736C21.3752 103.736 21.4396 103.736 21.504 103.736C21.7402 103.665 21.9979 103.65 22.2484 103.672C22.6134 103.471 23.1717 103.493 23.5868 103.65C23.9089 103.543 24.2811 103.536 24.6104 103.629C24.8609 103.55 25.1615 103.564 25.4191 103.629C25.6768 103.521 26.0061 103.5 26.2924 103.536C26.457 103.478 26.6431 103.457 26.822 103.464C26.8578 103.464 26.8936 103.464 26.9222 103.478C26.9222 103.478 26.9294 103.478 26.9365 103.478C27.4733 103.55 27.7883 104.101 27.2514 104.387V104.437Z" fill="#87BABF"/>
<path d="M144.555 104.437C144.383 104.545 144.182 104.559 143.982 104.559C143.882 104.645 143.739 104.695 143.595 104.681C143.545 104.688 143.488 104.688 143.438 104.681C143.316 104.681 143.202 104.631 143.094 104.581C143.016 104.609 142.93 104.609 142.851 104.581C142.651 104.666 142.429 104.695 142.221 104.638C142.064 104.695 141.892 104.702 141.735 104.645C141.584 104.702 141.412 104.709 141.255 104.666C141.105 104.717 140.94 104.717 140.79 104.659C140.69 104.731 140.546 104.752 140.446 104.724C140.41 104.717 140.375 104.702 140.346 104.688C139.773 104.724 139.201 104.717 138.628 104.674C138.528 104.717 138.399 104.702 138.299 104.645C138.184 104.645 138.07 104.638 137.963 104.609C137.963 104.609 137.955 104.609 137.948 104.609C137.676 104.695 137.411 104.702 137.139 104.616C137.104 104.616 137.061 104.616 137.025 104.616C136.939 104.631 136.86 104.631 136.774 104.616H136.61C136.417 104.702 136.209 104.709 136.016 104.645C135.815 104.709 135.593 104.702 135.379 104.666C135.364 104.666 135.343 104.659 135.329 104.652C135.214 104.717 135.057 104.717 134.949 104.652C134.942 104.652 134.935 104.645 134.928 104.638C134.82 104.638 134.72 104.638 134.613 104.638C134.506 104.652 134.398 104.652 134.284 104.638C133.919 104.638 133.554 104.638 133.196 104.645C133.074 104.688 132.938 104.688 132.816 104.688C132.795 104.688 132.766 104.688 132.745 104.688C132.416 104.681 132.079 104.674 131.75 104.659C131.621 104.659 131.528 104.609 131.464 104.53C131.392 104.545 131.32 104.552 131.249 104.545C131.156 104.545 131.084 104.516 131.027 104.473C130.963 104.566 130.855 104.624 130.734 104.616C130.612 104.602 130.483 104.581 130.369 104.53C130.361 104.53 130.347 104.53 130.34 104.53C130.19 104.552 130.025 104.552 129.868 104.516C129.81 104.545 129.753 104.566 129.689 104.581C129.402 104.638 129.037 104.581 128.837 104.366C128.586 104.094 128.765 103.75 129.08 103.629C129.352 103.521 129.674 103.521 129.961 103.579C130.14 103.55 130.333 103.543 130.512 103.579C130.834 103.478 131.306 103.443 131.635 103.586C131.879 103.55 132.136 103.55 132.351 103.636C132.523 103.622 132.688 103.636 132.852 103.679C132.952 103.65 133.06 103.629 133.167 103.614C133.181 103.614 133.196 103.614 133.21 103.614C133.375 103.614 133.539 103.622 133.697 103.665C133.847 103.607 134.012 103.6 134.176 103.629C134.513 103.514 134.899 103.5 135.228 103.629C135.522 103.557 135.844 103.564 136.109 103.693C136.481 103.529 136.953 103.529 137.34 103.636C137.734 103.557 138.249 103.543 138.607 103.729C138.85 103.686 139.093 103.707 139.337 103.729C139.358 103.729 139.38 103.729 139.401 103.736C139.458 103.736 139.509 103.736 139.566 103.736C139.773 103.665 139.995 103.65 140.21 103.672C140.525 103.471 141.012 103.493 141.37 103.65C141.649 103.543 141.978 103.536 142.257 103.629C142.479 103.55 142.737 103.564 142.958 103.629C143.188 103.521 143.467 103.5 143.717 103.536C143.86 103.478 144.018 103.457 144.175 103.464C144.204 103.464 144.24 103.464 144.268 103.478C144.268 103.478 144.275 103.478 144.283 103.478C144.748 103.55 145.027 104.101 144.562 104.387L144.555 104.437ZM129.374 103.865C129.367 103.865 129.367 103.858 129.374 103.865Z" fill="#87BABF"/>
<path d="M41.9242 68.3843C41.7094 68.3198 41.5377 68.1696 41.373 68.005C41.2299 67.9835 41.0796 67.9048 40.9722 67.776C40.9221 67.7402 40.8792 67.6972 40.8434 67.6472C40.7504 67.547 40.6859 67.4253 40.6358 67.3037C40.5499 67.2607 40.4784 67.1892 40.4354 67.1033C40.2135 67.0031 40.0131 66.8385 39.8843 66.631C39.7125 66.5451 39.5694 66.4091 39.4835 66.2374C39.3189 66.1587 39.1757 66.0227 39.0755 65.8653C38.918 65.7865 38.7821 65.6434 38.7033 65.4788C38.5745 65.4502 38.4385 65.35 38.3741 65.2427C38.3526 65.2069 38.3311 65.1711 38.3168 65.1353C37.823 64.6916 37.3577 64.2193 36.9283 63.7255C36.8138 63.6754 36.7207 63.5538 36.6778 63.4393C36.5919 63.3463 36.4988 63.2461 36.4344 63.1387C36.4344 63.1387 36.4273 63.1316 36.4201 63.1244C36.141 62.967 35.9191 62.7523 35.7616 62.4732C35.733 62.4446 35.6972 62.4088 35.6686 62.3802C35.5898 62.3229 35.5254 62.2513 35.461 62.1798C35.4181 62.1368 35.368 62.0939 35.325 62.0438C35.1103 61.9508 34.9314 61.7862 34.824 61.5787C34.6164 61.457 34.4375 61.2709 34.2943 61.0777C34.28 61.0634 34.2729 61.0419 34.2657 61.0276C34.1297 60.9775 34.0009 60.8559 33.9579 60.7128C33.9579 60.7056 33.9579 60.6984 33.9579 60.6841C33.8721 60.5982 33.7862 60.5124 33.7003 60.4337C33.6001 60.3549 33.5142 60.2691 33.4355 60.1689C33.1348 59.8755 32.8414 59.5821 32.5408 59.2887C32.4119 59.2171 32.2974 59.1097 32.2044 59.0096C32.1829 58.9881 32.1614 58.9738 32.1471 58.9452C31.8823 58.6661 31.6175 58.3941 31.3526 58.115C31.2524 58.0077 31.2095 57.9003 31.2095 57.793C31.1451 57.7429 31.0807 57.6928 31.0234 57.6284C30.9518 57.5497 30.9089 57.471 30.8874 57.3994C30.7657 57.4066 30.6441 57.3708 30.5439 57.2563C30.4508 57.1489 30.3649 57.0273 30.3077 56.8985C30.3005 56.8985 30.2862 56.8842 30.279 56.877C30.143 56.7697 29.9999 56.6337 29.9068 56.4834C29.8424 56.4619 29.778 56.4262 29.7207 56.3832C29.4488 56.19 29.1911 55.8537 29.1839 55.5388C29.1696 55.1452 29.5633 55.045 29.8997 55.2096C30.2003 55.3599 30.458 55.6175 30.6512 55.8966C30.8158 56.0183 30.9805 56.1757 31.095 56.3474C31.4242 56.5335 31.8393 56.8985 32.004 57.2706C32.2258 57.4423 32.4334 57.6499 32.5551 57.886C32.7054 58.0148 32.8342 58.158 32.9273 58.3226C33.0346 58.3798 33.1277 58.4514 33.2279 58.5372C33.2422 58.5444 33.2494 58.5587 33.2637 58.573C33.4068 58.7018 33.5285 58.8521 33.6216 59.0096C33.7862 59.0883 33.9222 59.2243 34.0367 59.3745C34.3874 59.5678 34.7238 59.8755 34.8884 60.2333C35.1747 60.4193 35.4324 60.6913 35.5612 60.999C35.9835 61.1851 36.37 61.5643 36.6062 61.9651C36.9855 62.237 37.415 62.6378 37.5725 63.06C37.8015 63.2317 37.9876 63.4393 38.1665 63.6611C38.1808 63.6826 38.1951 63.6969 38.2166 63.7184C38.2596 63.7613 38.3025 63.8114 38.3526 63.8543C38.5745 63.976 38.7606 64.1406 38.9252 64.3338C39.326 64.4555 39.7054 64.8634 39.8843 65.2641C40.1849 65.4144 40.4569 65.6792 40.6215 65.9726C40.8577 66.0942 41.0581 66.3161 41.1941 66.5451C41.4589 66.6524 41.7023 66.8671 41.8741 67.0961C42.0315 67.1677 42.1747 67.2893 42.2964 67.4182C42.325 67.4468 42.3393 67.4754 42.3608 67.4969C42.3608 67.4969 42.3608 67.504 42.3679 67.5112C42.6972 67.9406 42.5326 68.556 41.9528 68.3771L41.9242 68.3843Z" fill="#87BABF"/>
<path d="M123.469 149.787C123.333 149.801 123.254 149.737 123.19 149.665C123.089 149.686 123.011 149.665 122.975 149.608C122.953 149.593 122.932 149.579 122.925 149.55C122.889 149.508 122.882 149.436 122.882 149.364C122.839 149.357 122.81 149.321 122.796 149.279C122.667 149.264 122.574 149.207 122.545 149.092C122.452 149.078 122.388 149.021 122.381 148.928C122.288 148.914 122.223 148.863 122.202 148.778C122.116 148.763 122.059 148.699 122.052 148.606C121.966 148.62 121.901 148.584 121.887 148.527C121.887 148.506 121.887 148.491 121.88 148.47C121.665 148.291 121.479 148.083 121.322 147.847C121.257 147.847 121.229 147.783 121.229 147.711C121.193 147.668 121.157 147.625 121.143 147.568C120.992 147.532 120.899 147.439 120.871 147.289L120.828 147.246C120.792 147.225 120.763 147.196 120.742 147.16C120.72 147.139 120.706 147.124 120.685 147.103C120.556 147.096 120.484 147.024 120.47 146.91C120.355 146.881 120.284 146.795 120.241 146.702C120.241 146.695 120.241 146.681 120.241 146.674C120.155 146.674 120.105 146.624 120.119 146.538V146.523C120.083 146.488 120.048 146.452 120.012 146.416C119.962 146.387 119.926 146.352 119.904 146.302C119.783 146.173 119.661 146.051 119.532 145.922C119.461 145.908 119.418 145.865 119.375 145.815C119.368 145.808 119.36 145.801 119.353 145.786C119.246 145.665 119.146 145.536 119.038 145.414C118.995 145.364 119.003 145.3 119.038 145.228C119.01 145.214 118.981 145.192 118.952 145.164C118.924 145.128 118.917 145.085 118.931 145.035C118.845 145.071 118.766 145.078 118.731 145.028C118.695 144.978 118.673 144.913 118.673 144.842C118.673 144.842 118.666 144.842 118.659 144.842C118.595 144.806 118.537 144.749 118.509 144.663C118.466 144.663 118.43 144.663 118.401 144.641C118.265 144.577 118.187 144.412 118.28 144.19C118.394 143.918 118.709 143.747 118.895 143.768C119.067 143.79 119.174 143.904 119.224 144.047C119.303 144.09 119.375 144.155 119.403 144.248C119.582 144.291 119.768 144.441 119.768 144.648C119.876 144.713 119.962 144.799 119.976 144.935C120.04 144.985 120.09 145.049 120.105 145.142C120.162 145.157 120.212 145.178 120.255 145.214C120.255 145.214 120.269 145.221 120.269 145.228C120.327 145.285 120.37 145.35 120.391 145.436C120.484 145.45 120.541 145.507 120.577 145.586C120.77 145.629 120.914 145.75 120.921 145.958C121.071 146.015 121.171 146.13 121.164 146.316C121.407 146.337 121.565 146.502 121.615 146.717C121.801 146.802 121.987 146.974 121.973 147.225C122.08 147.282 122.152 147.382 122.216 147.489C122.216 147.497 122.223 147.511 122.231 147.518C122.252 147.54 122.266 147.561 122.288 147.575C122.409 147.604 122.495 147.668 122.545 147.761C122.796 147.74 122.939 147.926 122.946 148.162C123.118 148.191 123.233 148.298 123.254 148.463C123.383 148.484 123.462 148.584 123.483 148.713C123.641 148.713 123.748 148.806 123.798 148.921C123.891 148.928 123.955 148.978 123.998 149.035C124.006 149.05 124.013 149.064 124.02 149.078C124.127 149.293 123.812 149.765 123.447 149.794L123.469 149.787Z" fill="#87BABF"/>
<path d="M38.3598 144.319C38.3383 144.491 38.2381 144.613 38.1236 144.727C38.1236 144.849 38.0806 144.956 37.9947 145.028C37.9733 145.063 37.9375 145.092 37.9017 145.114C37.8301 145.178 37.7371 145.214 37.644 145.235C37.6154 145.3 37.5725 145.35 37.508 145.378C37.4579 145.55 37.3506 145.693 37.1931 145.772C37.1502 145.901 37.05 146.001 36.9211 146.051C36.8782 146.18 36.7851 146.28 36.6706 146.337C36.6277 146.459 36.5275 146.545 36.4058 146.588C36.4058 146.695 36.3414 146.788 36.2555 146.824C36.2269 146.838 36.2054 146.845 36.1768 146.86C35.8833 147.21 35.5541 147.525 35.1962 147.811C35.1676 147.897 35.0817 147.962 34.9886 147.976C34.9242 148.033 34.8526 148.098 34.7739 148.141C34.7739 148.141 34.7739 148.141 34.7667 148.148C34.6737 148.362 34.5305 148.513 34.323 148.606C34.3015 148.627 34.28 148.649 34.2586 148.67C34.2228 148.727 34.1727 148.77 34.1154 148.813C34.0868 148.842 34.0581 148.878 34.0224 148.906C33.9723 149.071 33.8649 149.2 33.7074 149.257C33.6359 149.414 33.507 149.536 33.3639 149.629C33.3496 149.629 33.3353 149.643 33.3281 149.643C33.3066 149.751 33.2207 149.844 33.1134 149.858C33.1062 149.858 33.0991 149.858 33.0919 149.858C33.0346 149.915 32.9774 149.98 32.9201 150.037C32.87 150.109 32.8128 150.173 32.7412 150.223C32.5408 150.431 32.3404 150.638 32.14 150.839C32.1042 150.932 32.0254 151.01 31.961 151.082C31.9467 151.096 31.9324 151.11 31.9181 151.125C31.7248 151.304 31.5316 151.483 31.3383 151.669C31.2668 151.74 31.1737 151.755 31.0878 151.74C31.0592 151.79 31.0234 151.833 30.9805 151.876C30.9304 151.926 30.8659 151.948 30.8087 151.955C30.8373 152.055 30.823 152.155 30.7443 152.22C30.6655 152.284 30.5725 152.334 30.4794 152.363C30.4794 152.37 30.4723 152.377 30.4651 152.384C30.3935 152.484 30.3005 152.578 30.1931 152.642C30.186 152.692 30.1645 152.742 30.143 152.785C30.0214 152.985 29.778 153.15 29.5132 153.107C29.1839 153.057 29.0408 152.706 29.1267 152.449C29.2054 152.22 29.3843 152.041 29.5919 151.919C29.6706 151.797 29.778 151.683 29.9068 151.611C30.0142 151.361 30.2576 151.068 30.5439 150.989C30.6584 150.831 30.7944 150.681 30.9805 150.617C31.0663 150.509 31.1665 150.423 31.2954 150.366C31.3312 150.288 31.3741 150.216 31.4314 150.144C31.4314 150.137 31.4457 150.13 31.4528 150.116C31.5387 150.016 31.6461 149.937 31.7678 149.88C31.8107 149.758 31.9038 149.658 32.0111 149.586C32.1185 149.321 32.3261 149.085 32.6052 148.999C32.7197 148.785 32.9058 148.613 33.1492 148.549C33.2422 148.219 33.507 147.955 33.8005 147.811C33.9723 147.532 34.2442 147.232 34.5735 147.167C34.6808 147.003 34.8312 146.881 34.9886 146.759C35.0029 146.752 35.0172 146.738 35.0316 146.731C35.0602 146.702 35.096 146.666 35.1246 146.638C35.189 146.473 35.3035 146.337 35.4467 146.23C35.4825 145.915 35.7759 145.65 36.0837 145.564C36.1624 145.335 36.3414 145.142 36.5704 145.049C36.6348 144.87 36.7923 144.734 36.9641 144.656C37.0142 144.448 37.1573 144.276 37.3219 144.169C37.3577 144.047 37.4365 143.947 37.5295 143.861C37.551 143.847 37.5653 143.833 37.5868 143.818C37.5868 143.818 37.5868 143.818 37.5939 143.818C37.9017 143.604 38.4528 143.84 38.3884 144.305L38.3598 144.319Z" fill="#87BABF"/>
<path d="M127.012 55.6819C126.947 55.8966 126.797 56.0683 126.632 56.2329C126.611 56.3761 126.532 56.5263 126.403 56.6337C126.368 56.6838 126.325 56.7267 126.275 56.7625C126.174 56.8555 126.053 56.9199 125.931 56.97C125.888 57.0559 125.816 57.1275 125.731 57.1704C125.63 57.3923 125.466 57.5926 125.258 57.7214C125.172 57.8932 125.036 58.0363 124.864 58.1222C124.786 58.2868 124.65 58.4299 124.492 58.5301C124.414 58.6875 124.27 58.8235 124.106 58.9022C124.077 59.031 123.977 59.167 123.87 59.2314C123.834 59.2529 123.798 59.2743 123.762 59.2887C123.318 59.7824 122.846 60.2476 122.352 60.677C122.302 60.7915 122.18 60.8845 122.066 60.9274C121.973 61.0133 121.873 61.1063 121.765 61.1708C121.765 61.1708 121.758 61.1779 121.751 61.1851C121.594 61.4642 121.379 61.686 121.1 61.8434C121.071 61.8721 121.035 61.9078 121.007 61.9365C120.949 62.0152 120.878 62.0796 120.806 62.144C120.763 62.1869 120.72 62.237 120.67 62.28C120.577 62.4947 120.413 62.6736 120.205 62.7809C120.083 62.9884 119.897 63.1673 119.704 63.3105C119.69 63.3248 119.668 63.3319 119.654 63.3391C119.604 63.4751 119.482 63.6039 119.339 63.6468C119.332 63.6468 119.325 63.6468 119.31 63.6468C119.224 63.7327 119.139 63.8186 119.06 63.9044C118.981 64.0046 118.895 64.0905 118.795 64.1692C118.502 64.4698 118.208 64.7632 117.915 65.0638C117.843 65.1926 117.736 65.3071 117.635 65.4001C117.614 65.4216 117.6 65.443 117.571 65.4573C117.292 65.7221 117.02 65.9869 116.741 66.2517C116.633 66.3519 116.526 66.3948 116.419 66.3948C116.369 66.4592 116.319 66.5236 116.254 66.5809C116.175 66.6524 116.097 66.6954 116.025 66.7168C116.032 66.8385 115.996 66.9602 115.882 67.0603C115.775 67.1534 115.653 67.2393 115.524 67.2965C115.524 67.3037 115.51 67.318 115.503 67.3251C115.395 67.4611 115.259 67.6042 115.109 67.6973C115.087 67.7617 115.052 67.8261 115.009 67.8833C114.815 68.1553 114.479 68.4129 114.164 68.42C113.77 68.4343 113.67 68.0408 113.835 67.7044C113.985 67.4038 114.243 67.1462 114.522 66.953C114.644 66.7884 114.801 66.6238 114.973 66.5093C115.159 66.1801 115.524 65.7651 115.896 65.6005C116.068 65.3786 116.276 65.1711 116.512 65.0494C116.641 64.8992 116.784 64.7703 116.948 64.6773C117.006 64.57 117.077 64.4769 117.163 64.3768C117.17 64.3624 117.185 64.3553 117.199 64.341C117.328 64.1978 117.478 64.0762 117.635 63.9832C117.714 63.8186 117.85 63.6826 118.001 63.5681C118.194 63.2174 118.502 62.8811 118.859 62.7165C119.045 62.4303 119.317 62.1726 119.625 62.0438C119.811 61.6216 120.191 61.2352 120.592 60.999C120.863 60.6197 121.264 60.1903 121.687 60.0329C121.858 59.8039 122.066 59.6178 122.288 59.4389C122.309 59.4246 122.324 59.4103 122.345 59.3888C122.388 59.3459 122.438 59.303 122.481 59.2529C122.603 59.031 122.767 58.845 122.961 58.6804C123.082 58.2796 123.49 57.9003 123.891 57.7214C124.041 57.4209 124.306 57.1489 124.6 56.9843C124.721 56.7482 124.943 56.5478 125.172 56.4118C125.28 56.1471 125.494 55.9038 125.723 55.732C125.795 55.5746 125.917 55.4314 126.045 55.3098C126.074 55.2812 126.103 55.2668 126.124 55.2454C126.124 55.2454 126.131 55.2454 126.139 55.2382C126.568 54.909 127.183 55.0736 127.005 55.6533L127.012 55.6819Z" fill="#87BABF"/>
</g>
<g style="mix-blend-mode:multiply">
<path d="M97.6806 57.3064C97.6305 57.1561 97.6663 57.0273 97.7164 56.8985C97.6663 56.7983 97.652 56.6909 97.7021 56.6122C97.7021 56.5764 97.7235 56.5407 97.745 56.512C97.7808 56.4405 97.8524 56.3832 97.9239 56.3331C97.9239 56.2759 97.9454 56.2186 97.9812 56.1757C97.9526 56.0183 97.9812 55.868 98.0957 55.7606C98.0814 55.639 98.1244 55.5316 98.2174 55.4529C98.2031 55.3384 98.2389 55.2239 98.3176 55.138C98.3033 55.0235 98.3534 54.9233 98.4464 54.8518C98.4107 54.7659 98.4178 54.6657 98.4751 54.6085C98.4965 54.587 98.5109 54.5727 98.5323 54.5584C98.6468 54.1863 98.7972 53.8213 98.9904 53.4778C98.9761 53.3991 99.0262 53.3203 99.0978 53.2774C99.1336 53.2058 99.1622 53.1343 99.2194 53.077C99.2194 53.077 99.2194 53.077 99.2194 53.0699C99.2123 52.8695 99.2767 52.6978 99.4199 52.5618L99.4485 52.4902C99.4556 52.433 99.4771 52.3829 99.5129 52.3328C99.5272 52.297 99.5415 52.2612 99.5558 52.2254C99.5272 52.0752 99.5702 51.9392 99.6847 51.839C99.6847 51.6887 99.7419 51.5456 99.8278 51.4311C99.835 51.4239 99.8421 51.4168 99.8565 51.4025C99.8278 51.3094 99.8636 51.2093 99.9567 51.1663C99.9567 51.1663 99.971 51.1663 99.9781 51.1592C100.007 51.0948 100.028 51.0232 100.057 50.9588C100.071 50.8872 100.1 50.8157 100.136 50.7513C100.229 50.5223 100.315 50.2933 100.408 50.0571C100.408 49.9641 100.429 49.8782 100.465 49.8066C100.465 49.7923 100.479 49.778 100.486 49.7637C100.579 49.5562 100.672 49.3486 100.765 49.1411C100.801 49.0624 100.873 49.0194 100.952 49.0123C100.952 48.9622 100.973 48.9193 100.987 48.8692C101.009 48.8119 101.059 48.7761 101.109 48.7547C101.045 48.6759 101.009 48.5901 101.052 48.5113C101.095 48.4398 101.152 48.3682 101.224 48.311C101.224 48.3038 101.224 48.2967 101.224 48.2895C101.245 48.1893 101.281 48.082 101.36 47.9961C101.345 47.9532 101.338 47.9031 101.345 47.8601C101.367 47.6598 101.51 47.4522 101.76 47.4093C102.075 47.352 102.347 47.6025 102.383 47.8387C102.412 48.0533 102.333 48.2537 102.197 48.4112C102.175 48.5328 102.133 48.6616 102.054 48.7547C102.068 48.9908 101.975 49.3057 101.753 49.456C101.725 49.6206 101.66 49.7852 101.524 49.8925C101.496 50.007 101.438 50.1072 101.352 50.1931C101.352 50.2718 101.352 50.3433 101.331 50.4149C101.331 50.4221 101.331 50.4364 101.324 50.4435C101.288 50.5509 101.231 50.6511 101.152 50.7298C101.166 50.8443 101.13 50.9516 101.059 51.0447C101.08 51.2951 100.994 51.5528 100.787 51.703C100.78 51.9106 100.687 52.1181 100.501 52.2326C100.558 52.5332 100.436 52.8266 100.236 53.0341C100.207 53.3132 100.085 53.6424 99.8278 53.7998C99.8064 53.9716 99.7205 54.1147 99.6346 54.2578C99.6274 54.2721 99.6203 54.2793 99.6131 54.2936L99.5702 54.3938C99.5845 54.5512 99.5415 54.6943 99.4628 54.8232C99.563 55.0951 99.4199 55.3957 99.1837 55.5603C99.2123 55.7749 99.1336 55.9825 98.9761 56.1256C98.9976 56.2973 98.9117 56.4548 98.79 56.5693C98.8329 56.7553 98.7828 56.9414 98.6826 57.0774C98.7041 57.1919 98.6755 57.2992 98.6325 57.3923C98.6254 57.4137 98.6111 57.428 98.5967 57.4423C98.5967 57.4423 98.5967 57.4423 98.5967 57.4495C98.4107 57.7143 97.8309 57.6857 97.6878 57.2778L97.6806 57.3064Z" fill="#87BABF"/>
<path d="M53.3618 161.902C53.2974 161.795 53.3188 161.723 53.3618 161.659C53.3045 161.587 53.283 161.516 53.326 161.473C53.326 161.451 53.3403 161.43 53.3546 161.423C53.3832 161.387 53.4405 161.365 53.4978 161.358C53.4906 161.322 53.4978 161.294 53.5407 161.272C53.4978 161.165 53.5121 161.079 53.6051 161.036C53.5765 160.958 53.6051 160.9 53.6839 160.872C53.6552 160.793 53.6839 160.736 53.7483 160.7C53.7268 160.628 53.7626 160.571 53.8413 160.55C53.7984 160.485 53.7984 160.428 53.8413 160.406C53.8556 160.406 53.87 160.392 53.8914 160.392C53.963 160.185 54.0704 159.999 54.2135 159.827C54.192 159.77 54.235 159.741 54.2922 159.727C54.3137 159.691 54.3423 159.655 54.3853 159.634C54.3567 159.505 54.3996 159.412 54.5213 159.362C54.5213 159.347 54.5356 159.333 54.5428 159.326C54.5428 159.29 54.5642 159.261 54.5857 159.24C54.5929 159.219 54.6072 159.204 54.6143 159.183C54.5714 159.083 54.6 159.004 54.6931 158.975C54.6716 158.882 54.7217 158.811 54.7861 158.753C54.7861 158.753 54.8004 158.753 54.8076 158.746C54.7718 158.682 54.8004 158.625 54.8791 158.625C54.8791 158.625 54.8863 158.625 54.8935 158.625C54.9078 158.589 54.9293 158.553 54.9436 158.517C54.9436 158.474 54.965 158.439 55.0008 158.41C55.0652 158.288 55.1225 158.167 55.1869 158.045C55.1726 157.988 55.1869 157.938 55.2155 157.902C55.2155 157.895 55.2227 157.887 55.2299 157.88C55.2943 157.773 55.3659 157.666 55.4303 157.558C55.4589 157.515 55.5162 157.508 55.5949 157.523C55.5949 157.494 55.602 157.465 55.6164 157.444C55.6307 157.415 55.6665 157.401 55.7166 157.401C55.6521 157.336 55.6092 157.272 55.645 157.236C55.6736 157.2 55.7237 157.172 55.7881 157.158C55.7881 157.158 55.7881 157.15 55.7881 157.143C55.7953 157.086 55.8239 157.029 55.8812 156.993C55.8669 156.964 55.8526 156.929 55.8526 156.907C55.8526 156.785 55.9671 156.692 56.1961 156.728C56.4824 156.771 56.7544 156.993 56.8045 157.158C56.8474 157.301 56.7973 157.408 56.69 157.472C56.69 157.544 56.6542 157.616 56.5898 157.651C56.6256 157.802 56.5683 157.981 56.3822 158.016C56.3679 158.109 56.3249 158.202 56.2104 158.231C56.1961 158.295 56.1532 158.345 56.0816 158.374C56.0888 158.424 56.0888 158.467 56.0816 158.51C56.0816 158.51 56.0816 158.517 56.0816 158.524C56.0601 158.582 56.0172 158.632 55.9456 158.66C55.9742 158.739 55.9456 158.796 55.8883 158.832C55.9313 158.997 55.874 159.133 55.7023 159.183C55.7094 159.312 55.6521 159.419 55.4875 159.448C55.5663 159.648 55.4875 159.805 55.3229 159.884C55.3229 160.049 55.2442 160.228 55.0151 160.263C55.0151 160.364 54.9507 160.435 54.8791 160.507L54.8648 160.521C54.8577 160.542 54.8434 160.557 54.8362 160.578C54.8648 160.678 54.8362 160.764 54.7789 160.822C54.8935 161.022 54.7933 161.172 54.5929 161.215C54.6358 161.358 54.5929 161.473 54.4497 161.523C54.4855 161.63 54.4211 161.716 54.3209 161.752C54.3781 161.881 54.3495 161.981 54.2636 162.045C54.2922 162.124 54.2779 162.181 54.2421 162.231C54.2421 162.238 54.2278 162.246 54.2135 162.253C54.0704 162.374 53.5336 162.21 53.3618 161.916V161.902Z" fill="#87BABF"/>
<path d="M31.2453 84.5359C31.0735 84.5717 30.9232 84.5144 30.7729 84.45C30.6584 84.493 30.5367 84.4858 30.4365 84.4214C30.3936 84.4143 30.3578 84.3928 30.322 84.3642C30.2361 84.3141 30.1717 84.2425 30.1144 84.1566C30.0429 84.1566 29.9784 84.1208 29.9283 84.0779C29.7494 84.0851 29.5705 84.035 29.4416 83.9133C29.2985 83.9133 29.1768 83.8561 29.0766 83.7487C28.9406 83.7487 28.8118 83.6986 28.7116 83.6056C28.5827 83.6056 28.4611 83.5412 28.3752 83.4338C28.275 83.4625 28.1605 83.4338 28.096 83.3766C28.0746 83.3551 28.0531 83.3337 28.0388 83.3122C27.6022 83.1476 27.187 82.9401 26.7862 82.7039C26.6932 82.7039 26.6073 82.6467 26.5572 82.5679C26.4785 82.525 26.3926 82.4821 26.3281 82.4177C26.3281 82.4177 26.3282 82.4177 26.321 82.4177C26.0848 82.4033 25.8915 82.3103 25.7269 82.1457C25.6983 82.1314 25.6697 82.1171 25.641 82.1028C25.5766 82.0813 25.5122 82.0527 25.4549 82.0169C25.412 81.9954 25.3762 81.9811 25.3333 81.9597C25.1543 81.9668 24.9969 81.9024 24.8895 81.7808C24.7177 81.7664 24.5531 81.6877 24.4171 81.5804C24.4028 81.5732 24.3956 81.5589 24.3885 81.5518C24.2811 81.5661 24.1594 81.516 24.1093 81.4158C24.1093 81.4158 24.1093 81.4015 24.1022 81.3943C24.0235 81.3585 23.9447 81.3227 23.8732 81.287C23.7873 81.2655 23.7085 81.2226 23.6298 81.1796C23.365 81.058 23.093 80.9363 22.8282 80.8147C22.7208 80.8147 22.6206 80.7646 22.5347 80.7216C22.5132 80.7216 22.4989 80.7073 22.4846 80.693C22.2413 80.5713 22.0051 80.4497 21.7617 80.3209C21.6687 80.2708 21.6186 80.1992 21.6042 80.1062C21.547 80.0919 21.4969 80.0776 21.4396 80.0489C21.3752 80.0132 21.3323 79.9702 21.3036 79.9058C21.2177 79.9631 21.1104 79.9845 21.0245 79.9344C20.9386 79.8843 20.8527 79.8128 20.7883 79.7269C20.7811 79.7269 20.774 79.7269 20.7597 79.7269C20.638 79.6911 20.5163 79.641 20.4161 79.5552C20.366 79.5623 20.3087 79.5623 20.2586 79.5552C20.0225 79.5122 19.7863 79.3333 19.729 79.0685C19.6574 78.7393 19.9437 78.4889 20.2229 78.4817C20.4734 78.4817 20.7024 78.5891 20.8885 78.7465C21.0317 78.7823 21.1748 78.8467 21.2893 78.9397C21.5685 78.9612 21.9335 79.0972 22.1124 79.3333C22.3057 79.3834 22.4918 79.4693 22.6206 79.6267C22.7494 79.6697 22.8711 79.7412 22.9642 79.8414C23.05 79.8414 23.1359 79.87 23.2218 79.8915C23.2361 79.8915 23.2433 79.8987 23.2576 79.9058C23.3793 79.9559 23.4938 80.0275 23.594 80.1205C23.73 80.1205 23.8517 80.1706 23.959 80.2565C24.2525 80.2708 24.5459 80.3853 24.732 80.6214C24.9754 80.6572 25.2116 80.7789 25.3547 80.9864C25.6983 80.9649 26.049 81.1295 26.2852 81.3585C26.6073 81.4301 26.9938 81.5875 27.1727 81.8809C27.366 81.931 27.5378 82.0312 27.7095 82.1386C27.7238 82.1457 27.7382 82.16 27.7525 82.1672C27.7954 82.1887 27.8312 82.203 27.8742 82.2244C28.0531 82.2316 28.2249 82.296 28.3752 82.389C28.6901 82.3175 29.0408 82.5107 29.2341 82.7755C29.4846 82.7755 29.7279 82.8828 29.8926 83.0689C30.0858 83.0689 30.2719 83.1762 30.4079 83.3122C30.6226 83.2907 30.8373 83.3694 31.002 83.4911C31.1308 83.4911 31.2596 83.5269 31.367 83.5841C31.3885 83.5984 31.4099 83.6128 31.4242 83.6271C31.4242 83.6271 31.4242 83.6271 31.4314 83.6271C31.7463 83.8489 31.7105 84.45 31.2453 84.5431V84.5359Z" fill="#87BABF"/>
<path d="M134.212 127.817C134.069 127.874 133.94 127.846 133.826 127.803C133.733 127.86 133.632 127.874 133.546 127.824C133.511 127.824 133.475 127.81 133.453 127.781C133.382 127.745 133.325 127.681 133.282 127.609C133.224 127.609 133.174 127.595 133.131 127.559C132.981 127.595 132.831 127.566 132.731 127.466C132.616 127.488 132.509 127.452 132.43 127.359C132.315 127.38 132.208 127.352 132.129 127.273C132.022 127.287 131.922 127.244 131.85 127.159C131.764 127.201 131.671 127.194 131.621 127.144C131.607 127.13 131.585 127.108 131.571 127.087C131.206 126.987 130.862 126.851 130.533 126.679C130.454 126.693 130.383 126.65 130.34 126.579C130.276 126.55 130.204 126.514 130.147 126.464C130.147 126.464 130.147 126.464 130.14 126.464C129.946 126.486 129.782 126.429 129.646 126.285C129.624 126.278 129.596 126.271 129.574 126.257C129.517 126.25 129.467 126.228 129.424 126.2C129.388 126.185 129.359 126.178 129.324 126.164C129.18 126.2 129.044 126.164 128.951 126.056C128.808 126.071 128.672 126.014 128.558 125.935C128.551 125.928 128.543 125.921 128.536 125.913C128.443 125.942 128.35 125.913 128.307 125.82C128.307 125.82 128.307 125.806 128.3 125.806C128.236 125.785 128.171 125.763 128.107 125.734C128.035 125.72 127.971 125.699 127.906 125.663C127.685 125.584 127.463 125.505 127.241 125.427C127.155 125.441 127.069 125.412 126.997 125.377C126.983 125.377 126.969 125.369 126.954 125.355C126.754 125.269 126.554 125.191 126.353 125.105C126.275 125.076 126.239 125.005 126.224 124.919C126.181 124.919 126.131 124.904 126.088 124.883C126.031 124.861 125.995 124.818 125.974 124.768C125.902 124.84 125.816 124.876 125.745 124.833C125.673 124.797 125.602 124.74 125.552 124.668C125.552 124.668 125.537 124.668 125.53 124.668C125.43 124.654 125.33 124.618 125.251 124.547C125.208 124.561 125.165 124.568 125.122 124.568C124.929 124.554 124.729 124.418 124.678 124.174C124.621 123.867 124.85 123.58 125.086 123.537C125.294 123.502 125.487 123.573 125.638 123.695C125.759 123.709 125.874 123.745 125.967 123.824C126.196 123.802 126.496 123.881 126.647 124.089C126.804 124.11 126.962 124.167 127.069 124.296C127.176 124.325 127.277 124.368 127.355 124.453C127.427 124.453 127.498 124.453 127.57 124.468C127.577 124.468 127.591 124.468 127.599 124.475C127.699 124.504 127.799 124.561 127.878 124.632C127.985 124.611 128.093 124.647 128.178 124.711C128.422 124.682 128.665 124.754 128.815 124.954C129.016 124.954 129.209 125.033 129.331 125.219C129.617 125.148 129.903 125.255 130.104 125.448C130.369 125.47 130.691 125.57 130.841 125.82C131.006 125.835 131.149 125.913 131.285 125.992C131.299 125.992 131.306 126.006 131.321 126.014C131.356 126.028 131.385 126.042 131.421 126.049C131.571 126.028 131.714 126.064 131.836 126.135C132.101 126.021 132.387 126.157 132.552 126.379C132.759 126.343 132.96 126.407 133.103 126.565C133.267 126.536 133.418 126.615 133.532 126.729C133.711 126.679 133.883 126.729 134.026 126.815C134.133 126.794 134.241 126.815 134.327 126.851C134.348 126.858 134.362 126.872 134.377 126.879C134.377 126.879 134.377 126.879 134.384 126.879C134.642 127.051 134.62 127.631 134.234 127.795L134.212 127.817Z" fill="#87BABF"/>
<path d="M58.8444 57.1919C58.7084 57.1275 58.6439 57.0201 58.601 56.9056C58.4936 56.877 58.4221 56.8126 58.4006 56.7267C58.3791 56.6981 58.3648 56.6695 58.3648 56.6337C58.3433 56.5621 58.3505 56.4763 58.372 56.3975C58.329 56.3618 58.3075 56.3117 58.3075 56.2544C58.1787 56.1685 58.1 56.0469 58.1071 55.9038C58.0141 55.8322 57.9711 55.732 57.9855 55.6175C57.8924 55.5531 57.8495 55.4529 57.8495 55.3456C57.7636 55.2812 57.7278 55.181 57.7493 55.0665C57.6634 55.0379 57.6061 54.9591 57.6061 54.8876C57.6061 54.8661 57.6061 54.8375 57.6133 54.816C57.4415 54.494 57.3127 54.1576 57.2196 53.7998C57.1552 53.7569 57.1409 53.671 57.1624 53.5923C57.1409 53.5207 57.1123 53.4563 57.1194 53.3848C57.1194 53.3848 57.1194 53.3848 57.1194 53.3776C56.9763 53.2488 56.9118 53.0985 56.919 52.9053C56.9118 52.8838 56.8975 52.8624 56.8904 52.8409C56.8617 52.7979 56.8403 52.7479 56.826 52.6906C56.8116 52.662 56.7973 52.6262 56.783 52.5976C56.6613 52.5189 56.6041 52.3972 56.6184 52.2612C56.511 52.1682 56.4681 52.0322 56.4466 51.8963C56.4466 51.8819 56.4466 51.8748 56.4466 51.8605C56.3607 51.8175 56.3249 51.7245 56.3607 51.6315C56.3607 51.6315 56.3607 51.6172 56.3679 51.6172L56.2891 51.4311C56.2462 51.3739 56.2247 51.3094 56.2104 51.2379C56.1245 51.0232 56.0315 50.8157 55.9456 50.601C55.8812 50.5437 55.8454 50.465 55.8168 50.3934C55.8096 50.3791 55.8024 50.3648 55.8024 50.3505C55.7309 50.1501 55.6593 49.9569 55.5877 49.7565C55.5591 49.6778 55.5877 49.6063 55.6378 49.5419C55.6092 49.5061 55.5877 49.4631 55.5734 49.4202C55.5519 49.3629 55.5591 49.3129 55.5806 49.2628C55.4804 49.2628 55.4016 49.2198 55.3802 49.1411C55.3587 49.0624 55.3515 48.9765 55.373 48.8906C55.373 48.8906 55.3658 48.8835 55.3587 48.8763C55.3014 48.7976 55.2585 48.6974 55.2585 48.5972C55.2155 48.5758 55.1869 48.5471 55.1583 48.5185C55.0366 48.3754 55.008 48.1392 55.1583 47.9389C55.3515 47.6884 55.7166 47.6669 55.9026 47.8029C56.0673 47.9245 56.146 48.1106 56.1532 48.3038C56.2247 48.3969 56.2748 48.5114 56.282 48.6259C56.4538 48.7761 56.5969 49.0409 56.5397 49.2842C56.6255 49.413 56.69 49.5633 56.6685 49.7208C56.7258 49.8138 56.7544 49.914 56.7472 50.0285C56.7973 50.0786 56.8403 50.1287 56.8832 50.1931C56.8832 50.2002 56.8904 50.2074 56.8975 50.2145C56.9405 50.3076 56.9691 50.4149 56.9619 50.5223C57.0478 50.5867 57.0979 50.6869 57.1051 50.787C57.2912 50.9373 57.3986 51.1663 57.3485 51.4025C57.4844 51.5456 57.556 51.7388 57.4988 51.9464C57.7421 52.1038 57.8566 52.3757 57.8423 52.6477C58.0069 52.848 58.1429 53.1486 58.057 53.4277C58.1501 53.5565 58.193 53.7068 58.2288 53.8571C58.2288 53.8714 58.2288 53.8857 58.236 53.9C58.2503 53.9358 58.2646 53.9644 58.2718 54.0002C58.3863 54.0932 58.4507 54.222 58.4793 54.358C58.737 54.4725 58.83 54.7659 58.7728 55.0307C58.9374 55.1524 59.0233 55.3456 59.0018 55.5459C59.1307 55.6461 59.1736 55.8036 59.1664 55.961C59.3239 56.054 59.4098 56.2115 59.4313 56.3689C59.5172 56.4262 59.5744 56.5192 59.603 56.6122C59.603 56.6337 59.6102 56.648 59.6102 56.6695C59.6102 56.6695 59.6102 56.6695 59.6102 56.6766C59.6603 56.9772 59.2094 57.3422 58.8372 57.1776L58.8444 57.1919Z" fill="#87BABF"/>
<path d="M31.1451 123.401C31.0664 123.545 30.9304 123.609 30.7944 123.659C30.7514 123.766 30.6727 123.845 30.5725 123.874C30.5367 123.895 30.5009 123.91 30.4651 123.91C30.3793 123.931 30.2862 123.924 30.1932 123.91C30.1502 123.953 30.0858 123.974 30.0285 123.981C29.9212 124.11 29.778 124.196 29.6134 124.196C29.5275 124.296 29.4058 124.339 29.277 124.332C29.1983 124.425 29.0766 124.475 28.9549 124.482C28.869 124.568 28.7545 124.611 28.6328 124.597C28.5899 124.69 28.504 124.747 28.4181 124.747C28.3895 124.747 28.3609 124.747 28.3394 124.747C27.9529 124.926 27.5592 125.076 27.1441 125.176C27.0868 125.241 26.9938 125.262 26.9079 125.241C26.8292 125.262 26.7433 125.291 26.6645 125.291C26.6645 125.291 26.6645 125.291 26.6574 125.291C26.4999 125.441 26.321 125.513 26.1063 125.505C26.0776 125.513 26.0562 125.527 26.0275 125.534C25.9703 125.57 25.913 125.591 25.8558 125.598C25.82 125.613 25.777 125.627 25.7412 125.641C25.641 125.77 25.4979 125.835 25.3404 125.82C25.2187 125.928 25.0684 125.985 24.911 126.006C24.8967 126.006 24.8823 126.006 24.8752 126.006C24.8179 126.092 24.7106 126.135 24.6104 126.099C24.6104 126.099 24.596 126.099 24.5889 126.092C24.5173 126.121 24.4457 126.149 24.3742 126.178C24.3026 126.221 24.231 126.25 24.1523 126.264C23.9018 126.364 23.6513 126.457 23.4008 126.557C23.3363 126.629 23.2361 126.665 23.1574 126.693C23.1431 126.701 23.1216 126.708 23.1073 126.708C22.8783 126.786 22.6421 126.865 22.413 126.944C22.3271 126.972 22.2413 126.951 22.1697 126.901C22.1267 126.93 22.0766 126.951 22.0265 126.972C21.9621 126.994 21.9049 126.987 21.8476 126.972C21.8333 127.073 21.7832 127.159 21.6901 127.18C21.6042 127.201 21.504 127.209 21.4038 127.194C21.4038 127.194 21.3895 127.201 21.3824 127.209C21.2893 127.266 21.1748 127.316 21.0531 127.316C21.0245 127.359 20.9959 127.395 20.9529 127.423C20.774 127.552 20.5092 127.588 20.2944 127.438C20.0224 127.252 20.0296 126.879 20.2014 126.686C20.3517 126.514 20.5736 126.429 20.7955 126.414C20.91 126.343 21.0388 126.285 21.1748 126.278C21.3609 126.099 21.6758 125.949 21.955 125.999C22.1124 125.906 22.2842 125.835 22.4703 125.856C22.5848 125.799 22.6993 125.763 22.8282 125.77C22.8854 125.713 22.9498 125.67 23.0214 125.627C23.0286 125.627 23.0429 125.62 23.05 125.613C23.1646 125.563 23.2791 125.534 23.4079 125.534C23.4866 125.441 23.6012 125.391 23.7228 125.377C23.9161 125.183 24.1738 125.062 24.4457 125.105C24.6247 124.962 24.8466 124.883 25.0756 124.933C25.276 124.682 25.5981 124.554 25.9059 124.561C26.1492 124.389 26.4999 124.239 26.8149 124.317C26.9652 124.217 27.1441 124.167 27.323 124.131C27.3373 124.131 27.3517 124.131 27.366 124.124C27.4018 124.11 27.4447 124.096 27.4805 124.081C27.6022 123.96 27.7453 123.888 27.9028 123.852C28.0531 123.588 28.3966 123.48 28.6973 123.53C28.8547 123.359 29.0766 123.266 29.3056 123.28C29.4273 123.144 29.6134 123.094 29.7923 123.101C29.9069 122.936 30.093 122.85 30.279 122.822C30.3578 122.729 30.4651 122.672 30.5725 122.636C30.594 122.629 30.6154 122.621 30.6369 122.621C30.6369 122.621 30.6369 122.621 30.6441 122.621C30.9876 122.564 31.3741 123.015 31.1523 123.401H31.1451Z" fill="#87BABF"/>
<path d="M135.844 81.2655C135.765 81.4086 135.636 81.4802 135.5 81.5303C135.465 81.6376 135.386 81.7235 135.286 81.745C135.25 81.7664 135.214 81.7807 135.178 81.7807C135.1 81.8094 134.999 81.8022 134.914 81.7807C134.871 81.8237 134.813 81.8523 134.749 81.8523C134.649 81.9811 134.506 82.0742 134.348 82.067C134.262 82.1672 134.148 82.2101 134.019 82.203C133.94 82.296 133.826 82.3532 133.704 82.3532C133.625 82.4391 133.511 82.4821 133.389 82.4677C133.346 82.5608 133.26 82.618 133.181 82.618C133.153 82.618 133.124 82.618 133.103 82.618C132.731 82.8041 132.337 82.9544 131.936 83.0617C131.886 83.1333 131.793 83.1476 131.7 83.1261C131.621 83.1547 131.542 83.1762 131.456 83.1834C131.456 83.1834 131.457 83.1834 131.449 83.1834C131.299 83.3337 131.12 83.4124 130.905 83.4052C130.877 83.4124 130.855 83.4267 130.827 83.4338C130.777 83.4696 130.719 83.4911 130.655 83.5054C130.619 83.5197 130.583 83.534 130.548 83.5483C130.447 83.6772 130.311 83.7416 130.154 83.7344C130.039 83.8489 129.889 83.899 129.732 83.9205C129.717 83.9205 129.703 83.9205 129.696 83.9205C129.639 84.0063 129.538 84.0493 129.438 84.0207C129.438 84.0207 129.424 84.0207 129.417 84.0135C129.345 84.0421 129.273 84.0707 129.209 84.0994C129.137 84.1423 129.066 84.1709 128.987 84.1924C128.744 84.2926 128.5 84.3928 128.257 84.493C128.193 84.5645 128.1 84.6003 128.021 84.6289C128.007 84.6361 127.985 84.6432 127.971 84.6432C127.742 84.722 127.513 84.8007 127.291 84.8866C127.205 84.9152 127.119 84.8937 127.055 84.8436C127.012 84.8722 126.969 84.9009 126.919 84.9152C126.854 84.9367 126.797 84.9367 126.74 84.9152C126.725 85.0154 126.682 85.1012 126.589 85.1299C126.504 85.1513 126.403 85.1657 126.31 85.1513C126.31 85.1513 126.296 85.1585 126.289 85.1657C126.196 85.2229 126.081 85.273 125.967 85.2802C125.938 85.3231 125.909 85.3589 125.874 85.3875C125.702 85.5163 125.437 85.5592 125.222 85.4161C124.95 85.2301 124.95 84.8579 125.115 84.6647C125.258 84.493 125.473 84.4071 125.695 84.3856C125.802 84.3141 125.931 84.2568 126.067 84.2425C126.246 84.0636 126.554 83.9062 126.826 83.9491C126.976 83.8561 127.148 83.7845 127.327 83.7988C127.434 83.7416 127.556 83.7058 127.677 83.7058C127.735 83.6485 127.799 83.6056 127.871 83.5627C127.878 83.5627 127.892 83.5555 127.899 83.5483C128.007 83.4982 128.128 83.4696 128.25 83.4696C128.329 83.3766 128.443 83.3265 128.558 83.3122C128.744 83.119 129.002 82.9973 129.266 83.0331C129.438 82.89 129.66 82.8112 129.889 82.8613C130.082 82.6037 130.397 82.4821 130.698 82.4821C130.934 82.3032 131.278 82.1529 131.585 82.2316C131.736 82.1314 131.907 82.0813 132.079 82.0384C132.094 82.0384 132.108 82.0384 132.122 82.0312L132.237 81.9883C132.351 81.8666 132.494 81.7951 132.652 81.7593C132.795 81.4945 133.131 81.38 133.425 81.4301C133.575 81.2583 133.79 81.1653 134.019 81.1725C134.133 81.0365 134.319 80.9864 134.491 80.9864C134.606 80.8218 134.785 80.7288 134.971 80.7002C135.042 80.6071 135.15 80.5499 135.257 80.5141C135.279 80.5069 135.3 80.4998 135.322 80.4998C135.322 80.4998 135.322 80.4998 135.329 80.4998C135.672 80.4425 136.059 80.8791 135.851 81.2727L135.844 81.2655Z" fill="#87BABF"/>
</g>
<g style="mix-blend-mode:multiply">
<path d="M66.9179 188.123C66.9108 188.044 66.8965 187.987 66.8822 187.951C66.8678 187.915 66.8392 187.872 66.8106 187.822C66.7819 187.772 66.739 187.736 66.6961 187.715C66.6531 187.693 66.5959 187.672 66.5243 187.657C66.4527 187.643 66.3811 187.629 66.2881 187.629V189.532C66.3597 189.532 66.4241 189.532 66.4813 189.518C66.5386 189.511 66.5887 189.497 66.6245 189.489C66.6674 189.475 66.7032 189.461 66.739 189.425C66.7676 189.396 66.7963 189.368 66.8177 189.346C66.8392 189.325 66.8535 189.289 66.875 189.239C66.8893 189.189 66.9036 189.146 66.9108 189.117C66.9179 189.089 66.9251 189.031 66.9251 188.96C66.9251 188.888 66.9251 188.831 66.9251 188.788V188.531C66.9251 188.438 66.9251 188.359 66.9251 188.309C66.9251 188.259 66.9251 188.194 66.9108 188.123H66.9179Z" fill="#E49B41"/>
</g>
<g style="mix-blend-mode:multiply">
<path d="M70.8975 188.001C70.8688 187.901 70.8187 187.815 70.7543 187.75C70.6899 187.686 70.6112 187.65 70.5181 187.65H70.0672V189.439H70.4537C70.5539 189.439 70.647 189.404 70.7185 189.339C70.7901 189.268 70.8474 189.182 70.8831 189.074C70.9189 188.967 70.9404 188.874 70.9547 188.781C70.969 188.695 70.9762 188.609 70.9762 188.531C70.9762 188.452 70.9762 188.373 70.9619 188.287C70.9476 188.201 70.9332 188.108 70.9046 188.008L70.8975 188.001Z" fill="#E49B41"/>
</g>
<g style="mix-blend-mode:multiply">
<path d="M74.741 187.572C74.6193 187.572 74.5191 187.6 74.4332 187.665C74.3473 187.722 74.2901 187.808 74.2471 187.915C74.2042 188.022 74.1827 188.123 74.1612 188.23C74.1469 188.33 74.1398 188.445 74.1398 188.566V191.45C74.1398 192.102 74.3402 192.431 74.741 192.431C75.1418 192.431 75.3422 192.102 75.3422 191.45V188.566C75.3422 187.908 75.1418 187.579 74.741 187.579V187.572Z" fill="#E49B41"/>
</g>
<g style="mix-blend-mode:multiply">
<path d="M58.3362 191.078H59.0233L58.6869 188.602L58.3362 191.078Z" fill="#E49B41"/>
</g>
<g style="mix-blend-mode:multiply">
<path d="M63.1317 188.123C63.1245 188.044 63.1102 187.987 63.0959 187.951C63.0816 187.915 63.0529 187.872 63.0243 187.822C62.9957 187.772 62.9527 187.736 62.9098 187.715C62.8668 187.693 62.8096 187.672 62.738 187.657C62.6736 187.643 62.5948 187.629 62.5018 187.629V189.532C62.5734 189.532 62.6378 189.532 62.695 189.518C62.7523 189.504 62.8024 189.497 62.8382 189.489C62.8811 189.475 62.9169 189.461 62.9527 189.425C62.9813 189.396 63.01 189.368 63.0314 189.346C63.0529 189.325 63.0672 189.289 63.0887 189.239C63.103 189.189 63.1173 189.146 63.1245 189.117C63.1317 189.089 63.1388 189.031 63.1388 188.96C63.1388 188.888 63.1388 188.831 63.1388 188.788V188.531C63.1388 188.438 63.1388 188.359 63.1388 188.309C63.1388 188.259 63.1388 188.194 63.1245 188.123H63.1317Z" fill="#E49B41"/>
</g>
<g style="mix-blend-mode:multiply">
<path d="M51.1143 180.737L42.5612 189.998L51.1143 199.258H92.0835V180.737H51.1143ZM48.7953 191.958C47.7145 191.958 46.8342 191.078 46.8342 189.998C46.8342 188.917 47.7145 188.037 48.7953 188.037C49.8761 188.037 50.7564 188.917 50.7564 189.998C50.7564 191.078 49.8761 191.958 48.7953 191.958ZM59.3812 193.332L59.1092 191.908H58.236L57.9783 193.332H56.6399L58.0785 186.663H59.2738L60.7124 193.332H59.3812ZM64.3341 189.339C64.2768 189.561 64.1981 189.747 64.0907 189.89C63.9905 190.033 63.8545 190.148 63.6899 190.241C63.5253 190.327 63.3535 190.391 63.1603 190.427C62.967 190.463 62.7523 190.484 62.5018 190.484V193.34H61.1419V186.67H62.7523C63.3321 186.67 63.7543 186.835 64.0192 187.157C64.284 187.479 64.4128 187.951 64.4128 188.559C64.4128 188.86 64.3842 189.125 64.3269 189.346L64.3341 189.339ZM68.1204 189.339C68.0631 189.561 67.9844 189.747 67.877 189.89C67.7768 190.033 67.6408 190.148 67.4762 190.241C67.3116 190.327 67.1398 190.391 66.9466 190.427C66.7533 190.463 66.5386 190.484 66.2881 190.484V193.34H64.9282V186.67H66.5386C67.1183 186.67 67.5406 186.835 67.8055 187.157C68.0703 187.479 68.1991 187.951 68.1991 188.559C68.1991 188.86 68.1705 189.125 68.1132 189.346L68.1204 189.339ZM71.0549 193.332L70.2891 190.262H70.0672V193.332H68.7216V186.663H70.1889C70.5253 186.663 70.8187 186.691 71.0692 186.756C71.3197 186.82 71.5416 186.92 71.7349 187.049C71.9281 187.185 72.0713 187.364 72.1715 187.593C72.2717 187.822 72.3218 188.094 72.3218 188.416C72.3218 188.552 72.3218 188.681 72.3075 188.788C72.3003 188.896 72.2717 189.024 72.2359 189.16C72.2001 189.296 72.15 189.425 72.0928 189.532C72.0283 189.64 71.9424 189.747 71.8279 189.847C71.7134 189.955 71.5774 190.041 71.42 190.105C71.8208 191.372 72.1715 192.452 72.4649 193.325H71.0692L71.0549 193.332ZM76.695 191.107C76.695 191.372 76.6735 191.622 76.6377 191.844C76.5948 192.073 76.5304 192.288 76.4373 192.488C76.3443 192.688 76.2226 192.86 76.0723 193.003C75.922 193.146 75.7359 193.254 75.514 193.34C75.2921 193.425 75.0345 193.461 74.741 193.461C74.4475 193.461 74.197 193.418 73.9752 193.34C73.7533 193.261 73.5672 193.153 73.4169 193.01C73.2737 192.874 73.152 192.703 73.059 192.509C72.966 192.309 72.8944 192.102 72.8586 191.873C72.8157 191.651 72.7942 191.4 72.7942 191.135V188.896C72.7942 187.321 73.4455 186.534 74.741 186.534C76.0365 186.534 76.695 187.321 76.695 188.896V191.107ZM79.4935 193.332H78.2625L77.0385 186.663H78.3197L78.9066 190.706L79.558 186.663H80.8177L79.5007 193.332H79.4935ZM84.0385 187.586H82.607V189.404H83.6234V190.355H82.607V192.409H84.0385V193.332H81.2543V186.663H84.0385V187.586ZM88.1254 191.007C88.1254 191.243 88.1182 191.45 88.1039 191.629C88.0896 191.808 88.061 191.98 88.018 192.144C87.9751 192.316 87.925 192.459 87.8534 192.574C87.7818 192.688 87.6888 192.803 87.5814 192.903C87.4741 193.003 87.3381 193.082 87.1806 193.146C87.0232 193.204 86.8371 193.254 86.6295 193.282C86.4148 193.311 86.1786 193.332 85.8994 193.332H84.5181V186.663H85.9137C86.3575 186.663 86.7225 186.706 87.016 186.784C87.3023 186.863 87.5313 186.999 87.6959 187.178C87.8606 187.364 87.9751 187.586 88.0395 187.836C88.1039 188.094 88.1326 188.423 88.1326 188.817V191.007H88.1254Z" fill="#E49B41"/>
</g>
<g style="mix-blend-mode:multiply">
<path d="M85.9209 187.615V192.388C86.0497 192.388 86.1499 192.388 86.2215 192.388C86.2931 192.388 86.3718 192.373 86.4434 192.359C86.515 192.345 86.5722 192.323 86.608 192.295C86.6438 192.266 86.6724 192.23 86.7011 192.18C86.7297 192.13 86.7512 192.073 86.7583 192.001C86.7655 191.93 86.7726 191.851 86.7726 191.751V188.158C86.7726 187.937 86.7082 187.793 86.5794 187.722C86.4505 187.65 86.2287 187.615 85.9209 187.607V187.615Z" fill="#E49B41"/>
</g>
<path d="M46.5121 190.463C45.2595 190.57 43.8066 190.584 42.3536 190.584C41.6021 190.67 40.5786 190.72 39.5407 190.706C39.1542 190.713 38.7606 190.713 38.3812 190.706C37.5224 190.692 36.6778 190.692 35.8332 190.534C35.2105 190.499 34.5592 190.284 33.9937 190.033C32.5408 189.525 31.1093 188.273 30.415 186.813C29.778 185.768 29.4559 184.351 29.5561 183.149C29.5347 182.591 29.4917 182.047 29.5347 181.381C29.5776 180.737 29.7208 180.093 29.957 179.514C30.1073 178.955 30.4007 178.397 30.7371 177.868C31.1021 177.36 31.5101 176.873 31.9825 176.515C32.4978 175.936 33.4712 175.306 34.2657 175.062C34.5234 174.969 34.7811 174.905 35.0387 174.855C35.5827 174.705 36.1553 174.64 36.7207 174.619L38.2954 174.604H39.0755C39.3117 174.576 39.5551 174.59 39.7913 174.547C40.2637 174.483 40.736 174.383 41.1726 174.204C42.9692 173.56 44.4078 172.014 44.9661 170.182C45.0019 170.01 45.0377 169.831 45.0734 169.652C45.1021 169.466 45.1307 169.28 45.1593 169.087C45.188 168.708 45.2238 168.328 45.2381 167.949C45.2452 167.52 45.2381 167.133 45.2094 166.761C45.1808 166.575 45.1593 166.382 45.1379 166.203C45.0949 166.024 45.0591 165.845 45.0233 165.673L45.0019 165.588C44.372 163.884 43.0908 162.475 41.4518 161.687C41.2013 161.609 40.9651 161.487 40.7074 161.437H40.6645C40.1133 161.272 39.5551 161.237 38.9825 161.201H37.7872C36.3915 161.287 34.8598 161.294 33.4641 161.229C32.7269 161.258 31.9467 161.272 31.1666 161.28C30.3291 161.28 29.4702 161.122 28.7044 160.829C28.5827 160.779 28.4682 160.729 28.3465 160.686C27.4805 160.421 26.4355 159.691 25.8915 158.997C25.8557 158.954 25.8271 158.911 25.7913 158.868C25.2402 158.267 24.7821 157.573 24.4529 156.821C24.1022 156.027 23.9161 155.197 23.8875 154.338C23.8517 151.64 23.8731 149.035 23.8588 146.38C23.8159 145.514 23.8159 144.512 23.8159 143.632C23.8159 143.446 23.8087 143.289 23.823 143.088C23.8517 140.448 25.4692 137.929 27.8097 136.755C28.7044 136.304 29.4559 136.183 29.9426 136.183C30.4508 136.068 31.0449 136.061 31.5674 136.061C32.233 136.061 32.777 136.09 33.2064 136.132C33.7003 136.039 34.4375 135.982 35.368 135.989C36.2626 136.004 37.2146 136.025 38.0448 136.075C38.1164 136.075 38.1952 136.075 38.2739 136.075C39.3618 136.054 40.5929 136.054 41.7023 136.09C42.096 136.061 42.5326 136.039 42.9835 136.025C45.052 135.968 47.7074 136.025 49.1675 136.24C50.9998 136.512 49.6685 136.855 47.4139 136.977C45.4098 137.084 43.0908 137.084 40.9794 137.027C39.6767 137.056 38.2667 137.063 36.9784 137.027C35.8189 137.077 34.3659 137.113 32.913 137.113C32.1972 137.12 31.4242 137.091 30.7872 137.113C30.1502 137.12 29.549 137.227 29.0193 137.385C27.4876 137.943 26.1778 139.195 25.4621 140.512C25.2044 141.035 25.047 141.586 24.9324 142.137C24.8179 142.695 24.8036 143.239 24.7821 143.84C24.8108 144.577 24.8322 145.328 24.8465 146.151C24.8465 146.259 24.8465 146.359 24.8465 146.466C24.8465 147.676 24.8394 148.878 24.7964 150.03C24.8537 151.111 24.8609 152.341 24.8322 153.515C24.8465 154.145 24.9038 154.689 25.0326 155.283C25.1758 155.862 25.3977 156.428 25.6768 156.957C25.9703 157.487 26.3353 157.966 26.7361 158.396C27.1512 158.818 27.595 159.183 28.0602 159.483C28.9406 159.941 29.9641 160.192 30.9805 160.228C32.0612 160.249 33.1492 160.271 34.1226 160.342C35.4896 160.256 37.0213 160.22 38.5745 160.213C39.3403 160.199 40.2422 160.256 41.008 160.514C41.7953 160.757 42.5111 161.136 43.1195 161.587C44.415 162.417 45.5673 163.92 45.9896 165.616C46.2186 166.446 46.2401 167.362 46.1972 168.099C46.1972 168.472 46.1542 168.879 46.1113 169.252C46.0397 169.624 45.9681 169.982 45.8464 170.304C45.417 172.121 44.1573 173.731 42.5182 174.633C42.3823 174.719 42.2319 174.783 42.0816 174.855C41.7095 175.048 41.3086 175.191 40.9007 175.306C40.5213 175.435 40.1277 175.513 39.7197 175.578C39.3117 175.614 38.8894 175.642 38.5029 175.642C37.7228 175.664 36.8853 175.628 36.1624 175.671C35.6328 175.792 35.0387 175.936 34.4518 176.207C33.8649 176.479 33.2852 176.837 32.7627 177.288C31.6962 178.175 30.9733 179.449 30.6369 180.616C30.6011 180.852 30.5868 181.095 30.5582 181.339C30.5582 181.589 30.5582 181.839 30.5582 182.09C30.5796 182.619 30.5653 183.206 30.594 183.714C30.6369 184.738 30.9089 185.747 31.367 186.606C32.1614 187.872 33.5715 189.01 35.0316 189.489C35.4109 189.568 35.8117 189.625 36.2269 189.647C36.4344 189.647 36.6491 189.647 36.8639 189.654C37.0929 189.654 37.3291 189.647 37.5653 189.64C38.5101 189.625 39.4763 189.633 40.3853 189.654C41.4232 189.597 42.597 189.575 43.7207 189.583C43.9569 189.583 44.1716 189.59 44.372 189.597H44.4722C47.872 189.668 49.8832 190.219 46.4835 190.506L46.5121 190.463ZM45.1522 136.741H45.1808C45.2452 136.755 45.2381 136.741 45.1522 136.741Z" fill="#56291C"/>
<g style="mix-blend-mode:multiply">
<path d="M156.443 144.52H150.195C132.501 144.52 118.158 158.861 118.158 176.551V227.618C118.158 229.679 116.483 231.354 114.422 231.354H110.12C108.059 231.354 106.384 229.679 106.384 227.618V161.208H78.0764V227.618C78.0764 245.308 92.4199 259.649 110.113 259.649H114.415C132.108 259.649 146.451 245.308 146.451 227.618V176.551C146.451 174.49 148.126 172.815 150.188 172.815H154.146C155.412 172.815 156.436 173.839 156.436 175.105V260H206.631C219.536 260 229.993 249.545 229.993 236.642V144.52H156.436H156.443ZM100.443 185.961C98.7828 185.961 97.4301 184.616 97.4301 182.949C97.4301 181.281 98.7757 179.936 100.443 179.936C102.111 179.936 103.457 181.281 103.457 182.949C103.457 184.616 102.111 185.961 100.443 185.961ZM100.443 176.286C98.7828 176.286 97.4301 174.941 97.4301 173.273C97.4301 171.606 98.7757 170.261 100.443 170.261C102.111 170.261 103.457 171.606 103.457 173.273C103.457 174.941 102.111 176.286 100.443 176.286Z" fill="#87BABF"/>
</g>
<path d="M195.494 225.163L188.716 230.974L181.294 225.163L184.379 144.52H192.409L195.494 225.163Z" fill="#56291C"/>
<path d="M223.48 183.049H203.152V215.595H223.48V183.049Z" fill="white"/>
<path d="M213.316 173.731C210.94 173.731 209.014 175.656 209.014 178.032V186.019H217.618V178.032C217.618 175.656 215.692 173.731 213.316 173.731ZM213.316 180.494C212.128 180.494 211.162 179.528 211.162 178.34C211.162 177.152 212.128 176.186 213.316 176.186C214.504 176.186 215.47 177.152 215.47 178.34C215.47 179.528 214.504 180.494 213.316 180.494Z" fill="#56291C"/>
<g style="mix-blend-mode:multiply">
<path d="M101.61 176.68C103.274 176.68 104.623 175.331 104.623 173.667C104.623 172.003 103.274 170.654 101.61 170.654C99.9458 170.654 98.5967 172.003 98.5967 173.667C98.5967 175.331 99.9458 176.68 101.61 176.68Z" fill="#E49B41"/>
</g>
<g style="mix-blend-mode:multiply">
<path d="M101.61 186.355C103.274 186.355 104.623 185.006 104.623 183.342C104.623 181.678 103.274 180.329 101.61 180.329C99.9458 180.329 98.5967 181.678 98.5967 183.342C98.5967 185.006 99.9458 186.355 101.61 186.355Z" fill="#E49B41"/>
</g>
</g>
<defs>
<clipPath id="clip0_61_114">
<rect width="221" height="229" fill="white" transform="translate(9 31)"/>
</clipPath>
</defs>
</svg>
