<svg width="221" height="229" viewBox="0 0 221 229" fill="none" xmlns="http://www.w3.org/2000/svg">
<g clip-path="url(#clip0_13_76)">
<path d="M187.432 6.85569C150.077 5.31709 141.603 51.5178 140.064 70.7753L154.701 66.9252L154.264 98.606C154.207 102.528 157.456 105.691 161.371 105.533L172.773 105.09C174.09 105.039 175.185 106.084 175.2 107.401L175.278 116.16H220.943V40.3541C220.943 21.8552 205.941 6.85569 187.439 6.85569H187.432Z" fill="#E49B41"/>
<path d="M220.785 32.4321C220.485 21.5475 213.313 11.6933 205.669 6.84853C182.565 -7.786 149.569 5.56756 149.569 5.56756C149.569 5.56756 158.809 17.8906 176.266 18.1483C188.083 18.32 198.096 18.2055 198.096 18.2055C198.096 18.2055 198.347 23.2793 200.401 32.0099C201.396 36.2536 203.25 40.397 205.447 44.197C207.487 39.9748 211.967 38.3861 215.36 41.0483C220.37 44.9842 216.434 52.1404 214.265 56.2624C217.65 60.0481 220.413 62.3667 220.871 62.3667C220.871 62.3667 221.215 48.1186 220.778 32.4393L220.785 32.4321Z" fill="#56291C"/>
<path d="M184.934 39.7601C184.948 40.1394 184.855 40.5473 184.74 40.9481C184.762 41.1842 184.726 41.4776 184.619 41.7639C184.59 41.8712 184.554 41.9786 184.511 42.0787C184.426 42.3149 184.304 42.5367 184.189 42.73C184.154 42.8946 184.096 43.0663 184.018 43.2166C183.946 43.6388 183.796 44.0968 183.567 44.4689C183.488 44.7981 183.338 45.1345 183.137 45.4136C183.051 45.7284 182.894 46.0576 182.686 46.3296C182.586 46.6301 182.393 46.9378 182.171 47.1812C182.121 47.3958 181.963 47.6678 181.82 47.8395C181.763 47.8968 181.713 47.9469 181.663 47.997C180.968 49.0203 180.081 49.9649 178.972 50.6233C178.793 50.7736 178.542 50.9239 178.306 50.9597C178.07 51.067 177.826 51.1743 177.597 51.2173H177.569C177.025 51.5178 176.395 51.618 175.787 51.5536H175.507C175.314 51.5751 175.135 51.5536 174.949 51.525L174.591 51.4892C174.377 51.5178 174.155 51.4892 173.933 51.4463C173.711 51.4105 173.496 51.3532 173.303 51.2459C172.852 51.1815 172.372 50.9811 171.979 50.7307L171.893 50.6591C171.764 50.6233 171.621 50.5589 171.492 50.4802C171.37 50.3872 171.256 50.287 171.17 50.1796L171.141 50.1438C170.941 50.0079 170.783 49.8361 170.605 49.6787C170.404 49.5284 170.261 49.328 170.104 49.1348C169.588 48.4979 169.202 47.768 168.93 47.0237C168.794 46.7947 168.708 46.5013 168.636 46.2437C168.622 46.1936 168.6 46.1435 168.593 46.0862C168.422 45.3778 168.328 44.6622 168.271 43.9465C168.25 43.6746 168.286 43.4671 168.357 43.3311C168.343 43.188 168.328 43.0305 168.321 42.8731C168.321 42.6799 168.35 42.5224 168.386 42.3936C168.293 42.2505 168.243 42.0287 168.257 41.7639C168.286 41.5062 168.321 41.2272 168.393 40.991V40.9266C168.393 40.6117 168.429 40.2539 168.507 39.939C168.493 39.8245 168.486 39.6957 168.493 39.5597C168.515 38.9586 168.715 38.2001 169.023 37.8351C169.409 37.3842 169.645 37.8422 169.645 38.472C169.645 39.0373 169.545 39.6742 169.416 40.2467C169.402 40.6117 169.373 40.9982 169.309 41.356C169.366 42.0072 169.388 42.959 169.295 43.6173C169.366 44.0968 169.416 44.6049 169.416 45.0486C169.488 45.3849 169.552 45.707 169.588 46.029C169.667 46.2151 169.753 46.4011 169.839 46.6087L169.867 46.6874C169.982 46.9951 170.104 47.2885 170.204 47.5819C170.39 47.8109 170.562 48.0828 170.719 48.3476C171.191 48.7842 171.721 49.2708 172.186 49.7002C172.687 49.9506 173.26 50.1438 173.725 50.4229C174.477 50.4372 175.379 50.5517 176.116 50.5875C176.867 50.4516 177.748 50.1081 178.428 49.8791C178.807 49.5928 179.201 49.3137 179.573 48.9988L179.666 48.913C179.745 48.8342 179.823 48.7627 179.902 48.684C180.138 48.3333 180.41 47.9898 180.689 47.6535C180.926 47.0309 181.448 46.2294 181.928 45.664C182.099 45.113 182.379 44.519 182.693 44.0252C182.794 43.5816 183.008 43.1021 183.23 42.6942C183.288 42.2219 183.452 41.678 183.638 41.2057C183.667 40.9123 183.746 40.5902 183.831 40.2897C183.853 40.2253 183.867 40.168 183.889 40.1179V40.0893C184.197 39.2019 184.855 38.7439 184.919 39.7601H184.934Z" fill="white"/>
<path d="M172.415 81.066C172.329 81.2878 172.158 81.4667 171.972 81.6313C171.936 81.7816 171.836 81.9391 171.692 82.0464C171.65 82.0965 171.599 82.1466 171.542 82.1752C171.428 82.2682 171.292 82.3398 171.163 82.3899C171.098 82.4686 171.013 82.533 170.919 82.576C170.776 82.7906 170.562 82.9839 170.318 83.0912C170.197 83.2558 170.018 83.3918 169.832 83.4633C169.717 83.6279 169.538 83.7567 169.338 83.814C169.209 83.95 169.023 84.0573 168.83 84.1074C168.758 84.2291 168.615 84.3436 168.486 84.3865L168.357 84.4223C167.756 84.8373 167.069 85.095 166.41 85.3741C166.31 85.4671 166.145 85.5029 166.009 85.4957C165.873 85.5386 165.73 85.5887 165.601 85.6031H165.587C165.301 85.8034 164.986 85.9394 164.635 85.9537L164.492 85.9966H164.485C164.385 86.0396 164.285 86.0682 164.177 86.0825L163.977 86.1398C163.769 86.2829 163.512 86.3688 163.261 86.3616C163.025 86.4761 162.746 86.5191 162.481 86.5405H162.416C162.288 86.6264 162.094 86.6693 161.944 86.6264H161.915C161.787 86.6479 161.658 86.6622 161.529 86.6765C161.393 86.7051 161.264 86.7266 161.121 86.7266C160.67 86.791 160.212 86.8411 159.761 86.8626C159.611 86.9126 159.439 86.927 159.289 86.927C159.26 86.927 159.224 86.927 159.196 86.927C158.773 86.927 158.358 86.9126 157.943 86.8983C157.786 86.8983 157.664 86.8339 157.592 86.7552C157.506 86.7624 157.413 86.7624 157.32 86.7552C157.206 86.7481 157.113 86.7123 157.041 86.6693C156.948 86.7552 156.819 86.8125 156.662 86.7838C156.512 86.7552 156.347 86.7123 156.211 86.6479H156.168C155.982 86.6479 155.767 86.6264 155.588 86.562C155.517 86.5835 155.438 86.5906 155.359 86.5906C154.994 86.5906 154.55 86.4403 154.35 86.1684C154.114 85.8249 154.429 85.553 154.801 85.5172C155.144 85.4814 155.51 85.5458 155.839 85.6532C156.053 85.6603 156.283 85.6746 156.49 85.739C156.877 85.6889 157.442 85.6818 157.821 85.8464C158.108 85.8249 158.415 85.8177 158.68 85.9036C158.888 85.8893 159.081 85.9036 159.281 85.9394C159.403 85.9036 159.525 85.875 159.661 85.8535H159.711C159.911 85.8321 160.105 85.8392 160.298 85.8678C160.47 85.7891 160.67 85.7605 160.863 85.7676C161.25 85.6102 161.701 85.5386 162.109 85.5816C162.438 85.4385 162.817 85.3955 163.161 85.4313C163.554 85.1451 164.091 85.0091 164.571 84.9733C164.993 84.7371 165.551 84.5153 166.024 84.5296C166.274 84.365 166.539 84.2577 166.818 84.1575L166.89 84.1289L167.069 84.043C167.262 83.8712 167.498 83.7567 167.727 83.6351C167.956 83.2701 168.457 82.991 168.908 82.9051C169.137 82.6475 169.431 82.3899 169.76 82.2682C169.925 82.0464 170.182 81.8747 170.44 81.7673C170.59 81.524 170.812 81.2664 171.063 81.1018C171.149 80.9443 171.277 80.8012 171.42 80.6796C171.449 80.6581 171.478 80.6366 171.506 80.6151H171.521C171.972 80.286 172.623 80.4434 172.401 81.0374L172.415 81.066Z" fill="white"/>
<path d="M48.5847 113.885C48.5847 124.111 56.873 132.398 67.1009 132.398H97.4699C97.4699 122.171 89.1816 113.885 78.9536 113.885H48.5847Z" fill="#E49B41"/>
<path d="M102.63 110.865H28.9518C26.0602 110.865 23.3475 109.641 21.6942 107.58L15.7034 100.13H115.886L109.895 107.58C108.235 109.641 105.529 110.865 102.638 110.865H102.63Z" fill="#E49B41"/>
<g style="mix-blend-mode:multiply">
<path d="M68.6183 100.13V110.865H106.209C109.101 110.865 111.813 109.641 113.467 107.58L119.458 100.13H68.6183Z" fill="#87BABF"/>
</g>
<path d="M84.3575 35.4449H50.4742L32.8884 49.5069V97.1747H50.4742H66.7788H68.0529H84.3575H101.936V49.5069L84.3575 35.4449Z" fill="#E49B41"/>
<g style="mix-blend-mode:multiply">
<path d="M103.94 51.3032H69.0978V97.1819H103.94V51.3032Z" fill="#87BABF"/>
</g>
<path d="M50.4742 35.4449L69.0979 49.5427H104.098L86.519 35.4449H50.4742Z" fill="#56291C"/>
<path d="M103.346 73.4446C102.573 73.5519 101.686 73.5662 100.791 73.5662C100.333 73.6521 99.703 73.7022 99.066 73.6879C98.8298 73.6951 98.5865 73.6951 98.3574 73.6879C97.8278 73.6879 97.3053 73.6378 96.8329 73.5877C96.475 73.6163 96.0885 73.6163 95.7306 73.5877C94.8503 73.6736 93.8339 73.7022 92.9178 73.645C92.2163 73.7022 91.4433 73.7094 90.7348 73.6521C90.062 73.7094 89.2961 73.7165 88.5875 73.6736C87.929 73.7237 87.1775 73.7237 86.5047 73.6664C86.0681 73.738 85.4311 73.7595 84.9659 73.7308C84.8084 73.7237 84.6581 73.7094 84.5149 73.6951C81.9526 73.7308 79.3831 73.7237 76.8207 73.6807C76.3555 73.7237 75.79 73.7094 75.3391 73.6521C74.8309 73.6521 74.3013 73.645 73.8432 73.6163C73.8217 73.6163 73.8003 73.6163 73.786 73.6163C72.5835 73.7022 71.3882 73.7094 70.1858 73.6235C70.014 73.6235 69.8351 73.6235 69.6633 73.6235C69.6561 73.6235 69.6418 73.6235 69.6347 73.6235C69.2553 73.6378 68.8903 73.6378 68.5109 73.6235C68.2676 73.6235 68.0242 73.6235 67.7737 73.6235C66.922 73.7094 65.9772 73.7165 65.1183 73.6521C64.2093 73.7165 63.2144 73.7094 62.284 73.6736C62.2052 73.6736 62.1408 73.6664 62.0621 73.6593C61.5539 73.7237 60.8525 73.7237 60.3515 73.6593C60.3157 73.6593 60.287 73.6521 60.2584 73.645C59.7932 73.645 59.3208 73.645 58.8556 73.645C58.3617 73.6593 57.8893 73.6593 57.3954 73.645C55.7707 73.645 54.146 73.645 52.5212 73.6521C51.9916 73.695 51.376 73.6951 50.8321 73.6951C50.7247 73.6951 50.6102 73.6951 50.5028 73.6951C49.0141 73.6879 47.5253 73.6807 46.0438 73.6664C45.4783 73.6664 45.056 73.6163 44.7769 73.5376C44.4691 73.5519 44.1542 73.5591 43.8178 73.5519C43.4098 73.5519 43.0734 73.5233 42.8086 73.4804C42.508 73.5734 42.0499 73.6306 41.4845 73.6235C40.9333 73.6092 40.3536 73.5877 39.8383 73.5376C39.7953 73.5376 39.7452 73.5376 39.6951 73.5376C39.0295 73.5591 38.2708 73.5591 37.5908 73.5233C37.3475 73.5519 37.0827 73.5734 36.8035 73.5877C35.5366 73.645 33.9048 73.5877 33.0101 73.373C31.8864 73.1011 32.7023 72.7576 34.0837 72.6359C35.3148 72.5286 36.7391 72.5286 38.0346 72.5858C38.8291 72.5572 39.7023 72.5501 40.4896 72.5858C41.9139 72.4856 44.0468 72.4499 45.5069 72.593C46.5806 72.5572 47.7329 72.5572 48.7206 72.6431C49.4865 72.6288 50.2309 72.6431 50.9538 72.686C51.4047 72.6574 51.8699 72.6359 52.3709 72.6216C52.4353 72.6216 52.4998 72.6216 52.5642 72.6216C53.3085 72.6216 54.0458 72.6288 54.7543 72.6717C55.4128 72.6145 56.1715 72.6073 56.8944 72.6359C58.3903 72.5214 60.1439 72.5071 61.5897 72.6359C62.8924 72.5644 64.3382 72.5715 65.5406 72.7003C67.2154 72.5357 69.3126 72.5357 71.059 72.6431C72.8269 72.5644 75.1244 72.55 76.7205 72.7361C77.8013 72.6932 78.8964 72.7146 79.9915 72.7361C80.0845 72.7361 80.1775 72.7361 80.2778 72.7433C80.5211 72.7433 80.7716 72.7433 81.015 72.7433C81.9454 72.6717 82.9332 72.6574 83.9066 72.6789C85.3237 72.4785 87.5068 72.5 89.0957 72.6574C90.3411 72.55 91.8012 72.5429 93.0752 72.6359C94.0558 72.5572 95.2153 72.5715 96.2173 72.6359C97.2265 72.5286 98.4791 72.5071 99.6028 72.5429C100.24 72.4856 100.963 72.4642 101.65 72.4713C101.793 72.4713 101.929 72.4713 102.051 72.4856C102.072 72.4856 102.094 72.4856 102.108 72.4856C104.191 72.5572 105.429 73.1082 103.346 73.3945V73.4446ZM35.4865 72.8721C35.4865 72.8721 35.4794 72.8721 35.4722 72.8721C35.4364 72.8649 35.4364 72.8721 35.4865 72.8721Z" fill="white"/>
<path d="M75.1244 39.4381L70.2144 35.359V29.3764H75.1244V39.4381Z" fill="#E49B41"/>
<path d="M79.8841 29.3764H74.9741V39.4381H79.8841V29.3764Z" fill="#56291C"/>
<path d="M44.0182 56.0907H38.4139V65.7516H44.0182V56.0907Z" fill="white"/>
<path d="M61.7185 56.0907H56.1143V65.7516H61.7185V56.0907Z" fill="white"/>
<path d="M80.2634 56.0907H74.6592V65.7516H80.2634V56.0907Z" fill="#56291C"/>
<path d="M97.1192 56.0907H91.5149V65.7516H97.1192V56.0907Z" fill="#56291C"/>
<path d="M44.0182 80.243H38.4139V89.904H44.0182V80.243Z" fill="white"/>
<path d="M61.7185 80.243H56.1143V89.904H61.7185V80.243Z" fill="white"/>
<path d="M80.2634 80.243H74.6592V89.904H80.2634V80.243Z" fill="#56291C"/>
<path d="M97.1192 80.243H91.5149V89.904H97.1192V80.243Z" fill="#56291C"/>
<g style="mix-blend-mode:multiply">
<path d="M68.8044 22.2703C68.697 22.0699 68.6827 21.8409 68.6827 21.6119C68.5968 21.4902 68.5467 21.3328 68.561 21.1682C68.5539 21.1038 68.5539 21.0465 68.561 20.9821C68.561 20.8462 68.6111 20.7102 68.6612 20.5885C68.6326 20.4955 68.6326 20.3953 68.6612 20.3023C68.5754 20.0733 68.5467 19.8157 68.604 19.5795C68.5467 19.4006 68.5396 19.2002 68.5968 19.0142C68.5396 18.8424 68.5324 18.642 68.5754 18.4631C68.5253 18.2914 68.5253 18.0982 68.5825 17.9264C68.5109 17.8119 68.4895 17.6473 68.5181 17.5328C68.5253 17.4899 68.5396 17.4541 68.5539 17.4183C68.5181 16.7599 68.5253 16.0944 68.5682 15.436C68.5253 15.3144 68.5396 15.1713 68.5968 15.0568C68.5968 14.9279 68.604 14.792 68.6326 14.6703C68.6326 14.6703 68.6326 14.6632 68.6326 14.656C68.5467 14.3483 68.5396 14.0406 68.6255 13.7257C68.6255 13.6828 68.6255 13.6327 68.6255 13.5897C68.6255 13.5897 68.6255 13.5897 68.6255 13.5826C68.6111 13.4824 68.6111 13.3893 68.6255 13.2963C68.6255 13.2319 68.6255 13.1675 68.6255 13.1103C68.5396 12.8884 68.5324 12.6451 68.5968 12.4304C68.5324 12.1943 68.5396 11.9438 68.5754 11.7005C68.5754 11.679 68.5825 11.6647 68.5897 11.6432C68.5253 11.5144 68.5253 11.3283 68.5897 11.1995C68.5897 11.1924 68.5968 11.1852 68.604 11.1781C68.604 11.0564 68.604 10.9348 68.604 10.8203C68.5897 10.6914 68.5897 10.5698 68.604 10.441C68.604 10.0259 68.604 9.60369 68.5968 9.18863C68.5539 9.05266 68.5539 8.89522 68.5539 8.7521C68.5539 8.72347 68.5539 8.69485 68.5539 8.66622C68.561 8.27978 68.5682 7.9005 68.5825 7.51407C68.5825 7.37094 68.6326 7.25644 68.7113 7.18488C68.697 7.10616 68.6899 7.02028 68.697 6.93441C68.697 6.82707 68.7257 6.74119 68.7686 6.67678C68.6756 6.59807 68.6183 6.48357 68.6255 6.33328C68.6398 6.19016 68.6612 6.03988 68.7113 5.91107C68.7113 5.89675 68.7113 5.8896 68.7113 5.87528C68.6899 5.70353 68.6899 5.51032 68.7257 5.33141C68.697 5.267 68.6756 5.2026 68.6612 5.13103C68.604 4.80185 68.6612 4.38678 68.876 4.15063C69.148 3.86438 69.4915 4.07191 69.6132 4.42972C69.7205 4.7446 69.7205 5.10957 69.6633 5.44591C69.6919 5.65344 69.6991 5.87528 69.6633 6.07566C69.7635 6.44063 69.7993 6.99166 69.6561 7.37094C69.6919 7.65003 69.6919 7.94344 69.606 8.20107C69.6203 8.39428 69.606 8.5875 69.5631 8.77357C69.5917 8.88807 69.6132 9.00972 69.6275 9.13853C69.6275 9.15285 69.6275 9.17432 69.6275 9.18863C69.6275 9.38185 69.6203 9.56791 69.5774 9.75397C69.6347 9.92572 69.6418 10.1189 69.6132 10.305C69.7277 10.6914 69.742 11.1423 69.6132 11.5144C69.6848 11.8508 69.6776 12.2229 69.5488 12.5306C69.7134 12.96 69.7134 13.5038 69.606 13.9547C69.6848 14.4127 69.6991 14.9995 69.513 15.4146C69.5559 15.6937 69.5345 15.9728 69.513 16.259C69.513 16.2805 69.513 16.3091 69.513 16.3306C69.513 16.395 69.513 16.4594 69.513 16.5238C69.5846 16.7599 69.5989 17.0176 69.5774 17.268C69.7778 17.633 69.7563 18.1912 69.5989 18.6063C69.7062 18.9283 69.7134 19.3004 69.6203 19.6296C69.6991 19.8801 69.6848 20.1806 69.6203 20.4383C69.7277 20.6959 69.7492 21.0251 69.7134 21.3113C69.7706 21.4759 69.7921 21.662 69.785 21.8409C69.785 21.8767 69.785 21.9124 69.7706 21.9411C69.7706 21.9411 69.7706 21.9482 69.7706 21.9554C69.6991 22.4921 69.148 22.807 68.8617 22.2703H68.8044ZM69.377 4.79469C69.377 4.78753 69.3841 4.78753 69.377 4.79469V4.79469Z" fill="#87BABF"/>
<path d="M18.2514 73.4374C18.051 73.5448 17.822 73.5591 17.593 73.5591C17.4713 73.645 17.3138 73.6951 17.1492 73.6807C17.0848 73.6879 17.0275 73.6879 16.9631 73.6807C16.8271 73.6807 16.6911 73.6307 16.5695 73.5806C16.4764 73.6092 16.3762 73.6092 16.2832 73.5806C16.0541 73.6664 15.7964 73.6951 15.5603 73.6378C15.3813 73.6951 15.1809 73.7022 14.9948 73.645C14.823 73.7022 14.6226 73.7094 14.4437 73.6664C14.2719 73.7165 14.0787 73.7165 13.9069 73.6593C13.7924 73.7308 13.6277 73.7523 13.5132 73.7237C13.4703 73.7165 13.4345 73.7022 13.3987 73.6879C12.7402 73.7237 12.0746 73.7165 11.4161 73.6736C11.2944 73.7165 11.1513 73.7022 11.0368 73.645C10.9079 73.645 10.7719 73.6378 10.6503 73.6092C10.6503 73.6092 10.6431 73.6092 10.6359 73.6092C10.3282 73.6951 10.0204 73.7022 9.70547 73.6163C9.66253 73.6163 9.61243 73.6163 9.56948 73.6163C9.56948 73.6163 9.56948 73.6163 9.56232 73.6163C9.46212 73.6307 9.36907 73.6307 9.27603 73.6163C9.21161 73.6163 9.14719 73.6163 9.08993 73.6163C8.86805 73.7022 8.6247 73.7094 8.40998 73.645C8.17378 73.7094 7.92327 73.7022 7.67992 73.6664C7.65845 73.6664 7.64413 73.6593 7.62266 73.6521C7.49383 73.7165 7.30773 73.7165 7.1789 73.6521C7.17174 73.6521 7.16459 73.645 7.15743 73.6378C7.03575 73.6378 6.91408 73.6378 6.79956 73.6378C6.67072 73.6521 6.54905 73.6521 6.42021 73.6378C6.00508 73.6378 5.58279 73.6378 5.16766 73.645C5.03167 73.6879 4.87421 73.6879 4.73106 73.6879C4.70243 73.6879 4.6738 73.6879 4.64517 73.6879C4.25867 73.6808 3.87932 73.6736 3.49282 73.6593C3.34967 73.6593 3.23516 73.6092 3.16358 73.5305C3.08485 73.5448 2.99896 73.5519 2.91307 73.5448C2.80571 73.5448 2.71982 73.5162 2.6554 73.4732C2.57667 73.5662 2.46215 73.6235 2.31185 73.6163C2.1687 73.602 2.01839 73.5806 1.88956 73.5305C1.87524 73.5305 1.86809 73.5305 1.85377 73.5305C1.68199 73.5519 1.48874 73.5519 1.30981 73.5162C1.24539 73.5448 1.18097 73.5662 1.1094 73.5806C0.780157 73.6378 0.365026 73.5806 0.12883 73.3659C-0.157467 73.0939 0.0500986 72.7504 0.40797 72.6288C0.722897 72.5214 1.08793 72.5214 1.42433 72.5787C1.63189 72.5501 1.85377 72.5429 2.05418 72.5787C2.41921 72.4785 2.97033 72.4427 3.34967 72.5858C3.62881 72.5501 3.92227 72.5501 4.17994 72.6359C4.37319 72.6216 4.56644 72.6359 4.75253 72.6789C4.86705 72.6502 4.98873 72.6288 5.11756 72.6145C5.13188 72.6145 5.15335 72.6145 5.16766 72.6145C5.36091 72.6145 5.54701 72.6216 5.7331 72.6646C5.90488 72.6073 6.09813 72.6002 6.28422 72.6288C6.67072 72.5143 7.12164 72.5 7.49383 72.6288C7.83023 72.5572 8.20241 72.5644 8.51018 72.6932C8.93963 72.5286 9.48359 72.5286 9.93451 72.6359C10.3926 72.5572 10.9795 72.5429 11.3946 72.729C11.6738 72.686 11.9529 72.7075 12.2392 72.729C12.2607 72.729 12.2893 72.729 12.3108 72.7361C12.3752 72.7361 12.4396 72.7361 12.504 72.7361C12.7402 72.6646 12.9979 72.6503 13.2484 72.6717C13.6134 72.4713 14.1717 72.4928 14.5868 72.6502C14.9089 72.5429 15.2811 72.5357 15.6104 72.6288C15.8609 72.5501 16.1615 72.5644 16.4191 72.6288C16.6768 72.5214 17.0061 72.5 17.2924 72.5357C17.457 72.4785 17.6431 72.457 17.822 72.4642C17.8578 72.4642 17.8936 72.4642 17.9222 72.4785C17.9222 72.4785 17.9294 72.4785 17.9365 72.4785C18.4733 72.5501 18.7883 73.1011 18.2514 73.3873V73.4374Z" fill="#87BABF"/>
<path d="M135.555 73.4374C135.383 73.5448 135.182 73.5591 134.982 73.5591C134.882 73.645 134.739 73.6951 134.595 73.6807C134.545 73.6879 134.488 73.6879 134.438 73.6807C134.316 73.6807 134.202 73.6307 134.094 73.5806C134.016 73.6092 133.93 73.6092 133.851 73.5806C133.651 73.6664 133.429 73.6951 133.221 73.6378C133.064 73.6951 132.892 73.7022 132.735 73.645C132.584 73.7022 132.412 73.7094 132.255 73.6664C132.105 73.7165 131.94 73.7165 131.79 73.6593C131.69 73.7308 131.546 73.7523 131.446 73.7237C131.41 73.7165 131.375 73.7022 131.346 73.6879C130.773 73.7237 130.201 73.7165 129.628 73.6736C129.528 73.7165 129.399 73.7022 129.299 73.645C129.184 73.645 129.07 73.6378 128.963 73.6092C128.963 73.6092 128.955 73.6092 128.948 73.6092C128.676 73.6951 128.411 73.7022 128.139 73.6163C128.104 73.6163 128.061 73.6163 128.025 73.6163C127.939 73.6307 127.86 73.6307 127.774 73.6163H127.61C127.417 73.7022 127.209 73.7094 127.016 73.645C126.815 73.7094 126.593 73.7022 126.379 73.6664C126.364 73.6664 126.343 73.6593 126.329 73.6521C126.214 73.7165 126.057 73.7165 125.949 73.6521C125.942 73.6521 125.935 73.645 125.928 73.6378C125.82 73.6378 125.72 73.6378 125.613 73.6378C125.506 73.6521 125.398 73.6521 125.284 73.6378C124.919 73.6378 124.554 73.6378 124.196 73.645C124.074 73.6879 123.938 73.6879 123.816 73.6879C123.795 73.6879 123.766 73.6879 123.745 73.6879C123.416 73.6808 123.079 73.6736 122.75 73.6593C122.621 73.6593 122.528 73.6092 122.464 73.5305C122.392 73.5448 122.32 73.5519 122.249 73.5448C122.156 73.5448 122.084 73.5162 122.027 73.4732C121.963 73.5662 121.855 73.6235 121.734 73.6163C121.612 73.602 121.483 73.5806 121.369 73.5305C121.361 73.5305 121.347 73.5305 121.34 73.5305C121.19 73.5519 121.025 73.5519 120.868 73.5162C120.81 73.5448 120.753 73.5662 120.689 73.5806C120.402 73.6378 120.037 73.5806 119.837 73.3659C119.586 73.0939 119.765 72.7504 120.08 72.6288C120.352 72.5214 120.674 72.5214 120.961 72.5787C121.14 72.5501 121.333 72.5429 121.512 72.5787C121.834 72.4785 122.306 72.4427 122.635 72.5858C122.879 72.5501 123.136 72.5501 123.351 72.6359C123.523 72.6216 123.688 72.6359 123.852 72.6789C123.952 72.6502 124.06 72.6288 124.167 72.6145C124.181 72.6145 124.196 72.6145 124.21 72.6145C124.375 72.6145 124.539 72.6216 124.697 72.6646C124.847 72.6073 125.012 72.6002 125.176 72.6288C125.513 72.5143 125.899 72.5 126.228 72.6288C126.522 72.5572 126.844 72.5644 127.109 72.6932C127.481 72.5286 127.953 72.5286 128.34 72.6359C128.734 72.5572 129.249 72.5429 129.607 72.729C129.85 72.686 130.093 72.7075 130.337 72.729C130.358 72.729 130.38 72.729 130.401 72.7361C130.458 72.7361 130.509 72.7361 130.566 72.7361C130.773 72.6646 130.995 72.6503 131.21 72.6717C131.525 72.4713 132.012 72.4928 132.37 72.6502C132.649 72.5429 132.978 72.5357 133.257 72.6288C133.479 72.5501 133.737 72.5644 133.958 72.6288C134.188 72.5214 134.467 72.5 134.717 72.5357C134.86 72.4785 135.018 72.457 135.175 72.4642C135.204 72.4642 135.24 72.4642 135.268 72.4785C135.268 72.4785 135.275 72.4785 135.283 72.4785C135.748 72.5501 136.027 73.1011 135.562 73.3873L135.555 73.4374ZM120.374 72.8649C120.367 72.8649 120.367 72.8578 120.374 72.8649V72.8649Z" fill="#87BABF"/>
<path d="M32.9242 37.3843C32.7094 37.3198 32.5377 37.1696 32.373 37.005C32.2299 36.9835 32.0796 36.9048 31.9722 36.776C31.9221 36.7402 31.8792 36.6972 31.8434 36.6472C31.7504 36.547 31.6859 36.4253 31.6358 36.3037C31.5499 36.2607 31.4784 36.1892 31.4354 36.1033C31.2135 36.0031 31.0131 35.8385 30.8843 35.631C30.7125 35.5451 30.5694 35.4091 30.4835 35.2374C30.3189 35.1587 30.1757 35.0227 30.0755 34.8653C29.918 34.7865 29.7821 34.6434 29.7033 34.4788C29.5745 34.4502 29.4385 34.35 29.3741 34.2427C29.3526 34.2069 29.3311 34.1711 29.3168 34.1353C28.823 33.6916 28.3577 33.2193 27.9283 32.7255C27.8138 32.6754 27.7207 32.5538 27.6778 32.4393C27.5919 32.3463 27.4988 32.2461 27.4344 32.1387C27.4344 32.1387 27.4273 32.1316 27.4201 32.1244C27.141 31.967 26.9191 31.7523 26.7616 31.4732C26.733 31.4446 26.6972 31.4088 26.6686 31.3802C26.5898 31.3229 26.5254 31.2513 26.461 31.1798C26.4181 31.1368 26.368 31.0939 26.325 31.0438C26.1103 30.9508 25.9314 30.7862 25.824 30.5787C25.6164 30.457 25.4375 30.2709 25.2943 30.0777C25.28 30.0634 25.2729 30.0419 25.2657 30.0276C25.1297 29.9775 25.0009 29.8559 24.9579 29.7128C24.9579 29.7056 24.9579 29.6984 24.9579 29.6841C24.8721 29.5982 24.7862 29.5124 24.7003 29.4337C24.6001 29.3549 24.5142 29.2691 24.4355 29.1689C24.1348 28.8755 23.8414 28.5821 23.5408 28.2887C23.4119 28.2171 23.2974 28.1097 23.2044 28.0096C23.1829 27.9881 23.1614 27.9738 23.1471 27.9452C22.8823 27.6661 22.6175 27.3941 22.3526 27.115C22.2524 27.0077 22.2095 26.9003 22.2095 26.793C22.1451 26.7429 22.0807 26.6928 22.0234 26.6284C21.9518 26.5497 21.9089 26.471 21.8874 26.3994C21.7657 26.4066 21.6441 26.3708 21.5439 26.2563C21.4508 26.1489 21.3649 26.0273 21.3077 25.8985C21.3005 25.8985 21.2862 25.8842 21.279 25.877C21.143 25.7697 20.9999 25.6337 20.9068 25.4834C20.8424 25.4619 20.778 25.4262 20.7207 25.3832C20.4488 25.19 20.1911 24.8537 20.1839 24.5388C20.1696 24.1452 20.5633 24.045 20.8997 24.2096C21.2003 24.3599 21.458 24.6175 21.6512 24.8966C21.8158 25.0183 21.9805 25.1757 22.095 25.3474C22.4242 25.5335 22.8393 25.8985 23.004 26.2706C23.2258 26.4423 23.4334 26.6499 23.5551 26.886C23.7054 27.0148 23.8342 27.158 23.9273 27.3226C24.0346 27.3798 24.1277 27.4514 24.2279 27.5372C24.2422 27.5444 24.2494 27.5587 24.2637 27.573C24.4068 27.7018 24.5285 27.8521 24.6216 28.0096C24.7862 28.0883 24.9222 28.2243 25.0367 28.3745C25.3874 28.5678 25.7238 28.8755 25.8884 29.2333C26.1747 29.4193 26.4324 29.6913 26.5612 29.999C26.9835 30.1851 27.37 30.5643 27.6062 30.9651C27.9855 31.237 28.415 31.6378 28.5725 32.06C28.8015 32.2317 28.9876 32.4393 29.1665 32.6611C29.1808 32.6826 29.1951 32.6969 29.2166 32.7184C29.2596 32.7613 29.3025 32.8114 29.3526 32.8543C29.5745 32.976 29.7606 33.1406 29.9252 33.3338C30.326 33.4555 30.7054 33.8634 30.8843 34.2641C31.1849 34.4144 31.4569 34.6792 31.6215 34.9726C31.8577 35.0942 32.0581 35.3161 32.1941 35.5451C32.4589 35.6524 32.7023 35.8671 32.8741 36.0961C33.0315 36.1677 33.1747 36.2893 33.2964 36.4182C33.325 36.4468 33.3393 36.4754 33.3608 36.4969C33.3608 36.4969 33.3608 36.504 33.3679 36.5112C33.6972 36.9406 33.5326 37.556 32.9528 37.3771L32.9242 37.3843Z" fill="#87BABF"/>
<path d="M114.469 118.787C114.333 118.801 114.254 118.737 114.19 118.665C114.089 118.686 114.011 118.665 113.975 118.608C113.953 118.593 113.932 118.579 113.925 118.55C113.889 118.508 113.882 118.436 113.882 118.364C113.839 118.357 113.81 118.321 113.796 118.279C113.667 118.264 113.574 118.207 113.545 118.092C113.452 118.078 113.388 118.021 113.381 117.928C113.288 117.914 113.223 117.863 113.202 117.778C113.116 117.763 113.059 117.699 113.052 117.606C112.966 117.62 112.901 117.584 112.887 117.527C112.887 117.506 112.887 117.491 112.88 117.47C112.665 117.291 112.479 117.083 112.322 116.847C112.257 116.847 112.229 116.783 112.229 116.711C112.193 116.668 112.157 116.625 112.143 116.568C111.992 116.532 111.899 116.439 111.871 116.289L111.828 116.246C111.792 116.225 111.763 116.196 111.742 116.16C111.72 116.139 111.706 116.124 111.685 116.103C111.556 116.096 111.484 116.024 111.47 115.91C111.355 115.881 111.284 115.795 111.241 115.702C111.241 115.695 111.241 115.681 111.241 115.674C111.155 115.674 111.105 115.624 111.119 115.538V115.523C111.083 115.488 111.048 115.452 111.012 115.416C110.962 115.387 110.926 115.352 110.904 115.302C110.783 115.173 110.661 115.051 110.532 114.922C110.461 114.908 110.418 114.865 110.375 114.815C110.368 114.808 110.36 114.801 110.353 114.786C110.246 114.665 110.146 114.536 110.038 114.414C109.995 114.364 110.003 114.3 110.038 114.228C110.01 114.214 109.981 114.192 109.952 114.164C109.924 114.128 109.917 114.085 109.931 114.035C109.845 114.071 109.766 114.078 109.731 114.028C109.695 113.978 109.673 113.913 109.673 113.842C109.673 113.842 109.666 113.842 109.659 113.842C109.595 113.806 109.537 113.749 109.509 113.663C109.466 113.663 109.43 113.663 109.401 113.641C109.265 113.577 109.187 113.412 109.28 113.19C109.394 112.918 109.709 112.747 109.895 112.768C110.067 112.79 110.174 112.904 110.224 113.047C110.303 113.09 110.375 113.155 110.403 113.248C110.582 113.291 110.768 113.441 110.768 113.648C110.876 113.713 110.962 113.799 110.976 113.935C111.04 113.985 111.09 114.049 111.105 114.142C111.162 114.157 111.212 114.178 111.255 114.214C111.255 114.214 111.269 114.221 111.269 114.228C111.327 114.285 111.37 114.35 111.391 114.436C111.484 114.45 111.541 114.507 111.577 114.586C111.77 114.629 111.914 114.75 111.921 114.958C112.071 115.015 112.171 115.13 112.164 115.316C112.407 115.337 112.565 115.502 112.615 115.717C112.801 115.802 112.987 115.974 112.973 116.225C113.08 116.282 113.152 116.382 113.216 116.489C113.216 116.497 113.223 116.511 113.231 116.518C113.252 116.54 113.266 116.561 113.288 116.575C113.409 116.604 113.495 116.668 113.545 116.761C113.796 116.74 113.939 116.926 113.946 117.162C114.118 117.191 114.233 117.298 114.254 117.463C114.383 117.484 114.462 117.584 114.483 117.713C114.641 117.713 114.748 117.806 114.798 117.921C114.891 117.928 114.955 117.978 114.998 118.035C115.006 118.05 115.013 118.064 115.02 118.078C115.127 118.293 114.812 118.765 114.447 118.794L114.469 118.787Z" fill="#87BABF"/>
<path d="M29.3598 113.319C29.3383 113.491 29.2381 113.613 29.1236 113.727C29.1236 113.849 29.0806 113.956 28.9947 114.028C28.9733 114.063 28.9375 114.092 28.9017 114.114C28.8301 114.178 28.7371 114.214 28.644 114.235C28.6154 114.3 28.5725 114.35 28.508 114.378C28.4579 114.55 28.3506 114.693 28.1931 114.772C28.1502 114.901 28.05 115.001 27.9211 115.051C27.8782 115.18 27.7851 115.28 27.6706 115.337C27.6277 115.459 27.5275 115.545 27.4058 115.588C27.4058 115.695 27.3414 115.788 27.2555 115.824C27.2269 115.838 27.2054 115.845 27.1768 115.86C26.8833 116.21 26.5541 116.525 26.1962 116.811C26.1676 116.897 26.0817 116.962 25.9886 116.976C25.9242 117.033 25.8526 117.098 25.7739 117.141C25.7739 117.141 25.7739 117.141 25.7667 117.148C25.6737 117.362 25.5305 117.513 25.323 117.606C25.3015 117.627 25.28 117.649 25.2586 117.67C25.2228 117.727 25.1727 117.77 25.1154 117.813C25.0868 117.842 25.0581 117.878 25.0224 117.906C24.9723 118.071 24.8649 118.2 24.7074 118.257C24.6359 118.414 24.507 118.536 24.3639 118.629C24.3496 118.629 24.3353 118.643 24.3281 118.643C24.3066 118.751 24.2207 118.844 24.1134 118.858C24.1062 118.858 24.0991 118.858 24.0919 118.858C24.0346 118.915 23.9774 118.98 23.9201 119.037C23.87 119.109 23.8128 119.173 23.7412 119.223C23.5408 119.431 23.3404 119.638 23.14 119.839C23.1042 119.932 23.0254 120.01 22.961 120.082C22.9467 120.096 22.9324 120.11 22.9181 120.125C22.7248 120.304 22.5316 120.483 22.3383 120.669C22.2668 120.74 22.1737 120.755 22.0878 120.74C22.0592 120.79 22.0234 120.833 21.9805 120.876C21.9304 120.926 21.8659 120.948 21.8087 120.955C21.8373 121.055 21.823 121.155 21.7443 121.22C21.6655 121.284 21.5725 121.334 21.4794 121.363C21.4794 121.37 21.4723 121.377 21.4651 121.384C21.3935 121.484 21.3005 121.578 21.1931 121.642C21.186 121.692 21.1645 121.742 21.143 121.785C21.0214 121.985 20.778 122.15 20.5132 122.107C20.1839 122.057 20.0408 121.706 20.1267 121.449C20.2054 121.22 20.3843 121.041 20.5919 120.919C20.6706 120.797 20.778 120.683 20.9068 120.611C21.0142 120.361 21.2576 120.068 21.5439 119.989C21.6584 119.831 21.7944 119.681 21.9805 119.617C22.0663 119.509 22.1665 119.423 22.2954 119.366C22.3312 119.288 22.3741 119.216 22.4314 119.144C22.4314 119.137 22.4457 119.13 22.4528 119.116C22.5387 119.016 22.6461 118.937 22.7678 118.88C22.8107 118.758 22.9038 118.658 23.0111 118.586C23.1185 118.321 23.3261 118.085 23.6052 117.999C23.7197 117.785 23.9058 117.613 24.1492 117.549C24.2422 117.219 24.507 116.955 24.8005 116.811C24.9723 116.532 25.2442 116.232 25.5735 116.167C25.6808 116.003 25.8312 115.881 25.9886 115.759C26.0029 115.752 26.0172 115.738 26.0316 115.731C26.0602 115.702 26.096 115.666 26.1246 115.638C26.189 115.473 26.3035 115.337 26.4467 115.23C26.4825 114.915 26.7759 114.65 27.0837 114.564C27.1624 114.335 27.3414 114.142 27.5704 114.049C27.6348 113.87 27.7923 113.734 27.9641 113.656C28.0142 113.448 28.1573 113.276 28.3219 113.169C28.3577 113.047 28.4365 112.947 28.5295 112.861C28.551 112.847 28.5653 112.833 28.5868 112.818C28.5868 112.818 28.5868 112.818 28.5939 112.818C28.9017 112.604 29.4528 112.84 29.3884 113.305L29.3598 113.319Z" fill="#87BABF"/>
<path d="M118.012 24.6819C117.947 24.8966 117.797 25.0683 117.632 25.2329C117.611 25.3761 117.532 25.5263 117.403 25.6337C117.368 25.6838 117.325 25.7267 117.275 25.7625C117.174 25.8555 117.053 25.9199 116.931 25.97C116.888 26.0559 116.816 26.1275 116.731 26.1704C116.63 26.3923 116.466 26.5926 116.258 26.7214C116.172 26.8932 116.036 27.0363 115.864 27.1222C115.786 27.2868 115.65 27.4299 115.492 27.5301C115.414 27.6875 115.27 27.8235 115.106 27.9022C115.077 28.031 114.977 28.167 114.87 28.2314C114.834 28.2529 114.798 28.2743 114.762 28.2887C114.318 28.7824 113.846 29.2476 113.352 29.677C113.302 29.7915 113.18 29.8845 113.066 29.9274C112.973 30.0133 112.873 30.1063 112.765 30.1708C112.765 30.1708 112.758 30.1779 112.751 30.1851C112.594 30.4642 112.379 30.686 112.1 30.8434C112.071 30.8721 112.035 30.9078 112.007 30.9365C111.949 31.0152 111.878 31.0796 111.806 31.144C111.763 31.1869 111.72 31.237 111.67 31.28C111.577 31.4947 111.413 31.6736 111.205 31.7809C111.083 31.9884 110.897 32.1673 110.704 32.3105C110.69 32.3248 110.668 32.3319 110.654 32.3391C110.604 32.4751 110.482 32.6039 110.339 32.6468C110.332 32.6468 110.325 32.6468 110.31 32.6468C110.224 32.7327 110.139 32.8186 110.06 32.9044C109.981 33.0046 109.895 33.0905 109.795 33.1692C109.502 33.4698 109.208 33.7632 108.915 34.0638C108.843 34.1926 108.736 34.3071 108.635 34.4001C108.614 34.4216 108.6 34.443 108.571 34.4573C108.292 34.7221 108.02 34.9869 107.741 35.2517C107.633 35.3519 107.526 35.3948 107.419 35.3948C107.369 35.4592 107.319 35.5236 107.254 35.5809C107.175 35.6524 107.097 35.6954 107.025 35.7168C107.032 35.8385 106.996 35.9602 106.882 36.0603C106.775 36.1534 106.653 36.2393 106.524 36.2965C106.524 36.3037 106.51 36.318 106.503 36.3251C106.395 36.4611 106.259 36.6042 106.109 36.6973C106.087 36.7617 106.052 36.8261 106.009 36.8833C105.815 37.1553 105.479 37.4129 105.164 37.42C104.77 37.4343 104.67 37.0408 104.835 36.7044C104.985 36.4038 105.243 36.1462 105.522 35.953C105.644 35.7884 105.801 35.6238 105.973 35.5093C106.159 35.1801 106.524 34.7651 106.896 34.6005C107.068 34.3786 107.276 34.1711 107.512 34.0494C107.641 33.8992 107.784 33.7703 107.948 33.6773C108.006 33.57 108.077 33.4769 108.163 33.3768C108.17 33.3624 108.185 33.3553 108.199 33.341C108.328 33.1978 108.478 33.0762 108.635 32.9832C108.714 32.8186 108.85 32.6826 109.001 32.5681C109.194 32.2174 109.502 31.8811 109.859 31.7165C110.045 31.4303 110.317 31.1726 110.625 31.0438C110.811 30.6216 111.191 30.2352 111.592 29.999C111.863 29.6197 112.264 29.1903 112.687 29.0329C112.858 28.8039 113.066 28.6178 113.288 28.4389C113.309 28.4246 113.324 28.4103 113.345 28.3888C113.388 28.3459 113.438 28.303 113.481 28.2529C113.603 28.031 113.767 27.845 113.961 27.6804C114.082 27.2796 114.49 26.9003 114.891 26.7214C115.041 26.4209 115.306 26.1489 115.6 25.9843C115.721 25.7482 115.943 25.5478 116.172 25.4118C116.28 25.1471 116.494 24.9038 116.723 24.732C116.795 24.5746 116.917 24.4314 117.045 24.3098C117.074 24.2812 117.103 24.2668 117.124 24.2454C117.124 24.2454 117.131 24.2454 117.139 24.2382C117.568 23.909 118.183 24.0736 118.005 24.6533L118.012 24.6819Z" fill="#87BABF"/>
</g>
<g style="mix-blend-mode:multiply">
<path d="M88.6806 26.3064C88.6305 26.1561 88.6663 26.0273 88.7164 25.8985C88.6663 25.7983 88.652 25.6909 88.7021 25.6122C88.7021 25.5764 88.7235 25.5407 88.745 25.512C88.7808 25.4405 88.8524 25.3832 88.9239 25.3331C88.9239 25.2759 88.9454 25.2186 88.9812 25.1757C88.9526 25.0183 88.9812 24.868 89.0957 24.7606C89.0814 24.639 89.1244 24.5316 89.2174 24.4529C89.2031 24.3384 89.2389 24.2239 89.3176 24.138C89.3033 24.0235 89.3534 23.9233 89.4464 23.8518C89.4107 23.7659 89.4178 23.6657 89.4751 23.6085C89.4965 23.587 89.5109 23.5727 89.5323 23.5584C89.6468 23.1863 89.7972 22.8213 89.9904 22.4778C89.9761 22.3991 90.0262 22.3203 90.0978 22.2774C90.1336 22.2058 90.1622 22.1343 90.2194 22.077C90.2194 22.077 90.2194 22.077 90.2194 22.0699C90.2123 21.8695 90.2767 21.6978 90.4199 21.5618L90.4485 21.4902C90.4556 21.433 90.4771 21.3829 90.5129 21.3328C90.5272 21.297 90.5415 21.2612 90.5558 21.2254C90.5272 21.0752 90.5702 20.9392 90.6847 20.839C90.6847 20.6887 90.7419 20.5456 90.8278 20.4311C90.835 20.4239 90.8421 20.4168 90.8565 20.4025C90.8278 20.3094 90.8636 20.2093 90.9567 20.1663C90.9567 20.1663 90.971 20.1663 90.9781 20.1592C91.0068 20.0948 91.0282 20.0232 91.0569 19.9588C91.0712 19.8872 91.0998 19.8157 91.1356 19.7513C91.2286 19.5223 91.3145 19.2933 91.4076 19.0571C91.4076 18.9641 91.429 18.8782 91.4648 18.8066C91.4648 18.7923 91.4791 18.778 91.4863 18.7637C91.5794 18.5562 91.6724 18.3486 91.7655 18.1411C91.8012 18.0624 91.8728 18.0194 91.9515 18.0123C91.9515 17.9622 91.973 17.9193 91.9873 17.8692C92.0088 17.8119 92.0589 17.7761 92.109 17.7547C92.0446 17.6759 92.0088 17.5901 92.0517 17.5113C92.0947 17.4398 92.152 17.3682 92.2235 17.311C92.2235 17.3038 92.2235 17.2967 92.2235 17.2895C92.245 17.1893 92.2808 17.082 92.3595 16.9961C92.3452 16.9532 92.338 16.9031 92.3452 16.8601C92.3667 16.6598 92.5098 16.4522 92.7603 16.4093C93.0753 16.352 93.3472 16.6025 93.383 16.8387C93.4117 17.0533 93.3329 17.2537 93.1969 17.4112C93.1755 17.5328 93.1325 17.6616 93.0538 17.7547C93.0681 17.9908 92.9751 18.3057 92.7532 18.456C92.7245 18.6206 92.6601 18.7852 92.5241 18.8925C92.4955 19.007 92.4382 19.1072 92.3524 19.1931C92.3524 19.2718 92.3524 19.3433 92.3309 19.4149C92.3309 19.4221 92.3309 19.4364 92.3237 19.4435C92.2879 19.5509 92.2307 19.6511 92.1519 19.7298C92.1663 19.8443 92.1305 19.9516 92.0589 20.0447C92.0804 20.2951 91.9945 20.5528 91.7869 20.703C91.7798 20.9106 91.6867 21.1181 91.5006 21.2326C91.5579 21.5332 91.4362 21.8266 91.2358 22.0341C91.2072 22.3132 91.0855 22.6424 90.8278 22.7998C90.8064 22.9716 90.7205 23.1147 90.6346 23.2578C90.6274 23.2721 90.6203 23.2793 90.6131 23.2936L90.5702 23.3938C90.5845 23.5512 90.5415 23.6943 90.4628 23.8232C90.563 24.0951 90.4199 24.3957 90.1837 24.5603C90.2123 24.7749 90.1336 24.9825 89.9761 25.1256C89.9976 25.2973 89.9117 25.4548 89.79 25.5693C89.8329 25.7553 89.7828 25.9414 89.6826 26.0774C89.7041 26.1919 89.6755 26.2992 89.6325 26.3923C89.6254 26.4137 89.6111 26.428 89.5967 26.4423C89.5967 26.4423 89.5967 26.4423 89.5967 26.4495C89.4107 26.7143 88.8309 26.6857 88.6878 26.2778L88.6806 26.3064Z" fill="#87BABF"/>
<path d="M44.3618 130.902C44.2974 130.795 44.3188 130.723 44.3618 130.659C44.3045 130.587 44.283 130.516 44.326 130.473C44.326 130.451 44.3403 130.43 44.3546 130.423C44.3832 130.387 44.4405 130.365 44.4978 130.358C44.4906 130.322 44.4978 130.294 44.5407 130.272C44.4978 130.165 44.5121 130.079 44.6051 130.036C44.5765 129.958 44.6051 129.9 44.6839 129.872C44.6552 129.793 44.6839 129.736 44.7483 129.7C44.7268 129.628 44.7626 129.571 44.8413 129.55C44.7984 129.485 44.7984 129.428 44.8413 129.406C44.8556 129.406 44.87 129.392 44.8914 129.392C44.963 129.185 45.0704 128.999 45.2135 128.827C45.192 128.77 45.235 128.741 45.2922 128.727C45.3137 128.691 45.3423 128.655 45.3853 128.634C45.3567 128.505 45.3996 128.412 45.5213 128.362C45.5213 128.347 45.5356 128.333 45.5428 128.326C45.5428 128.29 45.5642 128.261 45.5857 128.24C45.5929 128.219 45.6072 128.204 45.6143 128.183C45.5714 128.083 45.6 128.004 45.6931 127.975C45.6716 127.882 45.7217 127.811 45.7861 127.753C45.7861 127.753 45.8004 127.753 45.8076 127.746C45.7718 127.682 45.8004 127.625 45.8791 127.625C45.8791 127.625 45.8863 127.625 45.8935 127.625C45.9078 127.589 45.9293 127.553 45.9436 127.517C45.9436 127.474 45.965 127.439 46.0008 127.41C46.0652 127.288 46.1225 127.167 46.1869 127.045C46.1726 126.988 46.1869 126.938 46.2155 126.902C46.2155 126.895 46.2227 126.887 46.2299 126.88C46.2943 126.773 46.3659 126.666 46.4303 126.558C46.4589 126.515 46.5162 126.508 46.5949 126.523C46.5949 126.494 46.602 126.465 46.6164 126.444C46.6307 126.415 46.6665 126.401 46.7166 126.401C46.6521 126.336 46.6092 126.272 46.645 126.236C46.6736 126.2 46.7237 126.172 46.7881 126.158C46.7881 126.158 46.7881 126.15 46.7881 126.143C46.7953 126.086 46.8239 126.029 46.8812 125.993C46.8669 125.964 46.8526 125.929 46.8526 125.907C46.8526 125.785 46.9671 125.692 47.1961 125.728C47.4824 125.771 47.7544 125.993 47.8045 126.158C47.8474 126.301 47.7973 126.408 47.69 126.472C47.69 126.544 47.6542 126.616 47.5898 126.651C47.6256 126.802 47.5683 126.981 47.3822 127.016C47.3679 127.109 47.3249 127.202 47.2104 127.231C47.1961 127.295 47.1532 127.345 47.0816 127.374C47.0888 127.424 47.0888 127.467 47.0816 127.51C47.0816 127.51 47.0816 127.517 47.0816 127.524C47.0601 127.582 47.0172 127.632 46.9456 127.66C46.9742 127.739 46.9456 127.796 46.8883 127.832C46.9313 127.997 46.874 128.133 46.7023 128.183C46.7094 128.312 46.6521 128.419 46.4875 128.448C46.5663 128.648 46.4875 128.805 46.3229 128.884C46.3229 129.049 46.2442 129.228 46.0151 129.263C46.0151 129.364 45.9507 129.435 45.8791 129.507L45.8648 129.521C45.8577 129.542 45.8434 129.557 45.8362 129.578C45.8648 129.678 45.8362 129.764 45.7789 129.822C45.8935 130.022 45.7933 130.172 45.5929 130.215C45.6358 130.358 45.5929 130.473 45.4497 130.523C45.4855 130.63 45.4211 130.716 45.3209 130.752C45.3781 130.881 45.3495 130.981 45.2636 131.045C45.2922 131.124 45.2779 131.181 45.2421 131.231C45.2421 131.238 45.2278 131.246 45.2135 131.253C45.0704 131.374 44.5336 131.21 44.3618 130.916V130.902Z" fill="#87BABF"/>
<path d="M22.2453 53.5359C22.0735 53.5717 21.9232 53.5144 21.7729 53.45C21.6584 53.493 21.5367 53.4858 21.4365 53.4214C21.3936 53.4143 21.3578 53.3928 21.322 53.3642C21.2361 53.3141 21.1717 53.2425 21.1144 53.1566C21.0429 53.1566 20.9784 53.1208 20.9283 53.0779C20.7494 53.0851 20.5705 53.035 20.4416 52.9133C20.2985 52.9133 20.1768 52.8561 20.0766 52.7487C19.9406 52.7487 19.8118 52.6986 19.7116 52.6056C19.5827 52.6056 19.4611 52.5412 19.3752 52.4338C19.275 52.4625 19.1605 52.4338 19.096 52.3766C19.0746 52.3551 19.0531 52.3337 19.0388 52.3122C18.6022 52.1476 18.187 51.9401 17.7862 51.7039C17.6932 51.7039 17.6073 51.6467 17.5572 51.5679C17.4785 51.525 17.3926 51.4821 17.3281 51.4177C17.3281 51.4177 17.3282 51.4177 17.321 51.4177C17.0848 51.4033 16.8915 51.3103 16.7269 51.1457C16.6983 51.1314 16.6697 51.1171 16.641 51.1028C16.5766 51.0813 16.5122 51.0527 16.4549 51.0169C16.412 50.9954 16.3762 50.9811 16.3333 50.9597C16.1543 50.9668 15.9969 50.9024 15.8895 50.7808C15.7177 50.7664 15.5531 50.6877 15.4171 50.5804C15.4028 50.5732 15.3956 50.5589 15.3885 50.5518C15.2811 50.5661 15.1594 50.516 15.1093 50.4158C15.1093 50.4158 15.1093 50.4015 15.1022 50.3943C15.0235 50.3585 14.9447 50.3227 14.8732 50.287C14.7873 50.2655 14.7085 50.2226 14.6298 50.1796C14.365 50.058 14.093 49.9363 13.8282 49.8147C13.7208 49.8147 13.6206 49.7646 13.5347 49.7216C13.5132 49.7216 13.4989 49.7073 13.4846 49.693C13.2413 49.5713 13.0051 49.4497 12.7617 49.3209C12.6687 49.2708 12.6186 49.1992 12.6042 49.1062C12.547 49.0919 12.4969 49.0776 12.4396 49.0489C12.3752 49.0132 12.3323 48.9702 12.3036 48.9058C12.2177 48.9631 12.1104 48.9845 12.0245 48.9344C11.9386 48.8843 11.8527 48.8128 11.7883 48.7269C11.7811 48.7269 11.774 48.7269 11.7597 48.7269C11.638 48.6911 11.5163 48.641 11.4161 48.5552C11.366 48.5623 11.3087 48.5623 11.2586 48.5552C11.0225 48.5122 10.7863 48.3333 10.729 48.0685C10.6574 47.7393 10.9437 47.4889 11.2229 47.4817C11.4734 47.4817 11.7024 47.5891 11.8885 47.7465C12.0317 47.7823 12.1748 47.8467 12.2893 47.9397C12.5685 47.9612 12.9335 48.0972 13.1124 48.3333C13.3057 48.3834 13.4918 48.4693 13.6206 48.6267C13.7494 48.6697 13.8711 48.7412 13.9642 48.8414C14.05 48.8414 14.1359 48.87 14.2218 48.8915C14.2361 48.8915 14.2433 48.8987 14.2576 48.9058C14.3793 48.9559 14.4938 49.0275 14.594 49.1205C14.73 49.1205 14.8517 49.1706 14.959 49.2565C15.2525 49.2708 15.5459 49.3853 15.732 49.6214C15.9754 49.6572 16.2116 49.7789 16.3547 49.9864C16.6983 49.9649 17.049 50.1295 17.2852 50.3585C17.6073 50.4301 17.9938 50.5875 18.1727 50.8809C18.366 50.931 18.5378 51.0312 18.7095 51.1386C18.7238 51.1457 18.7382 51.16 18.7525 51.1672C18.7954 51.1887 18.8312 51.203 18.8742 51.2244C19.0531 51.2316 19.2249 51.296 19.3752 51.389C19.6901 51.3175 20.0408 51.5107 20.2341 51.7755C20.4846 51.7755 20.7279 51.8828 20.8926 52.0689C21.0858 52.0689 21.2719 52.1762 21.4079 52.3122C21.6226 52.2907 21.8373 52.3694 22.002 52.4911C22.1308 52.4911 22.2596 52.5269 22.367 52.5841C22.3885 52.5984 22.4099 52.6128 22.4242 52.6271C22.4242 52.6271 22.4242 52.6271 22.4314 52.6271C22.7463 52.8489 22.7105 53.45 22.2453 53.5431V53.5359Z" fill="#87BABF"/>
<path d="M125.212 96.8169C125.069 96.8742 124.94 96.8455 124.826 96.8026C124.733 96.8599 124.632 96.8742 124.546 96.8241C124.511 96.8241 124.475 96.8098 124.453 96.7811C124.382 96.7454 124.325 96.6809 124.282 96.6094C124.224 96.6094 124.174 96.5951 124.131 96.5593C123.981 96.5951 123.831 96.5664 123.731 96.4663C123.616 96.4877 123.509 96.4519 123.43 96.3589C123.315 96.3804 123.208 96.3518 123.129 96.273C123.022 96.2873 122.922 96.2444 122.85 96.1585C122.764 96.2015 122.671 96.1943 122.621 96.1442C122.607 96.1299 122.585 96.1084 122.571 96.087C122.206 95.9868 121.862 95.8508 121.533 95.6791C121.454 95.6934 121.383 95.6504 121.34 95.5789C121.276 95.5503 121.204 95.5145 121.147 95.4644C121.147 95.4644 121.147 95.4644 121.14 95.4644C120.946 95.4858 120.782 95.4286 120.646 95.2855C120.624 95.2783 120.596 95.2712 120.574 95.2569C120.517 95.2497 120.467 95.2282 120.424 95.1996C120.388 95.1853 120.359 95.1781 120.324 95.1638C120.18 95.1996 120.044 95.1638 119.951 95.0565C119.808 95.0708 119.672 95.0135 119.558 94.9348C119.551 94.9277 119.543 94.9205 119.536 94.9134C119.443 94.942 119.35 94.9134 119.307 94.8203C119.307 94.8203 119.307 94.806 119.3 94.806C119.236 94.7845 119.171 94.7631 119.107 94.7344C119.035 94.7201 118.971 94.6987 118.906 94.6629C118.685 94.5842 118.463 94.5054 118.241 94.4267C118.155 94.441 118.069 94.4124 117.997 94.3766C117.983 94.3766 117.969 94.3695 117.954 94.3552C117.754 94.2693 117.554 94.1906 117.353 94.1047C117.275 94.0761 117.239 94.0045 117.224 93.9186C117.181 93.9186 117.131 93.9043 117.088 93.8829C117.031 93.8614 116.995 93.8184 116.974 93.7683C116.902 93.8399 116.816 93.8757 116.745 93.8328C116.673 93.797 116.602 93.7397 116.552 93.6682C116.552 93.6682 116.537 93.6682 116.53 93.6682C116.43 93.6539 116.33 93.6181 116.251 93.5465C116.208 93.5608 116.165 93.568 116.122 93.568C115.929 93.5537 115.729 93.4177 115.678 93.1744C115.621 92.8667 115.85 92.5804 116.086 92.5375C116.294 92.5017 116.487 92.5733 116.638 92.6949C116.759 92.7092 116.874 92.745 116.967 92.8237C117.196 92.8023 117.496 92.881 117.647 93.0885C117.804 93.11 117.962 93.1672 118.069 93.296C118.176 93.3247 118.277 93.3676 118.355 93.4535C118.427 93.4535 118.498 93.4535 118.57 93.4678C118.577 93.4678 118.591 93.4678 118.599 93.4749C118.699 93.5036 118.799 93.5608 118.878 93.6324C118.985 93.6109 119.093 93.6467 119.178 93.7111C119.422 93.6825 119.665 93.754 119.815 93.9544C120.016 93.9544 120.209 94.0331 120.331 94.2192C120.617 94.1476 120.903 94.255 121.104 94.4482C121.369 94.4697 121.691 94.5699 121.841 94.8203C122.006 94.8346 122.149 94.9134 122.285 94.9921C122.299 94.9921 122.306 95.0064 122.321 95.0135C122.356 95.0279 122.385 95.0422 122.421 95.0493C122.571 95.0279 122.714 95.0636 122.836 95.1352C123.101 95.0207 123.387 95.1567 123.552 95.3785C123.759 95.3427 123.96 95.4071 124.103 95.5646C124.267 95.5359 124.418 95.6147 124.532 95.7292C124.711 95.6791 124.883 95.7292 125.026 95.815C125.133 95.7936 125.241 95.815 125.327 95.8508C125.348 95.858 125.362 95.8723 125.377 95.8794C125.377 95.8794 125.377 95.8794 125.384 95.8794C125.642 96.0512 125.62 96.6308 125.234 96.7954L125.212 96.8169Z" fill="#87BABF"/>
<path d="M49.8444 26.1919C49.7084 26.1275 49.6439 26.0201 49.601 25.9056C49.4936 25.877 49.4221 25.8126 49.4006 25.7267C49.3791 25.6981 49.3648 25.6695 49.3648 25.6337C49.3433 25.5621 49.3505 25.4763 49.372 25.3975C49.329 25.3618 49.3075 25.3117 49.3075 25.2544C49.1787 25.1685 49.1 25.0469 49.1071 24.9038C49.0141 24.8322 48.9711 24.732 48.9855 24.6175C48.8924 24.5531 48.8495 24.4529 48.8495 24.3456C48.7636 24.2812 48.7278 24.181 48.7493 24.0665C48.6634 24.0379 48.6061 23.9591 48.6061 23.8876C48.6061 23.8661 48.6061 23.8375 48.6133 23.816C48.4415 23.494 48.3127 23.1576 48.2196 22.7998C48.1552 22.7569 48.1409 22.671 48.1624 22.5923C48.1409 22.5207 48.1123 22.4563 48.1194 22.3848C48.1194 22.3848 48.1194 22.3848 48.1194 22.3776C47.9763 22.2488 47.9118 22.0985 47.919 21.9053C47.9118 21.8838 47.8975 21.8624 47.8904 21.8409C47.8617 21.7979 47.8403 21.7479 47.826 21.6906C47.8116 21.662 47.7973 21.6262 47.783 21.5976C47.6613 21.5189 47.6041 21.3972 47.6184 21.2612C47.511 21.1682 47.4681 21.0322 47.4466 20.8963C47.4466 20.8819 47.4466 20.8748 47.4466 20.8605C47.3607 20.8175 47.3249 20.7245 47.3607 20.6315C47.3607 20.6315 47.3607 20.6172 47.3679 20.6172L47.2891 20.4311C47.2462 20.3739 47.2247 20.3094 47.2104 20.2379C47.1245 20.0232 47.0315 19.8157 46.9456 19.601C46.8812 19.5437 46.8454 19.465 46.8168 19.3934C46.8096 19.3791 46.8024 19.3648 46.8024 19.3505C46.7309 19.1501 46.6593 18.9569 46.5877 18.7565C46.5591 18.6778 46.5877 18.6063 46.6378 18.5419C46.6092 18.5061 46.5877 18.4631 46.5734 18.4202C46.5519 18.3629 46.5591 18.3129 46.5806 18.2628C46.4804 18.2628 46.4016 18.2198 46.3802 18.1411C46.3587 18.0624 46.3515 17.9765 46.373 17.8906C46.373 17.8906 46.3658 17.8835 46.3587 17.8763C46.3014 17.7976 46.2585 17.6974 46.2585 17.5972C46.2155 17.5758 46.1869 17.5471 46.1583 17.5185C46.0366 17.3754 46.008 17.1392 46.1583 16.9389C46.3515 16.6884 46.7166 16.6669 46.9026 16.8029C47.0673 16.9245 47.146 17.1106 47.1532 17.3038C47.2247 17.3969 47.2748 17.5114 47.282 17.6259C47.4538 17.7761 47.5969 18.0409 47.5397 18.2842C47.6255 18.413 47.69 18.5633 47.6685 18.7208C47.7258 18.8138 47.7544 18.914 47.7472 19.0285C47.7973 19.0786 47.8403 19.1287 47.8832 19.1931C47.8832 19.2002 47.8904 19.2074 47.8975 19.2145C47.9405 19.3076 47.9691 19.4149 47.9619 19.5223C48.0478 19.5867 48.0979 19.6869 48.1051 19.787C48.2912 19.9373 48.3986 20.1663 48.3485 20.4025C48.4844 20.5456 48.556 20.7388 48.4988 20.9464C48.7421 21.1038 48.8566 21.3757 48.8423 21.6477C49.0069 21.848 49.1429 22.1486 49.057 22.4277C49.1501 22.5565 49.193 22.7068 49.2288 22.8571C49.2288 22.8714 49.2288 22.8857 49.236 22.9C49.2503 22.9358 49.2646 22.9644 49.2718 23.0002C49.3863 23.0932 49.4507 23.222 49.4793 23.358C49.737 23.4725 49.83 23.7659 49.7728 24.0307C49.9374 24.1524 50.0233 24.3456 50.0018 24.5459C50.1307 24.6461 50.1736 24.8036 50.1664 24.961C50.3239 25.054 50.4098 25.2115 50.4313 25.3689C50.5172 25.4262 50.5744 25.5192 50.603 25.6122C50.603 25.6337 50.6102 25.648 50.6102 25.6695C50.6102 25.6695 50.6102 25.6695 50.6102 25.6766C50.6603 25.9772 50.2094 26.3422 49.8372 26.1776L49.8444 26.1919Z" fill="#87BABF"/>
<path d="M22.1451 92.4015C22.0664 92.5446 21.9304 92.609 21.7944 92.6591C21.7514 92.7665 21.6727 92.8452 21.5725 92.8738C21.5367 92.8953 21.5009 92.9096 21.4651 92.9096C21.3793 92.9311 21.2862 92.9239 21.1932 92.9096C21.1502 92.9525 21.0858 92.974 21.0285 92.9811C20.9212 93.11 20.778 93.1958 20.6134 93.1958C20.5275 93.296 20.4058 93.339 20.277 93.3318C20.1983 93.4248 20.0766 93.4749 19.9549 93.4821C19.869 93.568 19.7545 93.6109 19.6328 93.5966C19.5899 93.6896 19.504 93.7469 19.4181 93.7469C19.3895 93.7469 19.3609 93.7469 19.3394 93.7469C18.9529 93.9258 18.5592 94.0761 18.1441 94.1762C18.0868 94.2407 17.9938 94.2621 17.9079 94.2407C17.8292 94.2621 17.7433 94.2907 17.6645 94.2907C17.6645 94.2907 17.6645 94.2907 17.6574 94.2907C17.4999 94.441 17.321 94.5126 17.1063 94.5054C17.0776 94.5126 17.0562 94.5269 17.0275 94.5341C16.9703 94.5698 16.913 94.5913 16.8558 94.5985C16.82 94.6128 16.777 94.6271 16.7412 94.6414C16.641 94.7702 16.4979 94.8346 16.3404 94.8203C16.2187 94.9276 16.0684 94.9849 15.911 95.0064C15.8967 95.0064 15.8823 95.0064 15.8752 95.0064C15.8179 95.0922 15.7106 95.1352 15.6104 95.0994C15.6104 95.0994 15.596 95.0994 15.5889 95.0922C15.5173 95.1209 15.4457 95.1495 15.3742 95.1781C15.3026 95.2211 15.231 95.2497 15.1523 95.264C14.9018 95.3642 14.6513 95.4572 14.4008 95.5574C14.3363 95.629 14.2361 95.6647 14.1574 95.6934C14.1431 95.7005 14.1216 95.7077 14.1073 95.7077C13.8783 95.7864 13.6421 95.8651 13.413 95.9438C13.3271 95.9725 13.2413 95.951 13.1697 95.9009C13.1267 95.9295 13.0766 95.951 13.0265 95.9725C12.9621 95.9939 12.9049 95.9868 12.8476 95.9725C12.8333 96.0726 12.7832 96.1585 12.6901 96.18C12.6042 96.2015 12.504 96.2086 12.4038 96.1943C12.4038 96.1943 12.3895 96.2015 12.3824 96.2086C12.2893 96.2659 12.1748 96.316 12.0531 96.316C12.0245 96.3589 11.9959 96.3947 11.9529 96.4233C11.774 96.5521 11.5092 96.5879 11.2944 96.4376C11.0224 96.2516 11.0296 95.8794 11.2014 95.6862C11.3517 95.5145 11.5736 95.4286 11.7955 95.4143C11.91 95.3427 12.0388 95.2855 12.1748 95.2783C12.3609 95.0994 12.6758 94.9491 12.955 94.9992C13.1124 94.9062 13.2842 94.8346 13.4703 94.8561C13.5848 94.7988 13.6993 94.7631 13.8282 94.7702C13.8854 94.713 13.9498 94.67 14.0214 94.6271C14.0286 94.6271 14.0429 94.6199 14.05 94.6128C14.1646 94.5627 14.2791 94.5341 14.4079 94.5341C14.4866 94.441 14.6012 94.3909 14.7228 94.3766C14.9161 94.1834 15.1738 94.0617 15.4457 94.1047C15.6247 93.9616 15.8466 93.8828 16.0756 93.9329C16.276 93.6825 16.5981 93.5537 16.9059 93.5608C17.1492 93.3891 17.4999 93.2388 17.8149 93.3175C17.9652 93.2173 18.1441 93.1672 18.323 93.1314C18.3373 93.1314 18.3517 93.1314 18.366 93.1243C18.4018 93.11 18.4447 93.0957 18.4805 93.0813C18.6022 92.9597 18.7453 92.8881 18.9028 92.8523C19.0531 92.5876 19.3966 92.4802 19.6973 92.5303C19.8547 92.3586 20.0766 92.2655 20.3056 92.2798C20.4273 92.1439 20.6134 92.0938 20.7923 92.1009C20.9069 91.9363 21.093 91.8505 21.279 91.8218C21.3578 91.7288 21.4651 91.6716 21.5725 91.6358C21.594 91.6286 21.6154 91.6215 21.6369 91.6215C21.6369 91.6215 21.6369 91.6215 21.6441 91.6215C21.9876 91.5642 22.3741 92.0151 22.1523 92.4015H22.1451Z" fill="#87BABF"/>
<path d="M126.844 50.2655C126.765 50.4086 126.636 50.4802 126.5 50.5303C126.465 50.6376 126.386 50.7235 126.286 50.745C126.25 50.7664 126.214 50.7807 126.178 50.7807C126.1 50.8094 125.999 50.8022 125.914 50.7807C125.871 50.8237 125.813 50.8523 125.749 50.8523C125.649 50.9811 125.506 51.0742 125.348 51.067C125.262 51.1672 125.148 51.2101 125.019 51.203C124.94 51.296 124.826 51.3532 124.704 51.3532C124.625 51.4391 124.511 51.4821 124.389 51.4677C124.346 51.5608 124.26 51.618 124.181 51.618C124.153 51.618 124.124 51.618 124.103 51.618C123.731 51.8041 123.337 51.9544 122.936 52.0617C122.886 52.1333 122.793 52.1476 122.7 52.1261C122.621 52.1547 122.542 52.1762 122.457 52.1834C122.457 52.1834 122.457 52.1834 122.449 52.1834C122.299 52.3337 122.12 52.4124 121.905 52.4052C121.877 52.4124 121.855 52.4267 121.827 52.4338C121.777 52.4696 121.719 52.4911 121.655 52.5054C121.619 52.5197 121.583 52.534 121.548 52.5483C121.447 52.6772 121.311 52.7416 121.154 52.7344C121.039 52.8489 120.889 52.899 120.732 52.9205C120.717 52.9205 120.703 52.9205 120.696 52.9205C120.639 53.0063 120.538 53.0493 120.438 53.0207C120.438 53.0207 120.424 53.0207 120.417 53.0135C120.345 53.0421 120.273 53.0707 120.209 53.0994C120.137 53.1423 120.066 53.1709 119.987 53.1924C119.744 53.2926 119.5 53.3928 119.257 53.493C119.193 53.5645 119.1 53.6003 119.021 53.6289C119.007 53.6361 118.985 53.6432 118.971 53.6432C118.742 53.722 118.513 53.8007 118.291 53.8866C118.205 53.9152 118.119 53.8937 118.055 53.8436C118.012 53.8722 117.969 53.9009 117.919 53.9152C117.854 53.9367 117.797 53.9367 117.74 53.9152C117.725 54.0154 117.682 54.1012 117.589 54.1299C117.504 54.1513 117.403 54.1657 117.31 54.1513C117.31 54.1513 117.296 54.1585 117.289 54.1657C117.196 54.2229 117.081 54.273 116.967 54.2802C116.938 54.3231 116.909 54.3589 116.874 54.3875C116.702 54.5163 116.437 54.5592 116.222 54.4161C115.95 54.2301 115.95 53.8579 116.115 53.6647C116.258 53.493 116.473 53.4071 116.695 53.3856C116.802 53.3141 116.931 53.2568 117.067 53.2425C117.246 53.0636 117.554 52.9062 117.826 52.9491C117.976 52.8561 118.148 52.7845 118.327 52.7988C118.434 52.7416 118.556 52.7058 118.677 52.7058C118.735 52.6485 118.799 52.6056 118.871 52.5627C118.878 52.5627 118.892 52.5555 118.899 52.5483C119.007 52.4982 119.128 52.4696 119.25 52.4696C119.329 52.3766 119.443 52.3265 119.558 52.3122C119.744 52.119 120.002 51.9973 120.266 52.0331C120.438 51.89 120.66 51.8112 120.889 51.8613C121.082 51.6037 121.397 51.4821 121.698 51.4821C121.934 51.3032 122.278 51.1529 122.585 51.2316C122.736 51.1314 122.907 51.0813 123.079 51.0384C123.094 51.0384 123.108 51.0384 123.122 51.0312L123.237 50.9883C123.351 50.8666 123.494 50.7951 123.652 50.7593C123.795 50.4945 124.131 50.38 124.425 50.4301C124.575 50.2583 124.79 50.1653 125.019 50.1725C125.133 50.0365 125.319 49.9864 125.491 49.9864C125.606 49.8218 125.785 49.7288 125.971 49.7002C126.042 49.6071 126.15 49.5499 126.257 49.5141C126.279 49.5069 126.3 49.4998 126.322 49.4998C126.322 49.4998 126.322 49.4998 126.329 49.4998C126.672 49.4425 127.059 49.8791 126.851 50.2727L126.844 50.2655Z" fill="#87BABF"/>
</g>
<g style="mix-blend-mode:multiply">
<path d="M57.9179 157.123C57.9108 157.044 57.8965 156.987 57.8822 156.951C57.8678 156.915 57.8392 156.872 57.8106 156.822C57.7819 156.772 57.739 156.736 57.6961 156.715C57.6531 156.693 57.5959 156.672 57.5243 156.657C57.4527 156.643 57.3811 156.629 57.2881 156.629V158.532C57.3597 158.532 57.4241 158.532 57.4813 158.518C57.5386 158.511 57.5887 158.497 57.6245 158.489C57.6674 158.475 57.7032 158.461 57.739 158.425C57.7676 158.396 57.7963 158.368 57.8177 158.346C57.8392 158.325 57.8535 158.289 57.875 158.239C57.8893 158.189 57.9036 158.146 57.9108 158.117C57.9179 158.089 57.9251 158.031 57.9251 157.96C57.9251 157.888 57.9251 157.831 57.9251 157.788V157.531C57.9251 157.438 57.9251 157.359 57.9251 157.309C57.9251 157.259 57.9251 157.194 57.9108 157.123H57.9179Z" fill="#E49B41"/>
</g>
<g style="mix-blend-mode:multiply">
<path d="M61.8975 157.001C61.8688 156.901 61.8187 156.815 61.7543 156.75C61.6899 156.686 61.6112 156.65 61.5181 156.65H61.0672V158.439H61.4537C61.5539 158.439 61.647 158.404 61.7185 158.339C61.7901 158.268 61.8474 158.182 61.8831 158.074C61.9189 157.967 61.9404 157.874 61.9547 157.781C61.969 157.695 61.9762 157.609 61.9762 157.531C61.9762 157.452 61.9762 157.373 61.9619 157.287C61.9476 157.201 61.9332 157.108 61.9046 157.008L61.8975 157.001Z" fill="#E49B41"/>
</g>
<g style="mix-blend-mode:multiply">
<path d="M65.741 156.572C65.6193 156.572 65.5191 156.6 65.4332 156.665C65.3473 156.722 65.2901 156.808 65.2471 156.915C65.2042 157.022 65.1827 157.123 65.1612 157.23C65.1469 157.33 65.1398 157.445 65.1398 157.566V160.45C65.1398 161.102 65.3402 161.431 65.741 161.431C66.1418 161.431 66.3422 161.102 66.3422 160.45V157.566C66.3422 156.908 66.1418 156.579 65.741 156.579V156.572Z" fill="#E49B41"/>
</g>
<g style="mix-blend-mode:multiply">
<path d="M49.3362 160.078H50.0233L49.6869 157.602L49.3362 160.078Z" fill="#E49B41"/>
</g>
<g style="mix-blend-mode:multiply">
<path d="M54.1317 157.123C54.1245 157.044 54.1102 156.987 54.0959 156.951C54.0816 156.915 54.0529 156.872 54.0243 156.822C53.9957 156.772 53.9527 156.736 53.9098 156.715C53.8668 156.693 53.8096 156.672 53.738 156.657C53.6736 156.643 53.5948 156.629 53.5018 156.629V158.532C53.5734 158.532 53.6378 158.532 53.695 158.518C53.7523 158.504 53.8024 158.497 53.8382 158.489C53.8811 158.475 53.9169 158.461 53.9527 158.425C53.9813 158.396 54.01 158.368 54.0314 158.346C54.0529 158.325 54.0672 158.289 54.0887 158.239C54.103 158.189 54.1173 158.146 54.1245 158.117C54.1317 158.089 54.1388 158.031 54.1388 157.96C54.1388 157.888 54.1388 157.831 54.1388 157.788V157.531C54.1388 157.438 54.1388 157.359 54.1388 157.309C54.1388 157.259 54.1388 157.194 54.1245 157.123H54.1317Z" fill="#E49B41"/>
</g>
<g style="mix-blend-mode:multiply">
<path d="M42.1143 149.737L33.5612 158.998L42.1143 168.258H83.0835V149.737H42.1143ZM39.7953 160.958C38.7145 160.958 37.8342 160.078 37.8342 158.998C37.8342 157.917 38.7145 157.037 39.7953 157.037C40.8761 157.037 41.7564 157.917 41.7564 158.998C41.7564 160.078 40.8761 160.958 39.7953 160.958ZM50.3812 162.332L50.1092 160.908H49.236L48.9783 162.332H47.6399L49.0785 155.663H50.2738L51.7124 162.332H50.3812ZM55.3341 158.339C55.2768 158.561 55.1981 158.747 55.0907 158.89C54.9905 159.033 54.8545 159.148 54.6899 159.241C54.5253 159.327 54.3535 159.391 54.1603 159.427C53.967 159.463 53.7523 159.484 53.5018 159.484V162.34H52.1419V155.67H53.7523C54.3321 155.67 54.7543 155.835 55.0192 156.157C55.284 156.479 55.4128 156.951 55.4128 157.559C55.4128 157.86 55.3842 158.125 55.3269 158.346L55.3341 158.339ZM59.1204 158.339C59.0631 158.561 58.9844 158.747 58.877 158.89C58.7768 159.033 58.6408 159.148 58.4762 159.241C58.3116 159.327 58.1398 159.391 57.9466 159.427C57.7533 159.463 57.5386 159.484 57.2881 159.484V162.34H55.9282V155.67H57.5386C58.1183 155.67 58.5406 155.835 58.8055 156.157C59.0703 156.479 59.1991 156.951 59.1991 157.559C59.1991 157.86 59.1705 158.125 59.1132 158.346L59.1204 158.339ZM62.0549 162.332L61.2891 159.262H61.0672V162.332H59.7216V155.663H61.1889C61.5253 155.663 61.8187 155.691 62.0692 155.756C62.3197 155.82 62.5416 155.92 62.7349 156.049C62.9281 156.185 63.0713 156.364 63.1715 156.593C63.2717 156.822 63.3218 157.094 63.3218 157.416C63.3218 157.552 63.3218 157.681 63.3075 157.788C63.3003 157.896 63.2717 158.024 63.2359 158.16C63.2001 158.296 63.15 158.425 63.0928 158.532C63.0283 158.64 62.9424 158.747 62.8279 158.847C62.7134 158.955 62.5774 159.041 62.42 159.105C62.8208 160.372 63.1715 161.452 63.4649 162.325H62.0692L62.0549 162.332ZM67.695 160.107C67.695 160.372 67.6735 160.622 67.6377 160.844C67.5948 161.073 67.5304 161.288 67.4373 161.488C67.3443 161.688 67.2226 161.86 67.0723 162.003C66.922 162.146 66.7359 162.254 66.514 162.34C66.2921 162.425 66.0345 162.461 65.741 162.461C65.4475 162.461 65.197 162.418 64.9752 162.34C64.7533 162.261 64.5672 162.153 64.4169 162.01C64.2737 161.874 64.1521 161.703 64.059 161.509C63.966 161.309 63.8944 161.102 63.8586 160.873C63.8157 160.651 63.7942 160.4 63.7942 160.135V157.896C63.7942 156.321 64.4455 155.534 65.741 155.534C67.0365 155.534 67.695 156.321 67.695 157.896V160.107ZM70.4935 162.332H69.2625L68.0385 155.663H69.3197L69.9066 159.706L70.558 155.663H71.8177L70.5007 162.332H70.4935ZM75.0385 156.586H73.607V158.404H74.6234V159.355H73.607V161.409H75.0385V162.332H72.2543V155.663H75.0385V156.586ZM79.1254 160.007C79.1254 160.243 79.1182 160.45 79.1039 160.629C79.0896 160.808 79.061 160.98 79.018 161.144C78.9751 161.316 78.925 161.459 78.8534 161.574C78.7818 161.688 78.6888 161.803 78.5814 161.903C78.4741 162.003 78.3381 162.082 78.1806 162.146C78.0232 162.204 77.8371 162.254 77.6295 162.282C77.4148 162.311 77.1786 162.332 76.8994 162.332H75.5181V155.663H76.9137C77.3575 155.663 77.7225 155.706 78.016 155.784C78.3023 155.863 78.5313 155.999 78.6959 156.178C78.8606 156.364 78.9751 156.586 79.0395 156.836C79.1039 157.094 79.1325 157.423 79.1325 157.817V160.007H79.1254Z" fill="#E49B41"/>
</g>
<g style="mix-blend-mode:multiply">
<path d="M76.9209 156.615V161.388C77.0497 161.388 77.1499 161.388 77.2215 161.388C77.2931 161.388 77.3718 161.373 77.4434 161.359C77.515 161.345 77.5722 161.323 77.608 161.295C77.6438 161.266 77.6724 161.23 77.7011 161.18C77.7297 161.13 77.7512 161.073 77.7583 161.001C77.7655 160.93 77.7726 160.851 77.7726 160.751V157.158C77.7726 156.937 77.7082 156.793 77.5794 156.722C77.4505 156.65 77.2287 156.615 76.9209 156.607V156.615Z" fill="#E49B41"/>
</g>
<path d="M37.5121 159.463C36.2595 159.57 34.8066 159.584 33.3536 159.584C32.6021 159.67 31.5786 159.72 30.5407 159.706C30.1542 159.713 29.7606 159.713 29.3812 159.706C28.5224 159.692 27.6778 159.692 26.8332 159.534C26.2105 159.499 25.5592 159.284 24.9937 159.033C23.5408 158.525 22.1093 157.273 21.415 155.813C20.778 154.768 20.4559 153.351 20.5561 152.149C20.5347 151.591 20.4917 151.047 20.5347 150.381C20.5776 149.737 20.7208 149.093 20.957 148.514C21.1073 147.955 21.4007 147.397 21.7371 146.868C22.1021 146.36 22.5101 145.873 22.9825 145.515C23.4978 144.936 24.4712 144.306 25.2657 144.062C25.5234 143.969 25.7811 143.905 26.0387 143.855C26.5827 143.705 27.1553 143.64 27.7207 143.619L29.2954 143.604H30.0755C30.3117 143.576 30.5551 143.59 30.7913 143.547C31.2637 143.483 31.736 143.383 32.1726 143.204C33.9692 142.56 35.4078 141.014 35.9661 139.182C36.0019 139.01 36.0377 138.831 36.0734 138.652C36.1021 138.466 36.1307 138.28 36.1593 138.087C36.188 137.708 36.2238 137.328 36.2381 136.949C36.2452 136.52 36.2381 136.133 36.2094 135.761C36.1808 135.575 36.1593 135.382 36.1379 135.203C36.0949 135.024 36.0591 134.845 36.0233 134.673L36.0019 134.588C35.372 132.884 34.0908 131.475 32.4518 130.687C32.2013 130.609 31.9651 130.487 31.7074 130.437H31.6645C31.1133 130.272 30.5551 130.237 29.9825 130.201H28.7872C27.3915 130.287 25.8598 130.294 24.4641 130.229C23.7269 130.258 22.9467 130.272 22.1666 130.28C21.3291 130.28 20.4702 130.122 19.7044 129.829C19.5827 129.779 19.4682 129.729 19.3465 129.686C18.4805 129.421 17.4355 128.691 16.8915 127.997C16.8557 127.954 16.8271 127.911 16.7913 127.868C16.2402 127.267 15.7821 126.573 15.4529 125.821C15.1022 125.027 14.9161 124.197 14.8875 123.338C14.8517 120.64 14.8731 118.035 14.8588 115.38C14.8159 114.514 14.8159 113.512 14.8159 112.632C14.8159 112.446 14.8087 112.289 14.823 112.088C14.8517 109.448 16.4692 106.929 18.8097 105.755C19.7044 105.304 20.4559 105.183 20.9426 105.183C21.4508 105.068 22.0449 105.061 22.5674 105.061C23.233 105.061 23.777 105.09 24.2064 105.132C24.7003 105.039 25.4375 104.982 26.368 104.989C27.2626 105.004 28.2146 105.025 29.0448 105.075C29.1164 105.075 29.1952 105.075 29.2739 105.075C30.3618 105.054 31.5929 105.054 32.7023 105.09C33.096 105.061 33.5326 105.039 33.9835 105.025C36.052 104.968 38.7074 105.025 40.1675 105.24C41.9998 105.512 40.6685 105.855 38.4139 105.977C36.4098 106.084 34.0908 106.084 31.9794 106.027C30.6767 106.056 29.2667 106.063 27.9784 106.027C26.8189 106.077 25.3659 106.113 23.913 106.113C23.1972 106.12 22.4242 106.091 21.7872 106.113C21.1502 106.12 20.549 106.227 20.0193 106.385C18.4876 106.943 17.1778 108.195 16.4621 109.512C16.2044 110.035 16.047 110.586 15.9324 111.137C15.8179 111.695 15.8036 112.239 15.7821 112.84C15.8108 113.577 15.8322 114.328 15.8465 115.151C15.8465 115.259 15.8465 115.359 15.8465 115.466C15.8465 116.676 15.8394 117.878 15.7964 119.03C15.8537 120.111 15.8609 121.341 15.8322 122.515C15.8465 123.145 15.9038 123.689 16.0326 124.283C16.1758 124.862 16.3977 125.428 16.6768 125.957C16.9703 126.487 17.3353 126.966 17.7361 127.396C18.1512 127.818 18.595 128.183 19.0602 128.483C19.9406 128.941 20.9641 129.192 21.9805 129.228C23.0612 129.249 24.1492 129.271 25.1226 129.342C26.4896 129.256 28.0213 129.22 29.5745 129.213C30.3403 129.199 31.2422 129.256 32.008 129.514C32.7953 129.757 33.5111 130.136 34.1195 130.587C35.415 131.417 36.5673 132.92 36.9896 134.616C37.2186 135.446 37.2401 136.362 37.1972 137.099C37.1972 137.472 37.1542 137.879 37.1113 138.252C37.0397 138.624 36.9681 138.982 36.8464 139.304C36.417 141.121 35.1573 142.731 33.5182 143.633C33.3823 143.719 33.2319 143.783 33.0816 143.855C32.7095 144.048 32.3086 144.191 31.9007 144.306C31.5213 144.435 31.1277 144.513 30.7197 144.578C30.3117 144.614 29.8894 144.642 29.5029 144.642C28.7228 144.664 27.8853 144.628 27.1624 144.671C26.6328 144.792 26.0387 144.936 25.4518 145.207C24.8649 145.479 24.2852 145.837 23.7627 146.288C22.6962 147.175 21.9733 148.449 21.6369 149.616C21.6011 149.852 21.5868 150.095 21.5582 150.339C21.5582 150.589 21.5582 150.839 21.5582 151.09C21.5796 151.619 21.5653 152.206 21.594 152.714C21.6369 153.738 21.9089 154.747 22.367 155.606C23.1614 156.872 24.5715 158.01 26.0316 158.489C26.4109 158.568 26.8117 158.625 27.2269 158.647C27.4344 158.647 27.6491 158.647 27.8639 158.654C28.0929 158.654 28.3291 158.647 28.5653 158.64C29.5101 158.625 30.4763 158.633 31.3853 158.654C32.4232 158.597 33.597 158.575 34.7207 158.583C34.9569 158.583 35.1716 158.59 35.372 158.597H35.4722C38.872 158.668 40.8832 159.219 37.4835 159.506L37.5121 159.463ZM36.1522 105.741H36.1808C36.2452 105.755 36.2381 105.741 36.1522 105.741Z" fill="#56291C"/>
<g style="mix-blend-mode:multiply">
<path d="M147.443 113.52H141.195C123.501 113.52 109.158 127.861 109.158 145.551V196.618C109.158 198.679 107.483 200.354 105.422 200.354H101.12C99.0589 200.354 97.384 198.679 97.384 196.618V130.208H69.0764V196.618C69.0764 214.308 83.4199 228.649 101.113 228.649H105.415C123.108 228.649 137.451 214.308 137.451 196.618V145.551C137.451 143.49 139.126 141.815 141.188 141.815H145.146C146.412 141.815 147.436 142.839 147.436 144.105V229H197.631C210.536 229 220.993 218.545 220.993 205.642V113.52H147.436H147.443ZM91.4434 154.961C89.7828 154.961 88.4301 153.616 88.4301 151.949C88.4301 150.281 89.7757 148.936 91.4434 148.936C93.111 148.936 94.4566 150.281 94.4566 151.949C94.4566 153.616 93.111 154.961 91.4434 154.961ZM91.4434 145.286C89.7828 145.286 88.4301 143.941 88.4301 142.273C88.4301 140.606 89.7757 139.261 91.4434 139.261C93.111 139.261 94.4566 140.606 94.4566 142.273C94.4566 143.941 93.111 145.286 91.4434 145.286Z" fill="#87BABF"/>
</g>
<path d="M186.494 194.163L179.716 199.974L172.294 194.163L175.379 113.52H183.409L186.494 194.163Z" fill="#56291C"/>
<path d="M214.48 152.049H194.152V184.595H214.48V152.049Z" fill="white"/>
<path d="M204.316 142.731C201.94 142.731 200.014 144.656 200.014 147.032V155.019H208.618V147.032C208.618 144.656 206.692 142.731 204.316 142.731ZM204.316 149.494C203.128 149.494 202.162 148.528 202.162 147.34C202.162 146.152 203.128 145.186 204.316 145.186C205.504 145.186 206.47 146.152 206.47 147.34C206.47 148.528 205.504 149.494 204.316 149.494Z" fill="#56291C"/>
<g style="mix-blend-mode:multiply">
<path d="M92.61 145.68C94.2742 145.68 95.6233 144.331 95.6233 142.667C95.6233 141.003 94.2742 139.654 92.61 139.654C90.9458 139.654 89.5967 141.003 89.5967 142.667C89.5967 144.331 90.9458 145.68 92.61 145.68Z" fill="#E49B41"/>
</g>
<g style="mix-blend-mode:multiply">
<path d="M92.61 155.355C94.2742 155.355 95.6233 154.006 95.6233 152.342C95.6233 150.678 94.2742 149.329 92.61 149.329C90.9458 149.329 89.5967 150.678 89.5967 152.342C89.5967 154.006 90.9458 155.355 92.61 155.355Z" fill="#E49B41"/>
</g>
</g>
<defs>
<clipPath id="clip0_13_76">
<rect width="221" height="229" fill="white"/>
</clipPath>
</defs>
</svg>
