<svg width="76" height="32" viewBox="0 0 76 32" fill="none" xmlns="http://www.w3.org/2000/svg">
<g clip-path="url(#clip0_1_287)">
<path d="M60.065 0H15.9358C7.13435 0 0 7.13802 0 16.0004C0 24.8627 7.13435 32.0008 15.9358 32.0008H60.065C68.8656 32.0008 76.0007 24.8627 76.0007 16.0004C76.0007 7.13802 68.8656 0 60.065 0Z" fill="#3AB14A"/>
<path d="M73.616 16.0004C73.616 23.5477 67.3527 29.6669 59.6265 29.6669C51.9002 29.6669 45.637 23.5485 45.637 16.0004C45.637 8.45302 51.9002 2.33386 59.6265 2.33386C67.3527 2.33386 73.616 8.45227 73.616 16.0004Z" fill="white"/>
<path d="M59.6659 10.8986H57.803C57.6936 10.8986 57.6251 10.9743 57.6251 11.0958V20.7281C57.6251 20.8495 57.6936 20.9253 57.803 20.9253H59.6659C59.7753 20.9253 59.8438 20.8495 59.8438 20.7281V11.0958C59.8438 10.9743 59.7753 10.8986 59.6659 10.8986Z" fill="#AAAEBA"/>
<path d="M64.4229 11.053C64.3819 10.9466 64.3268 10.9008 64.2174 10.9008H61.7752C61.6658 10.9008 61.5973 10.9765 61.5973 11.098V20.7258C61.5973 20.8473 61.6658 20.923 61.7752 20.923H63.6381C63.7476 20.923 63.8161 20.8473 63.8161 20.7258V16.8453C63.8161 16.5252 63.8131 16.2395 63.8071 15.9689V13.9334L63.863 14.0069L64.9426 16.4217V16.4015L65.6857 18.0006C65.9046 18.5014 66.4064 19.6882 67.0214 20.7723C67.0772 20.8713 67.1174 20.9245 67.2269 20.9245H69.6646C69.774 20.9245 69.8425 20.8488 69.8425 20.7273V11.098C69.8425 10.9765 69.774 10.9008 69.6646 10.9008H67.8158C67.7064 10.9008 67.6379 10.9765 67.6379 11.098V12.0381V17.8911L67.582 17.8177L66.5024 15.4028" fill="#AAAEBA"/>
<path d="M56.3698 10.8971H49.7812C49.6717 10.8971 49.6032 10.9728 49.6032 11.0943V20.7266C49.6032 20.848 49.6717 20.9237 49.7812 20.9237H51.644C51.7535 20.9237 51.822 20.848 51.822 20.7266V17.7142H55.3147C55.4242 17.7142 55.4927 17.6385 55.4927 17.517V15.684C55.4927 15.5625 55.4242 15.4778 55.3147 15.4778L51.822 15.4868V13.069L55.8903 13.0817C55.9863 13.0817 56.0548 12.9948 56.0824 12.8891L56.5209 11.1242C56.5484 10.9878 56.4933 10.8963 56.3705 10.8963L56.3698 10.8971Z" fill="#AAAEBA"/>
<path d="M23.5013 20.7663C23.5013 20.8878 23.4328 20.9635 23.3233 20.9635H21.4604C21.351 20.9635 21.2825 20.8878 21.2825 20.7663V11.071C21.2825 10.9496 21.351 10.8738 21.4604 10.8738H23.3233C23.4328 10.8738 23.5013 10.9496 23.5013 11.071V20.7656V20.7663Z" fill="white"/>
<path d="M27.6536 16.6646C25.7774 15.8909 25.0924 15.1322 25.0924 13.4784C25.0924 11.4909 26.4482 10.7359 28.6126 10.7359C29.4071 10.7359 30.1464 10.8873 30.8039 11.1303L31.7078 11.4639C31.8314 11.5096 31.8582 11.5853 31.8314 11.7068L31.27 13.0383C31.229 13.1597 31.1605 13.2055 31.0511 13.1597L30.2432 12.8868C29.6952 12.7046 29.1748 12.5682 28.6134 12.5682C27.8465 12.5682 27.326 12.9326 27.326 13.4791C27.326 14.0256 27.7504 14.2528 28.5315 14.5714L29.6818 15.0415C31.5856 15.831 32.2706 16.6196 32.2706 18.2735C32.2706 20.3525 30.9967 21.2761 28.6677 21.2761C27.8457 21.2761 27.1064 21.1854 25.9694 20.7753L25.0656 20.4567C24.942 20.4109 24.9152 20.3352 24.942 20.2138L25.49 18.7136C25.5309 18.5921 25.5994 18.5464 25.7089 18.5921L26.6678 18.9108C27.4757 19.1837 28.0788 19.2751 28.6677 19.2751C29.4071 19.2751 30.0377 19.078 30.0377 18.2735C30.0377 17.8184 29.5582 17.4691 28.8047 17.1504L27.6544 16.6646H27.6536Z" fill="white"/>
<path d="M41.6722 20.7281C41.6722 20.8495 41.6037 20.9252 41.4942 20.9252H39.6447C39.5353 20.9252 39.4668 20.8495 39.4668 20.7281V16.8326H35.9055V20.7281C35.9055 20.8495 35.8371 20.9252 35.7276 20.9252H33.8647C33.7553 20.9252 33.6868 20.8495 33.6868 20.7281V11.1003C33.6868 10.9788 33.7553 10.9031 33.8647 10.9031H35.7276C35.8371 10.9031 35.9055 10.9788 35.9055 11.1003V14.6929H39.4668V11.1003C39.4668 10.9788 39.5353 10.9031 39.6447 10.9031H41.4942C41.6037 10.9031 41.6722 10.9788 41.6722 11.1003V20.7281Z" fill="white"/>
<path d="M19.8187 10.9001H17.9282C17.8188 10.9001 17.7503 10.9608 17.7227 11.0673L16.8062 14.7986C16.7339 15.118 16.6654 15.4651 16.6014 15.8205L16.1457 17.9241L15.6849 15.9307C15.6082 15.5348 15.5248 15.1472 15.4362 14.7963L15.1801 13.7482C14.9381 12.7181 14.7356 12.0989 14.5606 11.0823C14.5472 10.9608 14.4787 10.9001 14.3685 10.9001H11.799C11.6896 10.9001 11.6211 10.9608 11.6069 11.0823C11.4312 12.0989 11.2294 12.7181 10.9875 13.7482L10.7313 14.7963C10.6427 15.148 10.5593 15.5356 10.4826 15.9307L10.0218 17.9241L9.56609 15.8205C9.50206 15.4651 9.43281 15.1172 9.36134 14.7986L8.44478 11.0673C8.41724 10.9608 8.34874 10.9001 8.23929 10.9001H6.34885C6.22526 10.9001 6.15676 10.9908 6.19845 11.1123L7.88339 18.0276C8.12984 19.0742 8.33533 19.7085 8.51328 20.7401C8.52669 20.8615 8.59518 20.9222 8.70538 20.9222H11.2123C11.2123 20.9222 11.2138 20.9222 11.2153 20.9222H11.3344C11.4439 20.9222 11.5124 20.8615 11.5399 20.7551L12.4565 17.0237C12.5287 16.7044 12.5972 16.3572 12.6612 16.0019L13.0849 14.0481L13.5085 16.0019C13.5726 16.3572 13.6418 16.7051 13.7133 17.0237L14.6298 20.7551C14.6574 20.8615 14.7259 20.9222 14.8353 20.9222H17.4644C17.5738 20.9222 17.6423 20.8623 17.6565 20.7408C17.8344 19.7092 18.0399 19.0757 18.2864 18.0284L19.9713 11.113C20.0122 10.9916 19.9437 10.9008 19.8209 10.9008L19.8187 10.9001Z" fill="white"/>
</g>
<defs>
<clipPath id="clip0_1_287">
<rect width="76" height="32" fill="white"/>
</clipPath>
</defs>
</svg>
